<svg width="120" height="120" viewBox="0 0 120 120" fill="none" xmlns="http://www.w3.org/2000/svg">
<g clip-path="url(#clip0_502_540)">
<path d="M0 43.4286C0 28.2271 0 20.6264 2.95839 14.8203C5.56067 9.713 9.713 5.56067 14.8203 2.95839C20.6264 0 28.2271 0 43.4286 0H76.5714C91.7729 0 99.3736 0 105.18 2.95839C110.287 5.56067 114.439 9.713 117.042 14.8203C120 20.6264 120 28.2271 120 43.4286V76.5714C120 91.7729 120 99.3736 117.042 105.18C114.439 110.287 110.287 114.439 105.18 117.042C99.3736 120 91.7729 120 76.5714 120H43.4286C28.2271 120 20.6264 120 14.8203 117.042C9.713 114.439 5.56067 110.287 2.95839 105.18C0 99.3736 0 91.7729 0 76.5714V43.4286Z" fill="#330000"/>
<path d="M58.1503 75.4125H39.5549L35.7714 87.467C35.6663 87.9148 35.254 88.232 34.8053 88.21H25.3869C24.8498 88.21 24.6619 87.9073 24.8234 87.3018L40.9233 39.7449C41.0844 39.2496 41.2455 38.6854 41.4064 38.0523C41.617 36.9507 41.7248 35.8311 41.7284 34.7086C41.6823 34.3769 41.9738 34.084 42.2919 34.1305H55.0913C55.4663 34.1305 55.6809 34.2681 55.7353 34.5434L74.009 87.3843C74.1699 87.9352 74.0088 88.2104 73.5258 88.21H63.0607C62.6937 88.2517 62.3432 88.0001 62.2558 87.6321L58.1503 75.4125ZM42.4528 65.0095H55.1718C53.0821 57.8688 50.7238 50.8218 48.8125 43.6254C46.7502 50.834 44.5002 58.0135 42.4528 65.0095Z" fill="#FF9A00"/>
<path d="M84.8754 42.8821C84.0544 42.9159 83.2356 42.7716 82.4726 42.4586C81.7097 42.1456 81.0197 41.6709 80.4479 41.0657C79.8777 40.4342 79.4348 39.6933 79.1446 38.8857C78.8545 38.078 78.7228 37.2195 78.7572 36.3595C78.728 35.508 78.8742 34.6598 79.1863 33.8702C79.4984 33.0806 79.9694 32.3674 80.5685 31.7772C81.1619 31.1931 81.8622 30.7355 82.6291 30.4308C83.396 30.1261 84.2142 29.9804 85.0363 30.0021C86.9684 30.0021 88.4845 30.5938 89.5846 31.7772C90.1399 32.3922 90.5715 33.1135 90.8547 33.8998C91.1378 34.6861 91.267 35.522 91.2348 36.3595C91.2684 37.2229 91.1326 38.0844 90.8353 38.8928C90.538 39.7013 90.0853 40.4402 89.5041 41.0657C88.8966 41.6798 88.1718 42.1583 87.3751 42.4709C86.5785 42.7835 85.7274 42.9235 84.8754 42.8821ZM79.3207 87.3841V47.9184C79.3207 47.4231 79.5346 47.1753 79.9648 47.1753H89.8664C90.2953 47.1753 90.51 47.423 90.5104 47.9184V87.3841C90.5104 87.9349 90.2957 88.2102 89.8664 88.2098H80.0453C79.5624 88.2098 79.3209 87.9345 79.3207 87.3841Z" fill="#FF9A00"/>
</g>
<defs>
<clipPath id="clip0_502_540">
<rect width="120" height="120" fill="white"/>
</clipPath>
</defs>
</svg>
