<svg width="120" height="120" viewBox="0 0 120 120" fill="none" xmlns="http://www.w3.org/2000/svg">
<g clip-path="url(#clip0_502_543)">
<path d="M0 43.4286C0 28.2271 0 20.6264 2.95839 14.8203C5.56067 9.713 9.713 5.56067 14.8203 2.95839C20.6264 0 28.2271 0 43.4286 0H76.5714C91.7729 0 99.3736 0 105.18 2.95839C110.287 5.56067 114.439 9.713 117.042 14.8203C120 20.6264 120 28.2271 120 43.4286V76.5714C120 91.7729 120 99.3736 117.042 105.18C114.439 110.287 110.287 114.439 105.18 117.042C99.3736 120 91.7729 120 76.5714 120H43.4286C28.2271 120 20.6264 120 14.8203 117.042C9.713 114.439 5.56067 110.287 2.95839 105.18C0 99.3736 0 91.7729 0 76.5714V43.4286Z" fill="#001E36"/>
<path d="M25.7143 87.9267V35.1575C25.7143 34.7985 25.8643 34.5934 26.2143 34.5934C31.3813 34.5934 36.5459 34.2857 41.7143 34.2857C50.1007 34.2857 59.1814 37.1533 62.3643 45.9267C63.1143 48.0806 63.5143 50.2857 63.5143 52.5934C63.5143 57.0037 62.5143 60.6447 60.5143 63.5165C54.9275 71.5386 45.2443 71.4139 36.5643 71.4139V87.8755C36.6322 88.3628 36.2169 88.5934 35.8143 88.5934H26.3143C25.9143 88.5934 25.7143 88.3883 25.7143 87.9267ZM36.6143 44.4908V61.7216C40.0559 61.9737 43.6574 62.0011 46.9643 60.9011C50.615 59.848 52.6143 56.6878 52.6143 52.9011C52.7158 49.6744 50.9575 46.5784 47.9643 45.4139C44.6973 44.0555 40.1409 43.9741 36.6143 44.4908Z" fill="#31A8FF"/>
<path d="M94.7 58.3173C93.1871 57.52 91.5758 56.9368 89.9102 56.5834C87.7698 56.0797 79.3276 54.3159 79.3245 58.7301C79.3994 61.1945 83.3113 62.4019 85.0398 63.106C91.1077 65.1892 97.9744 68.9131 97.8394 76.3988C98.025 85.7178 88.996 89.4431 81.2564 89.444C77.2272 89.4857 73.0298 88.8616 69.3423 87.1321C68.9903 86.9457 68.7637 86.5473 68.7788 86.1413V77.2244C68.7392 76.8669 69.1229 76.5545 69.4229 76.8116C73.0358 78.9966 77.3183 80.0574 81.4979 80.1142C83.3429 80.1142 86.9997 79.9353 86.972 77.2244C86.972 74.6229 82.5975 73.4268 80.8538 72.7659C78.3262 71.8636 75.9296 70.6138 73.7296 69.0506C70.6551 66.8576 68.7264 63.3415 68.7789 59.4732C68.7609 50.6987 77.072 46.7602 84.557 46.7583C88.0561 46.7295 91.8136 46.9886 95.0708 48.4096C95.5392 48.5475 95.6363 49.0408 95.6343 49.4829V57.8219C95.664 58.3395 95.0891 58.5158 94.7 58.3173Z" fill="#31A8FF"/>
</g>
<defs>
<clipPath id="clip0_502_543">
<rect width="120" height="120" fill="white"/>
</clipPath>
</defs>
</svg>
