<svg width="120" height="120" viewBox="0 0 120 120" fill="none" xmlns="http://www.w3.org/2000/svg">
<path d="M24.9244 12.1875C18.0773 12.1875 13.0108 18.1804 13.2376 24.6797C13.4553 30.9238 13.1725 39.0106 11.1366 45.6055C9.09458 52.2197 5.64102 56.4095 0 56.9475V63.0207C5.64102 63.5587 9.09458 67.7485 11.1366 74.3628C13.1725 80.9577 13.4553 89.0444 13.2376 95.2885C13.0108 101.787 18.0773 107.781 24.9254 107.781H95.0847C101.932 107.781 106.997 101.788 106.771 95.2885C106.553 89.0444 106.836 80.9577 108.872 74.3628C110.915 67.7485 114.359 63.5587 120 63.0207V56.9475C114.359 56.4095 110.915 52.2197 108.872 45.6055C106.836 39.0116 106.553 30.9238 106.771 24.6797C106.997 18.1814 101.932 12.1875 95.0847 12.1875H24.9234H24.9244ZM81.3559 71.0312C81.3559 79.9804 74.6807 85.4078 63.6031 85.4078H44.7458C43.6225 85.4078 42.7119 84.4972 42.7119 83.3739V36.5943C42.7119 35.471 43.6225 34.5604 44.7458 34.5604H63.4953C72.7322 34.5604 78.7942 39.5638 78.7942 47.2458C78.7942 52.6377 74.7163 57.4651 69.5207 58.3102V58.5919C76.5936 59.3678 81.3559 64.2655 81.3559 71.0312ZM61.5468 41.0078H50.7946V56.195H59.8505C66.8512 56.195 70.7115 53.376 70.7115 48.337C70.7115 43.6153 67.3922 41.0078 61.5468 41.0078ZM50.7946 62.2214V78.9583H61.9424C69.2308 78.9583 73.0922 76.0336 73.0922 70.537C73.0922 65.0394 69.1231 62.2204 61.4736 62.2204H50.7946V62.2214Z" fill="#7E13F8"/>
<path d="M81.3559 71.0312C81.3559 79.9804 74.6807 85.4078 63.603 85.4078H44.7458C43.6225 85.4078 42.7119 84.4972 42.7119 83.3739V36.5943C42.7119 35.471 43.6225 34.5604 44.7458 34.5604H63.4952C72.7322 34.5604 78.7942 39.5638 78.7942 47.2458C78.7942 52.6377 74.7163 57.4651 69.5207 58.3102V58.5919C76.5935 59.3678 81.3559 64.2654 81.3559 71.0312ZM61.5468 41.0078H50.7946V56.1949H59.8505C66.8512 56.1949 70.7115 53.376 70.7115 48.337C70.7115 43.6153 67.3922 41.0078 61.5468 41.0078ZM50.7946 62.2214V78.9583H61.9424C69.2308 78.9583 73.0922 76.0336 73.0922 70.537C73.0922 65.0393 69.123 62.2204 61.4736 62.2204H50.7946V62.2214Z" fill="white"/>
</svg>
