<svg width="120" height="120" viewBox="0 0 120 120" fill="none" xmlns="http://www.w3.org/2000/svg">
<path fill-rule="evenodd" clip-rule="evenodd" d="M60.0005 2.8125C27.644 2.8125 1.40625 29.0454 1.40625 61.4067C1.40625 87.2952 18.1953 109.259 41.4766 117.007C44.4049 117.549 45.48 115.736 45.48 114.188C45.48 112.791 45.4257 108.175 45.4004 103.279C29.0995 106.823 25.6598 96.3655 25.6598 96.3655C22.9944 89.5929 19.1539 87.792 19.1539 87.792C13.8377 84.1553 19.5547 84.23 19.5547 84.23C25.4385 84.6434 28.5367 90.2682 28.5367 90.2682C33.7627 99.226 42.2441 96.6362 45.5877 95.1391C46.1136 91.352 47.6321 88.7671 49.3078 87.3039C36.2932 85.8223 22.6121 80.7981 22.6121 58.3464C22.6121 51.9493 24.901 46.7223 28.6493 42.6189C28.0409 41.1431 26.0353 35.1835 29.2169 27.1126C29.2169 27.1126 34.1372 25.5378 45.3345 33.1187C50.0084 31.8205 55.0209 31.1694 60.0005 31.1471C64.98 31.1694 69.9965 31.8205 74.6791 33.1187C85.8628 25.5378 90.7763 27.1126 90.7763 27.1126C93.9657 35.1835 91.9591 41.1431 91.3507 42.6189C95.1077 46.7223 97.3811 51.9493 97.3811 58.3464C97.3811 80.8515 83.6738 85.8068 70.6262 87.2574C72.7279 89.0757 74.6005 92.6415 74.6005 98.1082C74.6005 105.948 74.5326 112.258 74.5326 114.188C74.5326 115.747 75.5873 117.574 78.5574 116.999C101.826 109.242 118.594 87.2865 118.594 61.4067C118.594 29.0454 92.3599 2.8125 60.0005 2.8125ZM23.3517 86.2812C23.2226 86.5723 22.7647 86.6596 22.3474 86.4598C21.9225 86.2686 21.6838 85.8718 21.8215 85.5797C21.9477 85.2799 22.4066 85.1964 22.8306 85.3973C23.2566 85.5884 23.4992 85.9892 23.3517 86.2812ZM26.2339 88.853C25.9544 89.112 25.4082 88.9917 25.0375 88.5822C24.6542 88.1738 24.5824 87.6275 24.8658 87.3645C25.1539 87.1055 25.6837 87.2267 26.068 87.6352C26.4512 88.0486 26.5259 88.591 26.2339 88.853ZM28.2112 92.1434C27.8522 92.3928 27.2651 92.1589 26.9022 91.6379C26.5432 91.1168 26.5432 90.492 26.91 90.2416C27.2739 89.9913 27.8522 90.2164 28.2199 90.7336C28.5779 91.2633 28.5779 91.8882 28.2112 92.1434ZM31.5552 95.9542C31.234 96.3084 30.55 96.2133 30.0493 95.7301C29.537 95.2575 29.3943 94.5871 29.7165 94.2329C30.0415 93.8778 30.7295 93.9777 31.234 94.457C31.7425 94.9286 31.8977 95.6039 31.5552 95.9542ZM35.877 97.2407C35.7353 97.6996 35.0765 97.9083 34.4128 97.7132C33.7501 97.5124 33.3164 96.9748 33.4503 96.511C33.5881 96.0492 34.2498 95.8318 34.9184 96.0404C35.5801 96.2403 36.0148 96.774 35.877 97.2407ZM40.7954 97.7864C40.8119 98.2696 40.2491 98.6703 39.5525 98.6791C38.8519 98.6946 38.2853 98.3036 38.2775 97.8281C38.2775 97.3401 38.8277 96.9432 39.5282 96.9316C40.2249 96.918 40.7954 97.3061 40.7954 97.7864ZM45.6272 97.6012C45.7106 98.0727 45.2265 98.5569 44.5346 98.686C43.8545 98.8102 43.2247 98.5191 43.1384 98.0514C43.054 97.5682 43.5469 97.084 44.2261 96.9588C44.9189 96.8385 45.5389 97.1219 45.6272 97.6012Z" fill="#161614"/>
</svg>
