<svg width="120" height="120" viewBox="0 0 120 120" fill="none" xmlns="http://www.w3.org/2000/svg">
<g clip-path="url(#clip0_502_574)">
<path d="M120 0H0V120H120V0Z" fill="url(#paint0_linear_502_574)"/>
<path fill-rule="evenodd" clip-rule="evenodd" d="M88.5966 22.5H31.4155C26.4964 22.5 22.5068 26.4868 22.5001 31.4091V88.5427C22.4906 90.9152 23.4256 93.1936 25.0986 94.8745C26.7716 96.5551 29.0447 97.5 31.4155 97.5H88.5966C90.9651 97.4967 93.2352 96.5506 94.9055 94.87C96.5758 93.1897 97.5094 90.9131 97.4999 88.5427V31.4091C97.4931 26.4915 93.5107 22.5066 88.5966 22.5ZM54.8453 76.5198C54.8424 77.3126 54.5237 78.0717 53.9599 78.6288C53.3961 79.1861 52.6339 79.4957 51.8416 79.4895H39.3456C37.7113 79.4829 36.3899 78.1551 36.3899 76.5198V39.3083C36.3899 37.6728 37.7113 36.3452 39.3456 36.3386H51.8416C53.4779 36.3452 54.8028 37.6709 54.8093 39.3083L54.8453 76.5198ZM83.6821 59.4348C83.6821 60.2288 83.3646 60.9898 82.8002 61.5477C82.2358 62.1056 81.4718 62.4143 80.6783 62.4048H68.1824C66.546 62.398 65.2211 61.0722 65.2146 59.4348V39.3083C65.2211 37.6709 66.546 36.3452 68.1824 36.3386H80.6783C82.3126 36.3452 83.6342 37.6728 83.6342 39.3083L83.6821 59.4348Z" fill="white"/>
</g>
<rect x="0.5" y="0.5" width="119" height="119" rx="19.5" stroke="black" stroke-opacity="0.1"/>
<defs>
<linearGradient id="paint0_linear_502_574" x1="60.0575" y1="120" x2="60.0575" y2="0" gradientUnits="userSpaceOnUse">
<stop stop-color="#0050CF"/>
<stop offset="1" stop-color="#2683FE"/>
</linearGradient>
<clipPath id="clip0_502_574">
<rect width="120" height="120" rx="20" fill="white"/>
</clipPath>
</defs>
</svg>
