<svg width="120" height="120" viewBox="0 0 120 120" fill="none" xmlns="http://www.w3.org/2000/svg">
<mask id="mask0_502_555" style="mask-type:alpha" maskUnits="userSpaceOnUse" x="0" y="0" width="120" height="119">
<path d="M84.763 118.409C86.6456 119.142 88.7925 119.095 90.6929 118.181L115.303 106.339C117.889 105.095 119.533 102.477 119.533 99.606V19.3111C119.533 16.4399 117.889 13.8227 115.303 12.5784L90.6929 0.736181C88.1991 -0.463792 85.2803 -0.169873 83.0918 1.42133C82.779 1.64864 82.4811 1.90244 82.2019 2.18213L35.089 45.1639L14.5677 29.5866C12.6574 28.1365 9.98535 28.2553 8.21113 29.8692L1.62927 35.8563C-0.540949 37.8305 -0.543438 41.2447 1.6239 43.2221L19.4207 59.4583L1.6239 75.6947C-0.543438 77.6721 -0.540949 81.0863 1.62927 83.0605L8.21113 89.0474C9.98535 90.6616 12.6574 90.7802 14.5677 89.3304L35.089 73.7528L82.2019 116.735C82.9471 117.48 83.8221 118.042 84.763 118.409ZM89.668 32.323L53.9202 59.4583L89.668 86.5937V32.323Z" fill="white"/>
</mask>
<g mask="url(#mask0_502_555)">
<path d="M115.376 12.5968L90.7467 0.738308C87.8961 -0.634306 84.489 -0.0553065 82.2515 2.18202L1.62488 75.6947C-0.543769 77.6721 -0.541276 81.0863 1.63026 83.0605L8.2161 89.0474C9.99145 90.6616 12.6651 90.7802 14.5766 89.3304L111.67 15.6732C114.927 13.2021 119.606 15.5254 119.606 19.6139V19.328C119.606 16.458 117.962 13.8418 115.376 12.5968Z" fill="#0065A9"/>
<path d="M115.376 106.32L90.7467 118.178C87.8961 119.551 84.489 118.972 82.2515 116.735L1.62488 43.222C-0.543769 41.2447 -0.541276 37.8304 1.63026 35.8563L8.2161 29.8691C9.99145 28.2552 12.6651 28.1364 14.5766 29.5865L111.67 103.243C114.927 105.714 119.606 103.391 119.606 99.3025V99.5887C119.606 102.458 117.962 105.075 115.376 106.32Z" fill="#007ACC"/>
<path d="M90.6695 118.188C87.818 119.559 84.4108 118.98 82.1733 116.742C84.9301 119.499 89.6442 117.546 89.6442 113.648V5.28414C89.6442 1.38529 84.9301 -0.567277 82.1733 2.18963C84.4108 -0.0478957 87.818 -0.627712 90.6695 0.74369L115.294 12.5859C117.882 13.8302 119.527 16.4474 119.527 19.3186V99.6137C119.527 102.485 117.882 105.102 115.294 106.346L90.6695 118.188Z" fill="#1F9CF0"/>
<path d="M84.7631 118.409C86.6457 119.142 88.7926 119.095 90.6926 118.181L115.302 106.338C117.889 105.094 119.533 102.477 119.533 99.6059V19.3109C119.533 16.4397 117.889 13.8225 115.303 12.5782L90.6926 0.736001C88.1992 -0.463975 85.2804 -0.170056 83.0915 1.42115C82.7791 1.64846 82.4812 1.90225 82.2015 2.18194L35.089 45.1637L14.5677 29.5864C12.6574 28.1363 9.98533 28.2551 8.2111 29.869L1.62927 35.8561C-0.540949 37.8303 -0.543438 41.2446 1.6239 43.2219L19.4207 59.4582L1.6239 75.6946C-0.543438 77.672 -0.540949 81.0862 1.62927 83.0604L8.2111 89.0473C9.98533 90.6615 12.6574 90.7801 14.5677 89.3303L35.089 73.7527L82.2015 116.735C82.9467 117.48 83.8222 118.042 84.7631 118.409ZM89.6681 32.3228L53.9203 59.4582L89.6681 86.5936V32.3228Z" fill="url(#paint0_linear_502_555)" fill-opacity="0.25"/>
</g>
<defs>
<linearGradient id="paint0_linear_502_555" x1="59.7666" y1="-0.000183571" x2="59.7666" y2="118.917" gradientUnits="userSpaceOnUse">
<stop stop-color="white"/>
<stop offset="1" stop-color="white" stop-opacity="0"/>
</linearGradient>
</defs>
</svg>
