<?xml version="1.0" encoding="utf-8"?>
<!-- Generator: Adobe Illustrator 28.0.0, SVG Export Plug-In . SVG Version: 6.00 Build 0)  -->
<svg version="1.1" id="Layer_1" xmlns="http://www.w3.org/2000/svg" xmlns:xlink="http://www.w3.org/1999/xlink" x="0px" y="0px"
	 viewBox="0 0 960 107.9" style="enable-background:new 0 0 960 107.9;" xml:space="preserve">
<style type="text/css">
	.st0{clip-path:url(#SVGID_00000142892799501912330990000013127272512535677069_);}
	.st1{fill-rule:evenodd;clip-rule:evenodd;fill:#FFFFFF;}
	.st2{fill-rule:evenodd;clip-rule:evenodd;fill:#001646;}
	.st3{fill:#FFFFFF;}
</style>
<g>
	<defs>
		<rect id="SVGID_1_" y="0" width="960" height="540"/>
	</defs>
	<clipPath id="SVGID_00000165217498390764930140000000374540752241806238_">
		<use xlink:href="#SVGID_1_"  style="overflow:visible;"/>
	</clipPath>
	<g style="clip-path:url(#SVGID_00000165217498390764930140000000374540752241806238_);">
		<path class="st1" d="M0,0h960v540H0V0z"/>
		<g>
			<g transform="matrix(1.0 0.0 0.0 1.0 0.0 2.0)">
				<g id="p.1">
					<path class="st2" d="M272.1,23.7h170v58.2h-170V23.7z"/>
					<path class="st3" d="M297.7,37.8V48H296V37.8h-2.7v-1.6h7v1.6H297.7z M303.2,40.9c-0.1,0-0.3,0-0.4,0.1
						c-0.1,0.1-0.2,0.1-0.3,0.2s-0.2,0.2-0.2,0.3c-0.1,0.1-0.1,0.3-0.1,0.4v6h-1.6v-8.7h0.8l0.4,0.6c0.1-0.1,0.3-0.2,0.7-0.4
						c0.4-0.2,0.8-0.3,1.2-0.3h0.9v1.7H303.2z M305.3,38.1v-1.9h1.8v1.9H305.3z M305.4,48v-8.7h1.6V48H305.4z M314.6,45.5
						c0,0.4-0.1,0.7-0.2,1c-0.1,0.3-0.3,0.6-0.6,0.9c-0.2,0.2-0.5,0.4-0.9,0.6c-0.3,0.1-0.7,0.2-1,0.2h-0.2c-0.4,0-0.8-0.1-1.2-0.2
						c-0.3-0.2-0.5-0.3-0.5-0.4l0.1,3.7h-1.6V39.4h0.8l0.4,0.6c0.1-0.1,0.3-0.2,0.7-0.4c0.4-0.2,0.8-0.3,1.2-0.3h0.2
						c0.4,0,0.7,0.1,1,0.2c0.3,0.1,0.6,0.3,0.9,0.6c0.2,0.2,0.4,0.5,0.6,0.9c0.1,0.3,0.2,0.7,0.2,1V45.5L314.6,45.5z M313,41.8
						c0-0.2,0-0.3-0.1-0.4c-0.1-0.1-0.1-0.2-0.2-0.3s-0.2-0.2-0.3-0.2c-0.1-0.1-0.3-0.1-0.4-0.1h-0.6c-0.1,0-0.3,0-0.4,0.1
						c-0.1,0.1-0.2,0.1-0.3,0.2s-0.2,0.2-0.2,0.3c-0.1,0.1-0.1,0.3-0.1,0.4v3.7c0,0.1,0,0.3,0.1,0.4c0.1,0.1,0.1,0.2,0.2,0.3
						s0.2,0.2,0.3,0.2c0.1,0.1,0.3,0.1,0.4,0.1h0.6c0.2,0,0.3,0,0.4-0.1c0.1-0.1,0.2-0.1,0.3-0.2s0.2-0.2,0.2-0.3
						c0.1-0.1,0.1-0.3,0.1-0.4V41.8z M325.6,45.5c0,0.4-0.1,0.7-0.2,1c-0.1,0.3-0.3,0.6-0.6,0.9c-0.2,0.2-0.5,0.4-0.9,0.6
						c-0.3,0.1-0.7,0.2-1,0.2h-0.2c-0.4,0-0.8-0.1-1.2-0.2c-0.3-0.2-0.5-0.3-0.5-0.4l0.1,3.7h-1.6V39.4h0.8l0.4,0.6
						c0.1-0.1,0.3-0.2,0.7-0.4c0.4-0.2,0.8-0.3,1.2-0.3h0.2c0.4,0,0.7,0.1,1,0.2c0.3,0.1,0.6,0.3,0.9,0.6c0.2,0.2,0.4,0.5,0.6,0.9
						c0.1,0.3,0.2,0.7,0.2,1V45.5L325.6,45.5z M323.9,41.8c0-0.2,0-0.3-0.1-0.4c-0.1-0.1-0.1-0.2-0.2-0.3s-0.2-0.2-0.3-0.2
						c-0.1-0.1-0.3-0.1-0.4-0.1h-0.6c-0.1,0-0.3,0-0.4,0.1c-0.1,0.1-0.2,0.1-0.3,0.2s-0.2,0.2-0.2,0.3c-0.1,0.1-0.1,0.3-0.1,0.4v3.7
						c0,0.1,0,0.3,0.1,0.4c0.1,0.1,0.1,0.2,0.2,0.3s0.2,0.2,0.3,0.2c0.1,0.1,0.3,0.1,0.4,0.1h0.6c0.2,0,0.3,0,0.4-0.1
						c0.1-0.1,0.2-0.1,0.3-0.2s0.2-0.2,0.2-0.3c0.1-0.1,0.1-0.3,0.1-0.4V41.8z M327.1,48V36.2h1.6V48H327.1z M335.5,48l-0.4-0.6
						c-0.1,0.1-0.3,0.2-0.7,0.4c-0.4,0.2-0.8,0.3-1.2,0.3H333c-0.4,0-0.7-0.1-1-0.2c-0.3-0.1-0.6-0.3-0.9-0.6
						c-0.2-0.2-0.4-0.5-0.6-0.9c-0.1-0.3-0.2-0.7-0.2-1v-0.1c0-0.4,0.1-0.7,0.2-1c0.1-0.3,0.3-0.6,0.6-0.9c0.2-0.2,0.5-0.4,0.9-0.6
						c0.3-0.1,0.7-0.2,1-0.2h1.7v-0.9c0-0.2,0-0.3-0.1-0.4c-0.1-0.1-0.1-0.2-0.2-0.3s-0.2-0.2-0.3-0.2c-0.1-0.1-0.3-0.1-0.4-0.1
						h-0.6c-0.1,0-0.3,0-0.4,0.1c-0.1,0.1-0.2,0.1-0.3,0.2s-0.2,0.2-0.2,0.3c-0.1,0.1-0.1,0.3-0.1,0.4v0.7l-1.6-0.3v-0.4
						c0-0.4,0.1-0.7,0.2-1c0.1-0.3,0.3-0.6,0.6-0.9c0.2-0.2,0.5-0.4,0.9-0.6c0.3-0.1,0.7-0.2,1-0.2h0.6c0.4,0,0.7,0.1,1,0.2
						c0.3,0.1,0.6,0.3,0.9,0.6c0.2,0.2,0.4,0.5,0.6,0.9c0.1,0.3,0.2,0.7,0.2,1V48H335.5z M334.7,44.1H333c-0.1,0-0.3,0-0.4,0.1
						c-0.1,0.1-0.2,0.1-0.3,0.2s-0.2,0.2-0.2,0.3c-0.1,0.1-0.1,0.3-0.1,0.4v0.3c0,0.1,0,0.3,0.1,0.4c0.1,0.1,0.1,0.2,0.2,0.3
						s0.2,0.2,0.3,0.2c0.1,0.1,0.3,0.1,0.4,0.1h0.6c0.2,0,0.3,0,0.4-0.1c0.1-0.1,0.2-0.1,0.3-0.2s0.2-0.2,0.2-0.3
						c0.1-0.1,0.1-0.3,0.1-0.4V44.1z M342,48v-6.2c0-0.2,0-0.3-0.1-0.4c-0.1-0.1-0.1-0.2-0.2-0.3s-0.2-0.2-0.3-0.2
						c-0.1-0.1-0.3-0.1-0.4-0.1h-0.6c-0.1,0-0.3,0-0.4,0.1c-0.1,0.1-0.2,0.1-0.3,0.2s-0.2,0.2-0.2,0.3c-0.1,0.1-0.1,0.3-0.1,0.4V48
						h-1.6v-8.7h0.8l0.4,0.6c0.1-0.1,0.3-0.2,0.7-0.4c0.4-0.2,0.8-0.3,1.2-0.3h0.2c0.4,0,0.7,0.1,1,0.2c0.3,0.1,0.6,0.3,0.9,0.6
						c0.2,0.2,0.4,0.5,0.6,0.9c0.1,0.3,0.2,0.7,0.2,1V48H342z M349.2,48v-6.2c0-0.2,0-0.3-0.1-0.4c-0.1-0.1-0.1-0.2-0.2-0.3
						s-0.2-0.2-0.3-0.2c-0.1-0.1-0.3-0.1-0.4-0.1h-0.6c-0.1,0-0.3,0-0.4,0.1c-0.1,0.1-0.2,0.1-0.3,0.2s-0.2,0.2-0.2,0.3
						c-0.1,0.1-0.1,0.3-0.1,0.4V48h-1.6v-8.7h0.8l0.4,0.6c0.1-0.1,0.3-0.2,0.7-0.4c0.4-0.2,0.8-0.3,1.2-0.3h0.2c0.4,0,0.7,0.1,1,0.2
						c0.3,0.1,0.6,0.3,0.9,0.6c0.2,0.2,0.4,0.5,0.6,0.9c0.1,0.3,0.2,0.7,0.2,1V48H349.2z M352.4,38.1v-1.9h1.8v1.9H352.4z M352.5,48
						v-8.7h1.6V48H352.5z M360,48v-6.2c0-0.2,0-0.3-0.1-0.4c-0.1-0.1-0.1-0.2-0.2-0.3s-0.2-0.2-0.3-0.2c-0.1-0.1-0.3-0.1-0.4-0.1
						h-0.6c-0.1,0-0.3,0-0.4,0.1c-0.1,0.1-0.2,0.1-0.3,0.2s-0.2,0.2-0.2,0.3c-0.1,0.1-0.1,0.3-0.1,0.4V48h-1.6v-8.7h0.8l0.4,0.6
						c0.1-0.1,0.3-0.2,0.7-0.4c0.4-0.2,0.8-0.3,1.2-0.3h0.2c0.4,0,0.7,0.1,1,0.2c0.3,0.1,0.6,0.3,0.9,0.6c0.2,0.2,0.4,0.5,0.6,0.9
						c0.1,0.3,0.2,0.7,0.2,1V48H360z M369,48.7c0,0.4-0.1,0.7-0.2,1c-0.1,0.3-0.3,0.6-0.6,0.8c-0.2,0.2-0.5,0.4-0.8,0.5
						c-0.3,0.1-0.7,0.2-1,0.2h-0.4c-0.4,0-0.7-0.1-1-0.2c-0.3-0.1-0.6-0.3-0.9-0.5c-0.2-0.2-0.4-0.5-0.6-0.8c-0.1-0.3-0.2-0.7-0.2-1
						v0c0-0.4,0.1-0.7,0.2-1c0.1-0.3,0.2-0.5,0.3-0.5c-0.1,0-0.2-0.2-0.4-0.5c-0.2-0.3-0.2-0.6-0.2-1c0-0.3,0.1-0.6,0.2-0.9
						c0.1-0.3,0.2-0.4,0.3-0.5c-0.1-0.1-0.3-0.3-0.4-0.6c-0.2-0.4-0.2-0.7-0.2-1.2v-0.6c0-0.4,0.1-0.7,0.2-1
						c0.1-0.3,0.3-0.6,0.6-0.9c0.2-0.2,0.5-0.4,0.9-0.6c0.3-0.1,0.7-0.2,1-0.2h0.4c0.4,0,0.8,0.1,1.2,0.3c0.4,0.2,0.6,0.3,0.7,0.4
						l0.3-0.6h0.8v3.1c0,0.4-0.1,0.7-0.2,1c-0.1,0.3-0.3,0.6-0.6,0.9c-0.2,0.2-0.5,0.4-0.9,0.6c-0.3,0.1-0.7,0.2-1,0.2H365
						c-0.1,0-0.1,0-0.2,0s-0.1,0.1-0.2,0.1c0,0-0.1,0.1-0.1,0.2c0,0.1,0,0.1,0,0.2c0,0.1,0,0.1,0,0.2c0,0.1,0.1,0.1,0.1,0.2
						c0.1,0,0.1,0.1,0.2,0.1c0.1,0,0.1,0,0.2,0h1.3c0.4,0,0.7,0.1,1,0.2c0.3,0.1,0.6,0.3,0.8,0.5c0.2,0.2,0.4,0.5,0.6,0.8
						C368.9,48,369,48.3,369,48.7L369,48.7L369,48.7z M367.5,41.8c0-0.2,0-0.3-0.1-0.4c-0.1-0.1-0.1-0.2-0.2-0.3
						c-0.1-0.1-0.2-0.2-0.3-0.2c-0.1-0.1-0.3-0.1-0.4-0.1h-0.8c-0.1,0-0.3,0-0.4,0.1c-0.1,0.1-0.2,0.1-0.3,0.2s-0.2,0.2-0.2,0.3
						c-0.1,0.1-0.1,0.3-0.1,0.4v0.7c0,0.2,0,0.3,0.1,0.4c0.1,0.1,0.1,0.2,0.2,0.3s0.2,0.2,0.3,0.2c0.1,0.1,0.3,0.1,0.4,0.1h0.8
						c0.2,0,0.3,0,0.4-0.1c0.1-0.1,0.2-0.1,0.3-0.2c0.1-0.1,0.2-0.2,0.2-0.3c0.1-0.1,0.1-0.3,0.1-0.4V41.8z M367.4,48.6
						c0-0.1,0-0.3-0.1-0.4c-0.1-0.1-0.1-0.2-0.2-0.3c-0.1-0.1-0.2-0.1-0.3-0.2c-0.1-0.1-0.3-0.1-0.4-0.1h-0.5c-0.2,0-0.3,0-0.4,0.1
						c-0.1,0-0.2,0.1-0.3,0.2c-0.1,0.1-0.2,0.2-0.2,0.3c-0.1,0.1-0.1,0.2-0.1,0.4v0.1c0,0.1,0,0.3,0.1,0.4c0.1,0.1,0.1,0.2,0.2,0.3
						c0.1,0.1,0.2,0.1,0.3,0.2c0.1,0.1,0.3,0.1,0.4,0.1h0.5c0.2,0,0.3,0,0.4-0.1c0.1,0,0.2-0.1,0.3-0.2c0.1-0.1,0.2-0.2,0.2-0.3
						c0.1-0.1,0.1-0.2,0.1-0.4V48.6z M379.9,45.5c0,0.4-0.1,0.7-0.2,1c-0.1,0.3-0.3,0.6-0.6,0.9c-0.2,0.2-0.5,0.4-0.9,0.6
						c-0.3,0.1-0.7,0.2-1,0.2H377c-0.4,0-0.8-0.1-1.2-0.2c-0.3-0.2-0.5-0.3-0.5-0.4l0.1,3.7h-1.6V39.4h0.8l0.4,0.6
						c0.1-0.1,0.3-0.2,0.7-0.4c0.4-0.2,0.8-0.3,1.2-0.3h0.2c0.4,0,0.7,0.1,1,0.2c0.3,0.1,0.6,0.3,0.9,0.6c0.2,0.2,0.4,0.5,0.6,0.9
						c0.1,0.3,0.2,0.7,0.2,1V45.5L379.9,45.5z M378.2,41.8c0-0.2,0-0.3-0.1-0.4c-0.1-0.1-0.1-0.2-0.2-0.3s-0.2-0.2-0.3-0.2
						c-0.1-0.1-0.3-0.1-0.4-0.1h-0.6c-0.1,0-0.3,0-0.4,0.1c-0.1,0.1-0.2,0.1-0.3,0.2s-0.2,0.2-0.2,0.3c-0.1,0.1-0.1,0.3-0.1,0.4v3.7
						c0,0.1,0,0.3,0.1,0.4c0.1,0.1,0.1,0.2,0.2,0.3s0.2,0.2,0.3,0.2c0.1,0.1,0.3,0.1,0.4,0.1h0.6c0.2,0,0.3,0,0.4-0.1
						c0.1-0.1,0.2-0.1,0.3-0.2s0.2-0.2,0.2-0.3c0.1-0.1,0.1-0.3,0.1-0.4V41.8z M383.8,40.9c-0.1,0-0.3,0-0.4,0.1
						c-0.1,0.1-0.2,0.1-0.3,0.2s-0.2,0.2-0.2,0.3c-0.1,0.1-0.1,0.3-0.1,0.4v6h-1.6v-8.7h0.8l0.4,0.6c0.1-0.1,0.3-0.2,0.7-0.4
						c0.4-0.2,0.8-0.3,1.2-0.3h0.9v1.7H383.8z M391.7,45.5c0,0.4-0.1,0.7-0.2,1c-0.1,0.3-0.3,0.6-0.6,0.9c-0.2,0.2-0.5,0.4-0.9,0.6
						c-0.3,0.1-0.7,0.2-1,0.2h-0.6c-0.4,0-0.7-0.1-1-0.2c-0.3-0.1-0.6-0.3-0.9-0.6c-0.2-0.2-0.4-0.5-0.6-0.9c-0.1-0.3-0.2-0.7-0.2-1
						v-3.6c0-0.4,0.1-0.7,0.2-1c0.1-0.3,0.3-0.6,0.6-0.9c0.2-0.2,0.5-0.4,0.9-0.6c0.3-0.1,0.7-0.2,1-0.2h0.6c0.4,0,0.7,0.1,1,0.2
						c0.3,0.1,0.6,0.3,0.9,0.6c0.2,0.2,0.4,0.5,0.6,0.9c0.1,0.3,0.2,0.7,0.2,1V45.5L391.7,45.5z M390.1,41.8c0-0.2,0-0.3-0.1-0.4
						c-0.1-0.1-0.1-0.2-0.2-0.3s-0.2-0.2-0.3-0.2c-0.1-0.1-0.3-0.1-0.4-0.1h-0.6c-0.1,0-0.3,0-0.4,0.1c-0.1,0.1-0.2,0.1-0.3,0.2
						s-0.2,0.2-0.2,0.3c-0.1,0.1-0.1,0.3-0.1,0.4v3.7c0,0.1,0,0.3,0.1,0.4c0.1,0.1,0.1,0.2,0.2,0.3s0.2,0.2,0.3,0.2
						c0.1,0.1,0.3,0.1,0.4,0.1h0.6c0.2,0,0.3,0,0.4-0.1c0.1-0.1,0.2-0.1,0.3-0.2s0.2-0.2,0.2-0.3c0.1-0.1,0.1-0.3,0.1-0.4V41.8z
						 M399,45.5c0,0.4-0.1,0.7-0.2,1c-0.1,0.3-0.3,0.6-0.6,0.9c-0.2,0.2-0.5,0.4-0.9,0.6c-0.3,0.1-0.7,0.2-1,0.2h-0.6
						c-0.4,0-0.7-0.1-1-0.2c-0.3-0.1-0.6-0.3-0.9-0.6c-0.2-0.2-0.4-0.5-0.6-0.9c-0.1-0.3-0.2-0.7-0.2-1v-3.6c0-0.4,0.1-0.7,0.2-1
						c0.1-0.3,0.3-0.6,0.6-0.9c0.2-0.2,0.5-0.4,0.9-0.6c0.3-0.1,0.7-0.2,1-0.2h0.6c0.4,0,0.7,0.1,1,0.2c0.3,0.1,0.6,0.3,0.9,0.6
						c0.2,0.2,0.4,0.5,0.6,0.9c0.1,0.3,0.2,0.7,0.2,1v0.6l-1.6,0.3v-0.9c0-0.2,0-0.3-0.1-0.4c-0.1-0.1-0.1-0.2-0.2-0.3
						s-0.2-0.2-0.3-0.2c-0.1-0.1-0.3-0.1-0.4-0.1h-0.6c-0.1,0-0.3,0-0.4,0.1c-0.1,0.1-0.2,0.1-0.3,0.2s-0.2,0.2-0.2,0.3
						c-0.1,0.1-0.1,0.3-0.1,0.4v3.7c0,0.1,0,0.3,0.1,0.4c0.1,0.1,0.1,0.2,0.2,0.3s0.2,0.2,0.3,0.2c0.1,0.1,0.3,0.1,0.4,0.1h0.6
						c0.2,0,0.3,0,0.4-0.1c0.1-0.1,0.2-0.1,0.3-0.2s0.2-0.2,0.2-0.3c0.1-0.1,0.1-0.3,0.1-0.4v-0.9l1.6,0.3V45.5L399,45.5z
						 M406.3,45.5c0,0.4-0.1,0.7-0.2,1c-0.1,0.3-0.3,0.6-0.6,0.9c-0.2,0.2-0.5,0.4-0.9,0.6c-0.3,0.1-0.7,0.2-1,0.2h-0.6
						c-0.4,0-0.7-0.1-1-0.2c-0.3-0.1-0.6-0.3-0.9-0.6c-0.2-0.2-0.4-0.5-0.6-0.9c-0.1-0.3-0.2-0.7-0.2-1v-3.6c0-0.4,0.1-0.7,0.2-1
						c0.1-0.3,0.3-0.6,0.6-0.9c0.2-0.2,0.5-0.4,0.9-0.6c0.3-0.1,0.7-0.2,1-0.2h0.6c0.4,0,0.7,0.1,1,0.2c0.3,0.1,0.6,0.3,0.9,0.6
						c0.2,0.2,0.4,0.5,0.6,0.9c0.1,0.3,0.2,0.7,0.2,1v2.2h-4.4v1.5c0,0.1,0,0.3,0.1,0.4c0.1,0.1,0.1,0.2,0.2,0.3s0.2,0.2,0.3,0.2
						c0.1,0.1,0.3,0.1,0.4,0.1h0.6c0.2,0,0.3,0,0.4-0.1c0.1-0.1,0.2-0.1,0.3-0.2s0.2-0.2,0.2-0.3c0.1-0.1,0.1-0.3,0.1-0.4v-0.9
						l1.6,0.3V45.5L406.3,45.5z M404.6,41.8c0-0.2,0-0.3-0.1-0.4c-0.1-0.1-0.1-0.2-0.2-0.3s-0.2-0.2-0.3-0.2
						c-0.1-0.1-0.3-0.1-0.4-0.1h-0.6c-0.1,0-0.3,0-0.4,0.1c-0.1,0.1-0.2,0.1-0.3,0.2s-0.2,0.2-0.2,0.3c-0.1,0.1-0.1,0.3-0.1,0.4v0.9
						h2.8V41.8z M413.7,45.7c0,0.4-0.1,0.7-0.2,1c-0.1,0.3-0.3,0.6-0.6,0.8c-0.2,0.2-0.5,0.4-0.9,0.5c-0.3,0.1-0.7,0.2-1,0.2h-0.6
						c-0.4,0-0.7-0.1-1-0.2c-0.3-0.1-0.6-0.3-0.9-0.6c-0.2-0.2-0.5-0.5-0.6-0.9c-0.1-0.3-0.2-0.7-0.2-1v-0.6l1.6-0.3v0.9
						c0,0.1,0,0.3,0.1,0.4c0.1,0.1,0.1,0.2,0.2,0.3c0.1,0.1,0.2,0.2,0.4,0.2c0.1,0.1,0.3,0.1,0.4,0.1h0.6c0.2,0,0.3,0,0.5-0.1
						c0.1-0.1,0.3-0.1,0.4-0.2c0.1-0.1,0.2-0.2,0.2-0.3c0.1-0.1,0.1-0.2,0.1-0.4c0-0.2,0-0.4-0.1-0.5c-0.1-0.1-0.2-0.3-0.4-0.4
						c-0.2-0.1-0.4-0.2-0.6-0.3c-0.2-0.1-0.5-0.2-0.8-0.2c-0.3-0.1-0.6-0.2-0.9-0.3c-0.3-0.1-0.5-0.3-0.8-0.5
						c-0.2-0.2-0.4-0.4-0.6-0.7c-0.1-0.3-0.2-0.7-0.2-1.1c0-0.4,0.1-0.7,0.2-1c0.1-0.3,0.3-0.6,0.6-0.8c0.2-0.2,0.5-0.4,0.8-0.5
						c0.3-0.1,0.7-0.2,1-0.2h0.6c0.4,0,0.7,0.1,1,0.2c0.3,0.1,0.6,0.3,0.9,0.6c0.2,0.2,0.4,0.5,0.6,0.9c0.1,0.3,0.2,0.7,0.2,1v0.3
						l-1.6,0.3v-0.6c0-0.2,0-0.3-0.1-0.4c-0.1-0.1-0.1-0.2-0.2-0.3s-0.2-0.2-0.3-0.2c-0.1-0.1-0.3-0.1-0.4-0.1h-0.6
						c-0.2,0-0.3,0-0.4,0.1c-0.1,0-0.2,0.1-0.3,0.2c-0.1,0.1-0.2,0.2-0.2,0.3c-0.1,0.1-0.1,0.2-0.1,0.4c0,0.2,0,0.4,0.1,0.5
						c0.1,0.1,0.2,0.2,0.4,0.3c0.2,0.1,0.4,0.2,0.6,0.3c0.2,0.1,0.5,0.2,0.8,0.2c0.3,0.1,0.6,0.2,0.8,0.3c0.3,0.1,0.5,0.3,0.8,0.5
						c0.2,0.2,0.4,0.4,0.6,0.8C413.6,44.9,413.7,45.2,413.7,45.7z M421,45.7c0,0.4-0.1,0.7-0.2,1c-0.1,0.3-0.3,0.6-0.6,0.8
						c-0.2,0.2-0.5,0.4-0.9,0.5c-0.3,0.1-0.7,0.2-1,0.2h-0.6c-0.4,0-0.7-0.1-1-0.2c-0.3-0.1-0.6-0.3-0.9-0.6
						c-0.2-0.2-0.5-0.5-0.6-0.9c-0.1-0.3-0.2-0.7-0.2-1v-0.6l1.6-0.3v0.9c0,0.1,0,0.3,0.1,0.4c0.1,0.1,0.1,0.2,0.2,0.3
						c0.1,0.1,0.2,0.2,0.4,0.2c0.1,0.1,0.3,0.1,0.4,0.1h0.6c0.2,0,0.3,0,0.5-0.1c0.1-0.1,0.3-0.1,0.4-0.2c0.1-0.1,0.2-0.2,0.2-0.3
						c0.1-0.1,0.1-0.2,0.1-0.4c0-0.2,0-0.4-0.1-0.5c-0.1-0.1-0.2-0.3-0.4-0.4c-0.2-0.1-0.4-0.2-0.6-0.3c-0.2-0.1-0.5-0.2-0.8-0.2
						c-0.3-0.1-0.6-0.2-0.9-0.3c-0.3-0.1-0.5-0.3-0.8-0.5c-0.2-0.2-0.4-0.4-0.6-0.7c-0.1-0.3-0.2-0.7-0.2-1.1c0-0.4,0.1-0.7,0.2-1
						c0.1-0.3,0.3-0.6,0.6-0.8c0.2-0.2,0.5-0.4,0.8-0.5c0.3-0.1,0.7-0.2,1-0.2h0.6c0.4,0,0.7,0.1,1,0.2c0.3,0.1,0.6,0.3,0.9,0.6
						c0.2,0.2,0.4,0.5,0.6,0.9c0.1,0.3,0.2,0.7,0.2,1v0.3l-1.6,0.3v-0.6c0-0.2,0-0.3-0.1-0.4c-0.1-0.1-0.1-0.2-0.2-0.3
						s-0.2-0.2-0.3-0.2c-0.1-0.1-0.3-0.1-0.4-0.1h-0.6c-0.2,0-0.3,0-0.4,0.1c-0.1,0-0.2,0.1-0.3,0.2c-0.1,0.1-0.2,0.2-0.2,0.3
						c-0.1,0.1-0.1,0.2-0.1,0.4c0,0.2,0,0.4,0.1,0.5c0.1,0.1,0.2,0.2,0.4,0.3c0.2,0.1,0.4,0.2,0.6,0.3c0.2,0.1,0.5,0.2,0.8,0.2
						c0.3,0.1,0.6,0.2,0.8,0.3c0.3,0.1,0.5,0.3,0.8,0.5c0.2,0.2,0.4,0.4,0.6,0.8C421,44.9,421,45.2,421,45.7z"/>
					<path class="st3" d="M317.9,67.2l-0.4-0.6c-0.1,0.1-0.3,0.2-0.7,0.4c-0.4,0.2-0.8,0.3-1.2,0.3h-0.2c-0.4,0-0.7-0.1-1-0.2
						c-0.3-0.1-0.6-0.3-0.9-0.6c-0.2-0.2-0.4-0.5-0.6-0.9c-0.1-0.3-0.2-0.7-0.2-1v-0.1c0-0.4,0.1-0.7,0.2-1c0.1-0.3,0.3-0.6,0.6-0.9
						c0.2-0.2,0.5-0.4,0.9-0.6c0.3-0.1,0.7-0.2,1-0.2h1.7V61c0-0.2,0-0.3-0.1-0.4c-0.1-0.1-0.1-0.2-0.2-0.3s-0.2-0.2-0.3-0.2
						c-0.1-0.1-0.3-0.1-0.4-0.1h-0.6c-0.1,0-0.3,0-0.4,0.1c-0.1,0.1-0.2,0.1-0.3,0.2s-0.2,0.2-0.2,0.3c-0.1,0.1-0.1,0.3-0.1,0.4v0.7
						l-1.6-0.3v-0.4c0-0.4,0.1-0.7,0.2-1c0.1-0.3,0.3-0.6,0.6-0.9c0.2-0.2,0.5-0.4,0.9-0.6c0.3-0.1,0.7-0.2,1-0.2h0.6
						c0.4,0,0.7,0.1,1,0.2c0.3,0.1,0.6,0.3,0.9,0.6c0.2,0.2,0.4,0.5,0.6,0.9c0.1,0.3,0.2,0.7,0.2,1v6.1H317.9z M317.1,63.3h-1.7
						c-0.1,0-0.3,0-0.4,0.1c-0.1,0.1-0.2,0.1-0.3,0.2s-0.2,0.2-0.2,0.3c-0.1,0.1-0.1,0.3-0.1,0.4v0.3c0,0.1,0,0.3,0.1,0.4
						c0.1,0.1,0.1,0.2,0.2,0.3s0.2,0.2,0.3,0.2c0.1,0.1,0.3,0.1,0.4,0.1h0.6c0.2,0,0.3,0,0.4-0.1c0.1-0.1,0.2-0.1,0.3-0.2
						s0.2-0.2,0.2-0.3c0.1-0.1,0.1-0.3,0.1-0.4V63.3z M324.4,67.2V61c0-0.2,0-0.3-0.1-0.4c-0.1-0.1-0.1-0.2-0.2-0.3
						s-0.2-0.2-0.3-0.2c-0.1-0.1-0.3-0.1-0.4-0.1h-0.6c-0.1,0-0.3,0-0.4,0.1c-0.1,0.1-0.2,0.1-0.3,0.2s-0.2,0.2-0.2,0.3
						c-0.1,0.1-0.1,0.3-0.1,0.4v6.2H320v-8.7h0.8l0.4,0.6c0.1-0.1,0.3-0.2,0.7-0.4s0.8-0.3,1.2-0.3h0.2c0.4,0,0.7,0.1,1,0.2
						c0.3,0.1,0.6,0.3,0.9,0.6c0.2,0.2,0.4,0.5,0.6,0.9c0.1,0.3,0.2,0.7,0.2,1v6.1H324.4z M332.4,67.2l-0.4-0.6
						c-0.1,0.1-0.3,0.2-0.7,0.4c-0.4,0.2-0.8,0.3-1.2,0.3h-0.2c-0.4,0-0.7-0.1-1-0.2c-0.3-0.1-0.6-0.3-0.9-0.6
						c-0.2-0.2-0.4-0.5-0.6-0.9c-0.1-0.3-0.2-0.7-0.2-1v-3.6c0-0.4,0.1-0.7,0.2-1c0.1-0.3,0.3-0.6,0.6-0.9c0.2-0.2,0.5-0.4,0.9-0.6
						c0.3-0.1,0.7-0.2,1-0.2h0.2c0.4,0,0.8,0.1,1.1,0.2c0.4,0.2,0.5,0.3,0.5,0.4l-0.1-3.7h1.6v11.9H332.4z M331.6,61
						c0-0.2,0-0.3-0.1-0.4c-0.1-0.1-0.1-0.2-0.2-0.3s-0.2-0.2-0.3-0.2c-0.1-0.1-0.3-0.1-0.4-0.1h-0.6c-0.1,0-0.3,0-0.4,0.1
						c-0.1,0.1-0.2,0.1-0.3,0.2s-0.2,0.2-0.2,0.3c-0.1,0.1-0.1,0.3-0.1,0.4v3.7c0,0.1,0,0.3,0.1,0.4c0.1,0.1,0.1,0.2,0.2,0.3
						s0.2,0.2,0.3,0.2c0.1,0.1,0.3,0.1,0.4,0.1h0.6c0.2,0,0.3,0,0.4-0.1c0.1-0.1,0.2-0.1,0.3-0.2s0.2-0.2,0.2-0.3
						c0.1-0.1,0.1-0.3,0.1-0.4V61z M344.2,64.7c0,0.4-0.1,0.7-0.2,1c-0.1,0.3-0.3,0.6-0.6,0.9c-0.2,0.2-0.5,0.4-0.9,0.6
						c-0.3,0.1-0.7,0.2-1,0.2h-0.6c-0.4,0-0.7-0.1-1-0.2c-0.3-0.1-0.6-0.3-0.9-0.6c-0.2-0.2-0.4-0.5-0.6-0.9c-0.1-0.3-0.2-0.7-0.2-1
						v-3.6c0-0.4,0.1-0.7,0.2-1c0.1-0.3,0.3-0.6,0.6-0.9c0.2-0.2,0.5-0.4,0.9-0.6c0.3-0.1,0.7-0.2,1-0.2h0.6c0.4,0,0.7,0.1,1,0.2
						c0.3,0.1,0.6,0.3,0.9,0.6c0.2,0.2,0.4,0.5,0.6,0.9c0.1,0.3,0.2,0.7,0.2,1v0.6l-1.6,0.3V61c0-0.2,0-0.3-0.1-0.4
						c-0.1-0.1-0.1-0.2-0.2-0.3s-0.2-0.2-0.3-0.2c-0.1-0.1-0.3-0.1-0.4-0.1h-0.6c-0.1,0-0.3,0-0.4,0.1c-0.1,0.1-0.2,0.1-0.3,0.2
						s-0.2,0.2-0.2,0.3c-0.1,0.1-0.1,0.3-0.1,0.4v3.7c0,0.1,0,0.3,0.1,0.4c0.1,0.1,0.1,0.2,0.2,0.3s0.2,0.2,0.3,0.2
						c0.1,0.1,0.3,0.1,0.4,0.1h0.6c0.2,0,0.3,0,0.4-0.1c0.1-0.1,0.2-0.1,0.3-0.2s0.2-0.2,0.2-0.3c0.1-0.1,0.1-0.3,0.1-0.4v-0.9
						l1.6,0.3V64.7L344.2,64.7z M349.9,67.2V61c0-0.2,0-0.3-0.1-0.4c-0.1-0.1-0.1-0.2-0.2-0.3s-0.2-0.2-0.3-0.2
						c-0.1-0.1-0.3-0.1-0.4-0.1h-0.6c-0.1,0-0.3,0-0.4,0.1c-0.1,0.1-0.2,0.1-0.3,0.2s-0.2,0.2-0.2,0.3c-0.1,0.1-0.1,0.3-0.1,0.4v6.2
						h-1.6V55.4h1.6l-0.1,3.7c0-0.1,0.1-0.2,0.5-0.4c0.4-0.2,0.7-0.2,1.2-0.2h0.2c0.4,0,0.7,0.1,1,0.2c0.3,0.1,0.6,0.3,0.9,0.6
						c0.2,0.2,0.4,0.5,0.6,0.9c0.1,0.3,0.2,0.7,0.2,1v6.1H349.9z M357.9,67.2l-0.4-0.6c-0.1,0.1-0.3,0.2-0.7,0.4
						c-0.4,0.2-0.8,0.3-1.2,0.3h-0.2c-0.4,0-0.7-0.1-1-0.2c-0.3-0.1-0.6-0.3-0.9-0.6c-0.2-0.2-0.4-0.5-0.6-0.9
						c-0.1-0.3-0.2-0.7-0.2-1v-0.1c0-0.4,0.1-0.7,0.2-1c0.1-0.3,0.3-0.6,0.6-0.9c0.2-0.2,0.5-0.4,0.9-0.6c0.3-0.1,0.7-0.2,1-0.2h1.7
						V61c0-0.2,0-0.3-0.1-0.4c-0.1-0.1-0.1-0.2-0.2-0.3s-0.2-0.2-0.3-0.2c-0.1-0.1-0.3-0.1-0.4-0.1h-0.6c-0.1,0-0.3,0-0.4,0.1
						c-0.1,0.1-0.2,0.1-0.3,0.2s-0.2,0.2-0.2,0.3c-0.1,0.1-0.1,0.3-0.1,0.4v0.7l-1.6-0.3v-0.4c0-0.4,0.1-0.7,0.2-1
						c0.1-0.3,0.3-0.6,0.6-0.9c0.2-0.2,0.5-0.4,0.9-0.6c0.3-0.1,0.7-0.2,1-0.2h0.6c0.4,0,0.7,0.1,1,0.2c0.3,0.1,0.6,0.3,0.9,0.6
						c0.2,0.2,0.4,0.5,0.6,0.9c0.1,0.3,0.2,0.7,0.2,1v6.1H357.9z M357.1,63.3h-1.7c-0.1,0-0.3,0-0.4,0.1c-0.1,0.1-0.2,0.1-0.3,0.2
						s-0.2,0.2-0.2,0.3c-0.1,0.1-0.1,0.3-0.1,0.4v0.3c0,0.1,0,0.3,0.1,0.4c0.1,0.1,0.1,0.2,0.2,0.3s0.2,0.2,0.3,0.2
						c0.1,0.1,0.3,0.1,0.4,0.1h0.6c0.2,0,0.3,0,0.4-0.1c0.1-0.1,0.2-0.1,0.3-0.2s0.2-0.2,0.2-0.3c0.1-0.1,0.1-0.3,0.1-0.4V63.3z
						 M360.3,67.2V55.4h1.6v11.9H360.3z M363.8,67.2V55.4h1.6v11.9H363.8z M373.1,64.7c0,0.4-0.1,0.7-0.2,1
						c-0.1,0.3-0.3,0.6-0.6,0.9c-0.2,0.2-0.5,0.4-0.9,0.6c-0.3,0.1-0.7,0.2-1,0.2h-0.6c-0.4,0-0.7-0.1-1-0.2
						c-0.3-0.1-0.6-0.3-0.9-0.6c-0.2-0.2-0.4-0.5-0.6-0.9c-0.1-0.3-0.2-0.7-0.2-1v-3.6c0-0.4,0.1-0.7,0.2-1c0.1-0.3,0.3-0.6,0.6-0.9
						c0.2-0.2,0.5-0.4,0.9-0.6c0.3-0.1,0.7-0.2,1-0.2h0.6c0.4,0,0.7,0.1,1,0.2c0.3,0.1,0.6,0.3,0.9,0.6c0.2,0.2,0.4,0.5,0.6,0.9
						c0.1,0.3,0.2,0.7,0.2,1v2.2h-4.4v1.5c0,0.1,0,0.3,0.1,0.4c0.1,0.1,0.1,0.2,0.2,0.3s0.2,0.2,0.3,0.2c0.1,0.1,0.3,0.1,0.4,0.1
						h0.6c0.2,0,0.3,0,0.4-0.1c0.1-0.1,0.2-0.1,0.3-0.2s0.2-0.2,0.2-0.3c0.1-0.1,0.1-0.3,0.1-0.4v-0.9l1.6,0.3V64.7L373.1,64.7z
						 M371.4,61c0-0.2,0-0.3-0.1-0.4c-0.1-0.1-0.1-0.2-0.2-0.3s-0.2-0.2-0.3-0.2c-0.1-0.1-0.3-0.1-0.4-0.1h-0.6
						c-0.1,0-0.3,0-0.4,0.1c-0.1,0.1-0.2,0.1-0.3,0.2s-0.2,0.2-0.2,0.3c-0.1,0.1-0.1,0.3-0.1,0.4v0.9h2.8V61z M378.7,67.2V61
						c0-0.2,0-0.3-0.1-0.4c-0.1-0.1-0.1-0.2-0.2-0.3s-0.2-0.2-0.3-0.2c-0.1-0.1-0.3-0.1-0.4-0.1H377c-0.1,0-0.3,0-0.4,0.1
						c-0.1,0.1-0.2,0.1-0.3,0.2s-0.2,0.2-0.2,0.3c-0.1,0.1-0.1,0.3-0.1,0.4v6.2h-1.6v-8.7h0.8l0.4,0.6c0.1-0.1,0.3-0.2,0.7-0.4
						s0.8-0.3,1.2-0.3h0.2c0.4,0,0.7,0.1,1,0.2c0.3,0.1,0.6,0.3,0.9,0.6c0.2,0.2,0.4,0.5,0.6,0.9c0.1,0.3,0.2,0.7,0.2,1v6.1H378.7z
						 M387.7,67.9c0,0.4-0.1,0.7-0.2,1c-0.1,0.3-0.3,0.6-0.6,0.8c-0.2,0.2-0.5,0.4-0.8,0.5c-0.3,0.1-0.7,0.2-1,0.2h-0.4
						c-0.4,0-0.7-0.1-1-0.2c-0.3-0.1-0.6-0.3-0.9-0.5c-0.2-0.2-0.4-0.5-0.6-0.8c-0.1-0.3-0.2-0.7-0.2-1v0c0-0.4,0.1-0.7,0.2-1
						c0.1-0.3,0.2-0.5,0.3-0.5c-0.1,0-0.2-0.2-0.4-0.5c-0.2-0.3-0.2-0.6-0.2-1c0-0.3,0.1-0.6,0.2-0.9c0.1-0.3,0.2-0.4,0.3-0.5
						c-0.1-0.1-0.3-0.3-0.4-0.6c-0.2-0.4-0.2-0.7-0.2-1.2v-0.6c0-0.4,0.1-0.7,0.2-1c0.1-0.3,0.3-0.6,0.6-0.9
						c0.2-0.2,0.5-0.4,0.9-0.6c0.3-0.1,0.7-0.2,1-0.2h0.4c0.4,0,0.8,0.1,1.2,0.3c0.4,0.2,0.6,0.3,0.7,0.4l0.3-0.6h0.8v3.1
						c0,0.4-0.1,0.7-0.2,1c-0.1,0.3-0.3,0.6-0.6,0.9c-0.2,0.2-0.5,0.4-0.9,0.6c-0.3,0.1-0.7,0.2-1,0.2h-1.4c-0.1,0-0.1,0-0.2,0
						s-0.1,0.1-0.2,0.1c0,0-0.1,0.1-0.1,0.2c0,0.1,0,0.1,0,0.2c0,0.1,0,0.1,0,0.2c0,0.1,0.1,0.1,0.1,0.2c0.1,0,0.1,0.1,0.2,0.1
						c0.1,0,0.1,0,0.2,0h1.3c0.4,0,0.7,0.1,1,0.2c0.3,0.1,0.6,0.3,0.8,0.5c0.2,0.2,0.4,0.5,0.6,0.8
						C387.6,67.2,387.7,67.5,387.7,67.9L387.7,67.9L387.7,67.9z M386.1,61c0-0.2,0-0.3-0.1-0.4c-0.1-0.1-0.1-0.2-0.2-0.3
						c-0.1-0.1-0.2-0.2-0.3-0.2c-0.1-0.1-0.3-0.1-0.4-0.1h-0.8c-0.1,0-0.3,0-0.4,0.1c-0.1,0.1-0.2,0.1-0.3,0.2s-0.2,0.2-0.2,0.3
						c-0.1,0.1-0.1,0.3-0.1,0.4v0.7c0,0.2,0,0.3,0.1,0.4c0.1,0.1,0.1,0.2,0.2,0.3s0.2,0.2,0.3,0.2c0.1,0.1,0.3,0.1,0.4,0.1h0.8
						c0.2,0,0.3,0,0.4-0.1c0.1-0.1,0.2-0.1,0.3-0.2c0.1-0.1,0.2-0.2,0.2-0.3c0.1-0.1,0.1-0.3,0.1-0.4V61z M386.1,67.8
						c0-0.1,0-0.3-0.1-0.4c-0.1-0.1-0.1-0.2-0.2-0.3c-0.1-0.1-0.2-0.1-0.3-0.2c-0.1-0.1-0.3-0.1-0.4-0.1h-0.5c-0.2,0-0.3,0-0.4,0.1
						c-0.1,0-0.2,0.1-0.3,0.2c-0.1,0.1-0.2,0.2-0.2,0.3c-0.1,0.1-0.1,0.2-0.1,0.4V68c0,0.1,0,0.3,0.1,0.4c0.1,0.1,0.1,0.2,0.2,0.3
						c0.1,0.1,0.2,0.1,0.3,0.2c0.1,0.1,0.3,0.1,0.4,0.1h0.5c0.2,0,0.3,0,0.4-0.1c0.1,0,0.2-0.1,0.3-0.2c0.1-0.1,0.2-0.2,0.2-0.3
						c0.1-0.1,0.1-0.2,0.1-0.4V67.8z M394.9,64.7c0,0.4-0.1,0.7-0.2,1c-0.1,0.3-0.3,0.6-0.6,0.9c-0.2,0.2-0.5,0.4-0.9,0.6
						c-0.3,0.1-0.7,0.2-1,0.2h-0.6c-0.4,0-0.7-0.1-1-0.2c-0.3-0.1-0.6-0.3-0.9-0.6c-0.2-0.2-0.4-0.5-0.6-0.9c-0.1-0.3-0.2-0.7-0.2-1
						v-3.6c0-0.4,0.1-0.7,0.2-1c0.1-0.3,0.3-0.6,0.6-0.9c0.2-0.2,0.5-0.4,0.9-0.6c0.3-0.1,0.7-0.2,1-0.2h0.6c0.4,0,0.7,0.1,1,0.2
						c0.3,0.1,0.6,0.3,0.9,0.6c0.2,0.2,0.4,0.5,0.6,0.9c0.1,0.3,0.2,0.7,0.2,1v2.2h-4.4v1.5c0,0.1,0,0.3,0.1,0.4
						c0.1,0.1,0.1,0.2,0.2,0.3s0.2,0.2,0.3,0.2c0.1,0.1,0.3,0.1,0.4,0.1h0.6c0.2,0,0.3,0,0.4-0.1c0.1-0.1,0.2-0.1,0.3-0.2
						s0.2-0.2,0.2-0.3c0.1-0.1,0.1-0.3,0.1-0.4v-0.9l1.6,0.3V64.7L394.9,64.7z M393.2,61c0-0.2,0-0.3-0.1-0.4
						c-0.1-0.1-0.1-0.2-0.2-0.3s-0.2-0.2-0.3-0.2c-0.1-0.1-0.3-0.1-0.4-0.1h-0.6c-0.1,0-0.3,0-0.4,0.1c-0.1,0.1-0.2,0.1-0.3,0.2
						s-0.2,0.2-0.2,0.3c-0.1,0.1-0.1,0.3-0.1,0.4v0.9h2.8V61z M402.3,64.9c0,0.4-0.1,0.7-0.2,1c-0.1,0.3-0.3,0.6-0.6,0.8
						c-0.2,0.2-0.5,0.4-0.9,0.5c-0.3,0.1-0.7,0.2-1,0.2h-0.6c-0.4,0-0.7-0.1-1-0.2c-0.3-0.1-0.6-0.3-0.9-0.6
						c-0.2-0.2-0.5-0.5-0.6-0.9c-0.1-0.3-0.2-0.7-0.2-1v-0.6l1.6-0.3v0.9c0,0.1,0,0.3,0.1,0.4c0.1,0.1,0.1,0.2,0.2,0.3
						c0.1,0.1,0.2,0.2,0.4,0.2c0.1,0.1,0.3,0.1,0.4,0.1h0.6c0.2,0,0.3,0,0.5-0.1c0.1-0.1,0.3-0.1,0.4-0.2c0.1-0.1,0.2-0.2,0.2-0.3
						c0.1-0.1,0.1-0.2,0.1-0.4c0-0.2,0-0.4-0.1-0.5c-0.1-0.1-0.2-0.3-0.4-0.4c-0.2-0.1-0.4-0.2-0.6-0.3c-0.2-0.1-0.5-0.2-0.8-0.2
						c-0.3-0.1-0.6-0.2-0.9-0.3c-0.3-0.1-0.5-0.3-0.8-0.5c-0.2-0.2-0.4-0.4-0.6-0.7c-0.1-0.3-0.2-0.7-0.2-1.1c0-0.4,0.1-0.7,0.2-1
						c0.1-0.3,0.3-0.6,0.6-0.8c0.2-0.2,0.5-0.4,0.8-0.5c0.3-0.1,0.7-0.2,1-0.2h0.6c0.4,0,0.7,0.1,1,0.2c0.3,0.1,0.6,0.3,0.9,0.6
						c0.2,0.2,0.4,0.5,0.6,0.9c0.1,0.3,0.2,0.7,0.2,1v0.3l-1.6,0.3V61c0-0.2,0-0.3-0.1-0.4c-0.1-0.1-0.1-0.2-0.2-0.3
						s-0.2-0.2-0.3-0.2c-0.1-0.1-0.3-0.1-0.4-0.1h-0.6c-0.2,0-0.3,0-0.4,0.1c-0.1,0-0.2,0.1-0.3,0.2c-0.1,0.1-0.2,0.2-0.2,0.3
						c-0.1,0.1-0.1,0.2-0.1,0.4c0,0.2,0,0.4,0.1,0.5c0.1,0.1,0.2,0.2,0.4,0.3c0.2,0.1,0.4,0.2,0.6,0.3s0.5,0.2,0.8,0.2
						c0.3,0.1,0.6,0.2,0.8,0.3c0.3,0.1,0.5,0.3,0.8,0.5c0.2,0.2,0.4,0.4,0.6,0.8C402.2,64.1,402.3,64.4,402.3,64.9z"/>
				</g>
			</g>
		</g>
		<g id="p.1_00000067195698078614231930000006180142174227459984_">
			<path class="st2" d="M272.1,21.7h170v58.2h-170V21.7z"/>
			<path class="st3" d="M297.7,35.8V46H296V35.8h-2.7v-1.6h7v1.6H297.7z M303.2,38.9c-0.1,0-0.3,0-0.4,0.1c-0.1,0.1-0.2,0.1-0.3,0.2
				s-0.2,0.2-0.2,0.3c-0.1,0.1-0.1,0.3-0.1,0.4v6h-1.6v-8.7h0.8l0.4,0.6c0.1-0.1,0.3-0.2,0.7-0.4c0.4-0.2,0.8-0.3,1.2-0.3h0.9v1.7
				H303.2z M305.3,36.1v-1.9h1.8v1.9H305.3z M305.4,46v-8.7h1.6V46H305.4z M314.6,43.5c0,0.4-0.1,0.7-0.2,1
				c-0.1,0.3-0.3,0.6-0.6,0.9c-0.2,0.2-0.5,0.4-0.9,0.6c-0.3,0.1-0.7,0.2-1,0.2h-0.2c-0.4,0-0.8-0.1-1.2-0.2
				c-0.3-0.2-0.5-0.3-0.5-0.4l0.1,3.7h-1.6V37.4h0.8l0.4,0.6c0.1-0.1,0.3-0.2,0.7-0.4c0.4-0.2,0.8-0.3,1.2-0.3h0.2
				c0.4,0,0.7,0.1,1,0.2c0.3,0.1,0.6,0.3,0.9,0.6c0.2,0.2,0.4,0.5,0.6,0.9c0.1,0.3,0.2,0.7,0.2,1V43.5L314.6,43.5z M313,39.8
				c0-0.2,0-0.3-0.1-0.4c-0.1-0.1-0.1-0.2-0.2-0.3s-0.2-0.2-0.3-0.2c-0.1-0.1-0.3-0.1-0.4-0.1h-0.6c-0.1,0-0.3,0-0.4,0.1
				c-0.1,0.1-0.2,0.1-0.3,0.2s-0.2,0.2-0.2,0.3c-0.1,0.1-0.1,0.3-0.1,0.4v3.7c0,0.1,0,0.3,0.1,0.4c0.1,0.1,0.1,0.2,0.2,0.3
				s0.2,0.2,0.3,0.2c0.1,0.1,0.3,0.1,0.4,0.1h0.6c0.2,0,0.3,0,0.4-0.1c0.1-0.1,0.2-0.1,0.3-0.2s0.2-0.2,0.2-0.3
				c0.1-0.1,0.1-0.3,0.1-0.4V39.8z M325.6,43.5c0,0.4-0.1,0.7-0.2,1c-0.1,0.3-0.3,0.6-0.6,0.9c-0.2,0.2-0.5,0.4-0.9,0.6
				c-0.3,0.1-0.7,0.2-1,0.2h-0.2c-0.4,0-0.8-0.1-1.2-0.2c-0.3-0.2-0.5-0.3-0.5-0.4l0.1,3.7h-1.6V37.4h0.8l0.4,0.6
				c0.1-0.1,0.3-0.2,0.7-0.4c0.4-0.2,0.8-0.3,1.2-0.3h0.2c0.4,0,0.7,0.1,1,0.2c0.3,0.1,0.6,0.3,0.9,0.6c0.2,0.2,0.4,0.5,0.6,0.9
				c0.1,0.3,0.2,0.7,0.2,1V43.5L325.6,43.5z M323.9,39.8c0-0.2,0-0.3-0.1-0.4c-0.1-0.1-0.1-0.2-0.2-0.3s-0.2-0.2-0.3-0.2
				c-0.1-0.1-0.3-0.1-0.4-0.1h-0.6c-0.1,0-0.3,0-0.4,0.1c-0.1,0.1-0.2,0.1-0.3,0.2s-0.2,0.2-0.2,0.3c-0.1,0.1-0.1,0.3-0.1,0.4v3.7
				c0,0.1,0,0.3,0.1,0.4c0.1,0.1,0.1,0.2,0.2,0.3s0.2,0.2,0.3,0.2c0.1,0.1,0.3,0.1,0.4,0.1h0.6c0.2,0,0.3,0,0.4-0.1
				c0.1-0.1,0.2-0.1,0.3-0.2s0.2-0.2,0.2-0.3c0.1-0.1,0.1-0.3,0.1-0.4V39.8z M327.1,46V34.2h1.6V46H327.1z M335.5,46l-0.4-0.6
				c-0.1,0.1-0.3,0.2-0.7,0.4c-0.4,0.2-0.8,0.3-1.2,0.3H333c-0.4,0-0.7-0.1-1-0.2c-0.3-0.1-0.6-0.3-0.9-0.6
				c-0.2-0.2-0.4-0.5-0.6-0.9c-0.1-0.3-0.2-0.7-0.2-1v-0.1c0-0.4,0.1-0.7,0.2-1c0.1-0.3,0.3-0.6,0.6-0.9c0.2-0.2,0.5-0.4,0.9-0.6
				c0.3-0.1,0.7-0.2,1-0.2h1.7v-0.9c0-0.2,0-0.3-0.1-0.4c-0.1-0.1-0.1-0.2-0.2-0.3s-0.2-0.2-0.3-0.2c-0.1-0.1-0.3-0.1-0.4-0.1h-0.6
				c-0.1,0-0.3,0-0.4,0.1c-0.1,0.1-0.2,0.1-0.3,0.2s-0.2,0.2-0.2,0.3c-0.1,0.1-0.1,0.3-0.1,0.4v0.7l-1.6-0.3v-0.4
				c0-0.4,0.1-0.7,0.2-1c0.1-0.3,0.3-0.6,0.6-0.9c0.2-0.2,0.5-0.4,0.9-0.6c0.3-0.1,0.7-0.2,1-0.2h0.6c0.4,0,0.7,0.1,1,0.2
				c0.3,0.1,0.6,0.3,0.9,0.6c0.2,0.2,0.4,0.5,0.6,0.9c0.1,0.3,0.2,0.7,0.2,1V46H335.5z M334.7,42.1H333c-0.1,0-0.3,0-0.4,0.1
				c-0.1,0.1-0.2,0.1-0.3,0.2s-0.2,0.2-0.2,0.3c-0.1,0.1-0.1,0.3-0.1,0.4v0.3c0,0.1,0,0.3,0.1,0.4c0.1,0.1,0.1,0.2,0.2,0.3
				s0.2,0.2,0.3,0.2c0.1,0.1,0.3,0.1,0.4,0.1h0.6c0.2,0,0.3,0,0.4-0.1c0.1-0.1,0.2-0.1,0.3-0.2s0.2-0.2,0.2-0.3
				c0.1-0.1,0.1-0.3,0.1-0.4V42.1z M342,46v-6.2c0-0.2,0-0.3-0.1-0.4c-0.1-0.1-0.1-0.2-0.2-0.3s-0.2-0.2-0.3-0.2
				c-0.1-0.1-0.3-0.1-0.4-0.1h-0.6c-0.1,0-0.3,0-0.4,0.1c-0.1,0.1-0.2,0.1-0.3,0.2s-0.2,0.2-0.2,0.3c-0.1,0.1-0.1,0.3-0.1,0.4V46
				h-1.6v-8.7h0.8l0.4,0.6c0.1-0.1,0.3-0.2,0.7-0.4c0.4-0.2,0.8-0.3,1.2-0.3h0.2c0.4,0,0.7,0.1,1,0.2c0.3,0.1,0.6,0.3,0.9,0.6
				c0.2,0.2,0.4,0.5,0.6,0.9c0.1,0.3,0.2,0.7,0.2,1V46H342z M349.2,46v-6.2c0-0.2,0-0.3-0.1-0.4c-0.1-0.1-0.1-0.2-0.2-0.3
				s-0.2-0.2-0.3-0.2c-0.1-0.1-0.3-0.1-0.4-0.1h-0.6c-0.1,0-0.3,0-0.4,0.1c-0.1,0.1-0.2,0.1-0.3,0.2s-0.2,0.2-0.2,0.3
				c-0.1,0.1-0.1,0.3-0.1,0.4V46h-1.6v-8.7h0.8l0.4,0.6c0.1-0.1,0.3-0.2,0.7-0.4c0.4-0.2,0.8-0.3,1.2-0.3h0.2c0.4,0,0.7,0.1,1,0.2
				c0.3,0.1,0.6,0.3,0.9,0.6c0.2,0.2,0.4,0.5,0.6,0.9c0.1,0.3,0.2,0.7,0.2,1V46H349.2z M352.4,36.1v-1.9h1.8v1.9H352.4z M352.5,46
				v-8.7h1.6V46H352.5z M360,46v-6.2c0-0.2,0-0.3-0.1-0.4c-0.1-0.1-0.1-0.2-0.2-0.3s-0.2-0.2-0.3-0.2c-0.1-0.1-0.3-0.1-0.4-0.1h-0.6
				c-0.1,0-0.3,0-0.4,0.1c-0.1,0.1-0.2,0.1-0.3,0.2s-0.2,0.2-0.2,0.3c-0.1,0.1-0.1,0.3-0.1,0.4V46h-1.6v-8.7h0.8l0.4,0.6
				c0.1-0.1,0.3-0.2,0.7-0.4c0.4-0.2,0.8-0.3,1.2-0.3h0.2c0.4,0,0.7,0.1,1,0.2c0.3,0.1,0.6,0.3,0.9,0.6c0.2,0.2,0.4,0.5,0.6,0.9
				c0.1,0.3,0.2,0.7,0.2,1V46H360z M369,46.7c0,0.4-0.1,0.7-0.2,1c-0.1,0.3-0.3,0.6-0.6,0.8c-0.2,0.2-0.5,0.4-0.8,0.5
				c-0.3,0.1-0.7,0.2-1,0.2h-0.4c-0.4,0-0.7-0.1-1-0.2c-0.3-0.1-0.6-0.3-0.9-0.5c-0.2-0.2-0.4-0.5-0.6-0.8c-0.1-0.3-0.2-0.7-0.2-1v0
				c0-0.4,0.1-0.7,0.2-1c0.1-0.3,0.2-0.5,0.3-0.5c-0.1,0-0.2-0.2-0.4-0.5c-0.2-0.3-0.2-0.6-0.2-1c0-0.3,0.1-0.6,0.2-0.9
				c0.1-0.3,0.2-0.4,0.3-0.5c-0.1-0.1-0.3-0.3-0.4-0.6c-0.2-0.4-0.2-0.7-0.2-1.2v-0.6c0-0.4,0.1-0.7,0.2-1c0.1-0.3,0.3-0.6,0.6-0.9
				c0.2-0.2,0.5-0.4,0.9-0.6c0.3-0.1,0.7-0.2,1-0.2h0.4c0.4,0,0.8,0.1,1.2,0.3c0.4,0.2,0.6,0.3,0.7,0.4l0.3-0.6h0.8v3.1
				c0,0.4-0.1,0.7-0.2,1c-0.1,0.3-0.3,0.6-0.6,0.9c-0.2,0.2-0.5,0.4-0.9,0.6c-0.3,0.1-0.7,0.2-1,0.2H365c-0.1,0-0.1,0-0.2,0
				s-0.1,0.1-0.2,0.1c0,0-0.1,0.1-0.1,0.2c0,0.1,0,0.1,0,0.2c0,0.1,0,0.1,0,0.2c0,0.1,0.1,0.1,0.1,0.2c0.1,0,0.1,0.1,0.2,0.1
				c0.1,0,0.1,0,0.2,0h1.3c0.4,0,0.7,0.1,1,0.2c0.3,0.1,0.6,0.3,0.8,0.5c0.2,0.2,0.4,0.5,0.6,0.8C368.9,46,369,46.3,369,46.7
				L369,46.7L369,46.7z M367.5,39.8c0-0.2,0-0.3-0.1-0.4c-0.1-0.1-0.1-0.2-0.2-0.3c-0.1-0.1-0.2-0.2-0.3-0.2
				c-0.1-0.1-0.3-0.1-0.4-0.1h-0.8c-0.1,0-0.3,0-0.4,0.1c-0.1,0.1-0.2,0.1-0.3,0.2s-0.2,0.2-0.2,0.3c-0.1,0.1-0.1,0.3-0.1,0.4v0.7
				c0,0.2,0,0.3,0.1,0.4c0.1,0.1,0.1,0.2,0.2,0.3s0.2,0.2,0.3,0.2c0.1,0.1,0.3,0.1,0.4,0.1h0.8c0.2,0,0.3,0,0.4-0.1
				c0.1-0.1,0.2-0.1,0.3-0.2c0.1-0.1,0.2-0.2,0.2-0.3c0.1-0.1,0.1-0.3,0.1-0.4V39.8z M367.4,46.6c0-0.1,0-0.3-0.1-0.4
				c-0.1-0.1-0.1-0.2-0.2-0.3c-0.1-0.1-0.2-0.1-0.3-0.2c-0.1-0.1-0.3-0.1-0.4-0.1h-0.5c-0.2,0-0.3,0-0.4,0.1c-0.1,0-0.2,0.1-0.3,0.2
				c-0.1,0.1-0.2,0.2-0.2,0.3c-0.1,0.1-0.1,0.2-0.1,0.4v0.1c0,0.1,0,0.3,0.1,0.4c0.1,0.1,0.1,0.2,0.2,0.3c0.1,0.1,0.2,0.1,0.3,0.2
				c0.1,0.1,0.3,0.1,0.4,0.1h0.5c0.2,0,0.3,0,0.4-0.1c0.1,0,0.2-0.1,0.3-0.2c0.1-0.1,0.2-0.2,0.2-0.3c0.1-0.1,0.1-0.2,0.1-0.4V46.6z
				 M379.9,43.5c0,0.4-0.1,0.7-0.2,1c-0.1,0.3-0.3,0.6-0.6,0.9c-0.2,0.2-0.5,0.4-0.9,0.6c-0.3,0.1-0.7,0.2-1,0.2H377
				c-0.4,0-0.8-0.1-1.2-0.2c-0.3-0.2-0.5-0.3-0.5-0.4l0.1,3.7h-1.6V37.4h0.8l0.4,0.6c0.1-0.1,0.3-0.2,0.7-0.4
				c0.4-0.2,0.8-0.3,1.2-0.3h0.2c0.4,0,0.7,0.1,1,0.2c0.3,0.1,0.6,0.3,0.9,0.6c0.2,0.2,0.4,0.5,0.6,0.9c0.1,0.3,0.2,0.7,0.2,1V43.5
				L379.9,43.5z M378.2,39.8c0-0.2,0-0.3-0.1-0.4c-0.1-0.1-0.1-0.2-0.2-0.3s-0.2-0.2-0.3-0.2c-0.1-0.1-0.3-0.1-0.4-0.1h-0.6
				c-0.1,0-0.3,0-0.4,0.1c-0.1,0.1-0.2,0.1-0.3,0.2s-0.2,0.2-0.2,0.3c-0.1,0.1-0.1,0.3-0.1,0.4v3.7c0,0.1,0,0.3,0.1,0.4
				c0.1,0.1,0.1,0.2,0.2,0.3s0.2,0.2,0.3,0.2c0.1,0.1,0.3,0.1,0.4,0.1h0.6c0.2,0,0.3,0,0.4-0.1c0.1-0.1,0.2-0.1,0.3-0.2
				s0.2-0.2,0.2-0.3c0.1-0.1,0.1-0.3,0.1-0.4V39.8z M383.8,38.9c-0.1,0-0.3,0-0.4,0.1c-0.1,0.1-0.2,0.1-0.3,0.2s-0.2,0.2-0.2,0.3
				c-0.1,0.1-0.1,0.3-0.1,0.4v6h-1.6v-8.7h0.8l0.4,0.6c0.1-0.1,0.3-0.2,0.7-0.4c0.4-0.2,0.8-0.3,1.2-0.3h0.9v1.7H383.8z M391.7,43.5
				c0,0.4-0.1,0.7-0.2,1c-0.1,0.3-0.3,0.6-0.6,0.9c-0.2,0.2-0.5,0.4-0.9,0.6c-0.3,0.1-0.7,0.2-1,0.2h-0.6c-0.4,0-0.7-0.1-1-0.2
				c-0.3-0.1-0.6-0.3-0.9-0.6c-0.2-0.2-0.4-0.5-0.6-0.9c-0.1-0.3-0.2-0.7-0.2-1v-3.6c0-0.4,0.1-0.7,0.2-1c0.1-0.3,0.3-0.6,0.6-0.9
				c0.2-0.2,0.5-0.4,0.9-0.6c0.3-0.1,0.7-0.2,1-0.2h0.6c0.4,0,0.7,0.1,1,0.2c0.3,0.1,0.6,0.3,0.9,0.6c0.2,0.2,0.4,0.5,0.6,0.9
				c0.1,0.3,0.2,0.7,0.2,1V43.5L391.7,43.5z M390.1,39.8c0-0.2,0-0.3-0.1-0.4c-0.1-0.1-0.1-0.2-0.2-0.3s-0.2-0.2-0.3-0.2
				c-0.1-0.1-0.3-0.1-0.4-0.1h-0.6c-0.1,0-0.3,0-0.4,0.1c-0.1,0.1-0.2,0.1-0.3,0.2s-0.2,0.2-0.2,0.3c-0.1,0.1-0.1,0.3-0.1,0.4v3.7
				c0,0.1,0,0.3,0.1,0.4c0.1,0.1,0.1,0.2,0.2,0.3s0.2,0.2,0.3,0.2c0.1,0.1,0.3,0.1,0.4,0.1h0.6c0.2,0,0.3,0,0.4-0.1
				c0.1-0.1,0.2-0.1,0.3-0.2s0.2-0.2,0.2-0.3c0.1-0.1,0.1-0.3,0.1-0.4V39.8z M399,43.5c0,0.4-0.1,0.7-0.2,1
				c-0.1,0.3-0.3,0.6-0.6,0.9c-0.2,0.2-0.5,0.4-0.9,0.6c-0.3,0.1-0.7,0.2-1,0.2h-0.6c-0.4,0-0.7-0.1-1-0.2c-0.3-0.1-0.6-0.3-0.9-0.6
				c-0.2-0.2-0.4-0.5-0.6-0.9c-0.1-0.3-0.2-0.7-0.2-1v-3.6c0-0.4,0.1-0.7,0.2-1c0.1-0.3,0.3-0.6,0.6-0.9c0.2-0.2,0.5-0.4,0.9-0.6
				c0.3-0.1,0.7-0.2,1-0.2h0.6c0.4,0,0.7,0.1,1,0.2c0.3,0.1,0.6,0.3,0.9,0.6c0.2,0.2,0.4,0.5,0.6,0.9c0.1,0.3,0.2,0.7,0.2,1v0.6
				l-1.6,0.3v-0.9c0-0.2,0-0.3-0.1-0.4c-0.1-0.1-0.1-0.2-0.2-0.3s-0.2-0.2-0.3-0.2c-0.1-0.1-0.3-0.1-0.4-0.1h-0.6
				c-0.1,0-0.3,0-0.4,0.1c-0.1,0.1-0.2,0.1-0.3,0.2s-0.2,0.2-0.2,0.3c-0.1,0.1-0.1,0.3-0.1,0.4v3.7c0,0.1,0,0.3,0.1,0.4
				c0.1,0.1,0.1,0.2,0.2,0.3s0.2,0.2,0.3,0.2c0.1,0.1,0.3,0.1,0.4,0.1h0.6c0.2,0,0.3,0,0.4-0.1c0.1-0.1,0.2-0.1,0.3-0.2
				s0.2-0.2,0.2-0.3c0.1-0.1,0.1-0.3,0.1-0.4v-0.9l1.6,0.3V43.5L399,43.5z M406.3,43.5c0,0.4-0.1,0.7-0.2,1
				c-0.1,0.3-0.3,0.6-0.6,0.9c-0.2,0.2-0.5,0.4-0.9,0.6c-0.3,0.1-0.7,0.2-1,0.2h-0.6c-0.4,0-0.7-0.1-1-0.2c-0.3-0.1-0.6-0.3-0.9-0.6
				c-0.2-0.2-0.4-0.5-0.6-0.9c-0.1-0.3-0.2-0.7-0.2-1v-3.6c0-0.4,0.1-0.7,0.2-1c0.1-0.3,0.3-0.6,0.6-0.9c0.2-0.2,0.5-0.4,0.9-0.6
				c0.3-0.1,0.7-0.2,1-0.2h0.6c0.4,0,0.7,0.1,1,0.2c0.3,0.1,0.6,0.3,0.9,0.6c0.2,0.2,0.4,0.5,0.6,0.9c0.1,0.3,0.2,0.7,0.2,1v2.2
				h-4.4v1.5c0,0.1,0,0.3,0.1,0.4c0.1,0.1,0.1,0.2,0.2,0.3s0.2,0.2,0.3,0.2c0.1,0.1,0.3,0.1,0.4,0.1h0.6c0.2,0,0.3,0,0.4-0.1
				c0.1-0.1,0.2-0.1,0.3-0.2s0.2-0.2,0.2-0.3c0.1-0.1,0.1-0.3,0.1-0.4v-0.9l1.6,0.3V43.5L406.3,43.5z M404.6,39.8
				c0-0.2,0-0.3-0.1-0.4c-0.1-0.1-0.1-0.2-0.2-0.3s-0.2-0.2-0.3-0.2c-0.1-0.1-0.3-0.1-0.4-0.1h-0.6c-0.1,0-0.3,0-0.4,0.1
				c-0.1,0.1-0.2,0.1-0.3,0.2s-0.2,0.2-0.2,0.3c-0.1,0.1-0.1,0.3-0.1,0.4v0.9h2.8V39.8z M413.7,43.7c0,0.4-0.1,0.7-0.2,1
				c-0.1,0.3-0.3,0.6-0.6,0.8c-0.2,0.2-0.5,0.4-0.9,0.5c-0.3,0.1-0.7,0.2-1,0.2h-0.6c-0.4,0-0.7-0.1-1-0.2c-0.3-0.1-0.6-0.3-0.9-0.6
				c-0.2-0.2-0.5-0.5-0.6-0.9c-0.1-0.3-0.2-0.7-0.2-1v-0.6l1.6-0.3v0.9c0,0.1,0,0.3,0.1,0.4c0.1,0.1,0.1,0.2,0.2,0.3
				c0.1,0.1,0.2,0.2,0.4,0.2c0.1,0.1,0.3,0.1,0.4,0.1h0.6c0.2,0,0.3,0,0.5-0.1c0.1-0.1,0.3-0.1,0.4-0.2c0.1-0.1,0.2-0.2,0.2-0.3
				c0.1-0.1,0.1-0.2,0.1-0.4c0-0.2,0-0.4-0.1-0.5c-0.1-0.1-0.2-0.3-0.4-0.4c-0.2-0.1-0.4-0.2-0.6-0.3c-0.2-0.1-0.5-0.2-0.8-0.2
				c-0.3-0.1-0.6-0.2-0.9-0.3c-0.3-0.1-0.5-0.3-0.8-0.5c-0.2-0.2-0.4-0.4-0.6-0.7c-0.1-0.3-0.2-0.7-0.2-1.1c0-0.4,0.1-0.7,0.2-1
				c0.1-0.3,0.3-0.6,0.6-0.8c0.2-0.2,0.5-0.4,0.8-0.5c0.3-0.1,0.7-0.2,1-0.2h0.6c0.4,0,0.7,0.1,1,0.2c0.3,0.1,0.6,0.3,0.9,0.6
				c0.2,0.2,0.4,0.5,0.6,0.9c0.1,0.3,0.2,0.7,0.2,1v0.3l-1.6,0.3v-0.6c0-0.2,0-0.3-0.1-0.4c-0.1-0.1-0.1-0.2-0.2-0.3
				s-0.2-0.2-0.3-0.2c-0.1-0.1-0.3-0.1-0.4-0.1h-0.6c-0.2,0-0.3,0-0.4,0.1c-0.1,0-0.2,0.1-0.3,0.2c-0.1,0.1-0.2,0.2-0.2,0.3
				c-0.1,0.1-0.1,0.2-0.1,0.4c0,0.2,0,0.4,0.1,0.5c0.1,0.1,0.2,0.2,0.4,0.3c0.2,0.1,0.4,0.2,0.6,0.3c0.2,0.1,0.5,0.2,0.8,0.2
				c0.3,0.1,0.6,0.2,0.8,0.3c0.3,0.1,0.5,0.3,0.8,0.5c0.2,0.2,0.4,0.4,0.6,0.8C413.6,42.9,413.7,43.2,413.7,43.7z M421,43.7
				c0,0.4-0.1,0.7-0.2,1c-0.1,0.3-0.3,0.6-0.6,0.8c-0.2,0.2-0.5,0.4-0.9,0.5c-0.3,0.1-0.7,0.2-1,0.2h-0.6c-0.4,0-0.7-0.1-1-0.2
				c-0.3-0.1-0.6-0.3-0.9-0.6c-0.2-0.2-0.5-0.5-0.6-0.9c-0.1-0.3-0.2-0.7-0.2-1v-0.6l1.6-0.3v0.9c0,0.1,0,0.3,0.1,0.4
				c0.1,0.1,0.1,0.2,0.2,0.3c0.1,0.1,0.2,0.2,0.4,0.2c0.1,0.1,0.3,0.1,0.4,0.1h0.6c0.2,0,0.3,0,0.5-0.1c0.1-0.1,0.3-0.1,0.4-0.2
				c0.1-0.1,0.2-0.2,0.2-0.3c0.1-0.1,0.1-0.2,0.1-0.4c0-0.2,0-0.4-0.1-0.5c-0.1-0.1-0.2-0.3-0.4-0.4c-0.2-0.1-0.4-0.2-0.6-0.3
				c-0.2-0.1-0.5-0.2-0.8-0.2c-0.3-0.1-0.6-0.2-0.9-0.3c-0.3-0.1-0.5-0.3-0.8-0.5c-0.2-0.2-0.4-0.4-0.6-0.7
				c-0.1-0.3-0.2-0.7-0.2-1.1c0-0.4,0.1-0.7,0.2-1c0.1-0.3,0.3-0.6,0.6-0.8c0.2-0.2,0.5-0.4,0.8-0.5c0.3-0.1,0.7-0.2,1-0.2h0.6
				c0.4,0,0.7,0.1,1,0.2c0.3,0.1,0.6,0.3,0.9,0.6c0.2,0.2,0.4,0.5,0.6,0.9c0.1,0.3,0.2,0.7,0.2,1v0.3l-1.6,0.3v-0.6
				c0-0.2,0-0.3-0.1-0.4c-0.1-0.1-0.1-0.2-0.2-0.3s-0.2-0.2-0.3-0.2c-0.1-0.1-0.3-0.1-0.4-0.1h-0.6c-0.2,0-0.3,0-0.4,0.1
				c-0.1,0-0.2,0.1-0.3,0.2c-0.1,0.1-0.2,0.2-0.2,0.3c-0.1,0.1-0.1,0.2-0.1,0.4c0,0.2,0,0.4,0.1,0.5c0.1,0.1,0.2,0.2,0.4,0.3
				c0.2,0.1,0.4,0.2,0.6,0.3c0.2,0.1,0.5,0.2,0.8,0.2c0.3,0.1,0.6,0.2,0.8,0.3c0.3,0.1,0.5,0.3,0.8,0.5c0.2,0.2,0.4,0.4,0.6,0.8
				C421,42.9,421,43.2,421,43.7z"/>
			<path class="st3" d="M317.9,65.2l-0.4-0.6c-0.1,0.1-0.3,0.2-0.7,0.4c-0.4,0.2-0.8,0.3-1.2,0.3h-0.2c-0.4,0-0.7-0.1-1-0.2
				c-0.3-0.1-0.6-0.3-0.9-0.6c-0.2-0.2-0.4-0.5-0.6-0.9c-0.1-0.3-0.2-0.7-0.2-1v-0.1c0-0.4,0.1-0.7,0.2-1c0.1-0.3,0.3-0.6,0.6-0.9
				c0.2-0.2,0.5-0.4,0.9-0.6c0.3-0.1,0.7-0.2,1-0.2h1.7V59c0-0.2,0-0.3-0.1-0.4c-0.1-0.1-0.1-0.2-0.2-0.3s-0.2-0.2-0.3-0.2
				c-0.1-0.1-0.3-0.1-0.4-0.1h-0.6c-0.1,0-0.3,0-0.4,0.1c-0.1,0.1-0.2,0.1-0.3,0.2s-0.2,0.2-0.2,0.3c-0.1,0.1-0.1,0.3-0.1,0.4v0.7
				l-1.6-0.3v-0.4c0-0.4,0.1-0.7,0.2-1c0.1-0.3,0.3-0.6,0.6-0.9c0.2-0.2,0.5-0.4,0.9-0.6c0.3-0.1,0.7-0.2,1-0.2h0.6
				c0.4,0,0.7,0.1,1,0.2c0.3,0.1,0.6,0.3,0.9,0.6c0.2,0.2,0.4,0.5,0.6,0.9c0.1,0.3,0.2,0.7,0.2,1v6.1H317.9z M317.1,61.3h-1.7
				c-0.1,0-0.3,0-0.4,0.1c-0.1,0.1-0.2,0.1-0.3,0.2s-0.2,0.2-0.2,0.3c-0.1,0.1-0.1,0.3-0.1,0.4v0.3c0,0.1,0,0.3,0.1,0.4
				c0.1,0.1,0.1,0.2,0.2,0.3s0.2,0.2,0.3,0.2c0.1,0.1,0.3,0.1,0.4,0.1h0.6c0.2,0,0.3,0,0.4-0.1c0.1-0.1,0.2-0.1,0.3-0.2
				s0.2-0.2,0.2-0.3c0.1-0.1,0.1-0.3,0.1-0.4V61.3z M324.4,65.2V59c0-0.2,0-0.3-0.1-0.4c-0.1-0.1-0.1-0.2-0.2-0.3s-0.2-0.2-0.3-0.2
				c-0.1-0.1-0.3-0.1-0.4-0.1h-0.6c-0.1,0-0.3,0-0.4,0.1c-0.1,0.1-0.2,0.1-0.3,0.2s-0.2,0.2-0.2,0.3c-0.1,0.1-0.1,0.3-0.1,0.4v6.2
				H320v-8.7h0.8l0.4,0.6c0.1-0.1,0.3-0.2,0.7-0.4s0.8-0.3,1.2-0.3h0.2c0.4,0,0.7,0.1,1,0.2c0.3,0.1,0.6,0.3,0.9,0.6
				c0.2,0.2,0.4,0.5,0.6,0.9c0.1,0.3,0.2,0.7,0.2,1v6.1H324.4z M332.4,65.2l-0.4-0.6c-0.1,0.1-0.3,0.2-0.7,0.4
				c-0.4,0.2-0.8,0.3-1.2,0.3h-0.2c-0.4,0-0.7-0.1-1-0.2c-0.3-0.1-0.6-0.3-0.9-0.6c-0.2-0.2-0.4-0.5-0.6-0.9c-0.1-0.3-0.2-0.7-0.2-1
				v-3.6c0-0.4,0.1-0.7,0.2-1c0.1-0.3,0.3-0.6,0.6-0.9c0.2-0.2,0.5-0.4,0.9-0.6c0.3-0.1,0.7-0.2,1-0.2h0.2c0.4,0,0.8,0.1,1.1,0.2
				c0.4,0.2,0.5,0.3,0.5,0.4l-0.1-3.7h1.6v11.9H332.4z M331.6,59c0-0.2,0-0.3-0.1-0.4c-0.1-0.1-0.1-0.2-0.2-0.3s-0.2-0.2-0.3-0.2
				c-0.1-0.1-0.3-0.1-0.4-0.1h-0.6c-0.1,0-0.3,0-0.4,0.1c-0.1,0.1-0.2,0.1-0.3,0.2s-0.2,0.2-0.2,0.3c-0.1,0.1-0.1,0.3-0.1,0.4v3.7
				c0,0.1,0,0.3,0.1,0.4c0.1,0.1,0.1,0.2,0.2,0.3s0.2,0.2,0.3,0.2c0.1,0.1,0.3,0.1,0.4,0.1h0.6c0.2,0,0.3,0,0.4-0.1
				c0.1-0.1,0.2-0.1,0.3-0.2s0.2-0.2,0.2-0.3c0.1-0.1,0.1-0.3,0.1-0.4V59z M344.2,62.7c0,0.4-0.1,0.7-0.2,1
				c-0.1,0.3-0.3,0.6-0.6,0.9c-0.2,0.2-0.5,0.4-0.9,0.6c-0.3,0.1-0.7,0.2-1,0.2h-0.6c-0.4,0-0.7-0.1-1-0.2c-0.3-0.1-0.6-0.3-0.9-0.6
				c-0.2-0.2-0.4-0.5-0.6-0.9c-0.1-0.3-0.2-0.7-0.2-1v-3.6c0-0.4,0.1-0.7,0.2-1c0.1-0.3,0.3-0.6,0.6-0.9c0.2-0.2,0.5-0.4,0.9-0.6
				c0.3-0.1,0.7-0.2,1-0.2h0.6c0.4,0,0.7,0.1,1,0.2c0.3,0.1,0.6,0.3,0.9,0.6c0.2,0.2,0.4,0.5,0.6,0.9c0.1,0.3,0.2,0.7,0.2,1v0.6
				l-1.6,0.3V59c0-0.2,0-0.3-0.1-0.4c-0.1-0.1-0.1-0.2-0.2-0.3s-0.2-0.2-0.3-0.2c-0.1-0.1-0.3-0.1-0.4-0.1h-0.6
				c-0.1,0-0.3,0-0.4,0.1c-0.1,0.1-0.2,0.1-0.3,0.2s-0.2,0.2-0.2,0.3c-0.1,0.1-0.1,0.3-0.1,0.4v3.7c0,0.1,0,0.3,0.1,0.4
				c0.1,0.1,0.1,0.2,0.2,0.3s0.2,0.2,0.3,0.2c0.1,0.1,0.3,0.1,0.4,0.1h0.6c0.2,0,0.3,0,0.4-0.1c0.1-0.1,0.2-0.1,0.3-0.2
				s0.2-0.2,0.2-0.3c0.1-0.1,0.1-0.3,0.1-0.4v-0.9l1.6,0.3V62.7L344.2,62.7z M349.9,65.2V59c0-0.2,0-0.3-0.1-0.4
				c-0.1-0.1-0.1-0.2-0.2-0.3s-0.2-0.2-0.3-0.2c-0.1-0.1-0.3-0.1-0.4-0.1h-0.6c-0.1,0-0.3,0-0.4,0.1c-0.1,0.1-0.2,0.1-0.3,0.2
				s-0.2,0.2-0.2,0.3c-0.1,0.1-0.1,0.3-0.1,0.4v6.2h-1.6V53.4h1.6l-0.1,3.7c0-0.1,0.1-0.2,0.5-0.4c0.4-0.2,0.7-0.2,1.2-0.2h0.2
				c0.4,0,0.7,0.1,1,0.2c0.3,0.1,0.6,0.3,0.9,0.6c0.2,0.2,0.4,0.5,0.6,0.9c0.1,0.3,0.2,0.7,0.2,1v6.1H349.9z M357.9,65.2l-0.4-0.6
				c-0.1,0.1-0.3,0.2-0.7,0.4c-0.4,0.2-0.8,0.3-1.2,0.3h-0.2c-0.4,0-0.7-0.1-1-0.2c-0.3-0.1-0.6-0.3-0.9-0.6
				c-0.2-0.2-0.4-0.5-0.6-0.9c-0.1-0.3-0.2-0.7-0.2-1v-0.1c0-0.4,0.1-0.7,0.2-1c0.1-0.3,0.3-0.6,0.6-0.9c0.2-0.2,0.5-0.4,0.9-0.6
				c0.3-0.1,0.7-0.2,1-0.2h1.7V59c0-0.2,0-0.3-0.1-0.4c-0.1-0.1-0.1-0.2-0.2-0.3s-0.2-0.2-0.3-0.2c-0.1-0.1-0.3-0.1-0.4-0.1h-0.6
				c-0.1,0-0.3,0-0.4,0.1c-0.1,0.1-0.2,0.1-0.3,0.2s-0.2,0.2-0.2,0.3c-0.1,0.1-0.1,0.3-0.1,0.4v0.7l-1.6-0.3v-0.4
				c0-0.4,0.1-0.7,0.2-1c0.1-0.3,0.3-0.6,0.6-0.9c0.2-0.2,0.5-0.4,0.9-0.6c0.3-0.1,0.7-0.2,1-0.2h0.6c0.4,0,0.7,0.1,1,0.2
				c0.3,0.1,0.6,0.3,0.9,0.6c0.2,0.2,0.4,0.5,0.6,0.9c0.1,0.3,0.2,0.7,0.2,1v6.1H357.9z M357.1,61.3h-1.7c-0.1,0-0.3,0-0.4,0.1
				c-0.1,0.1-0.2,0.1-0.3,0.2s-0.2,0.2-0.2,0.3c-0.1,0.1-0.1,0.3-0.1,0.4v0.3c0,0.1,0,0.3,0.1,0.4c0.1,0.1,0.1,0.2,0.2,0.3
				s0.2,0.2,0.3,0.2c0.1,0.1,0.3,0.1,0.4,0.1h0.6c0.2,0,0.3,0,0.4-0.1c0.1-0.1,0.2-0.1,0.3-0.2s0.2-0.2,0.2-0.3
				c0.1-0.1,0.1-0.3,0.1-0.4V61.3z M360.3,65.2V53.4h1.6v11.9H360.3z M363.8,65.2V53.4h1.6v11.9H363.8z M373.1,62.7
				c0,0.4-0.1,0.7-0.2,1c-0.1,0.3-0.3,0.6-0.6,0.9c-0.2,0.2-0.5,0.4-0.9,0.6c-0.3,0.1-0.7,0.2-1,0.2h-0.6c-0.4,0-0.7-0.1-1-0.2
				c-0.3-0.1-0.6-0.3-0.9-0.6c-0.2-0.2-0.4-0.5-0.6-0.9c-0.1-0.3-0.2-0.7-0.2-1v-3.6c0-0.4,0.1-0.7,0.2-1c0.1-0.3,0.3-0.6,0.6-0.9
				c0.2-0.2,0.5-0.4,0.9-0.6c0.3-0.1,0.7-0.2,1-0.2h0.6c0.4,0,0.7,0.1,1,0.2c0.3,0.1,0.6,0.3,0.9,0.6c0.2,0.2,0.4,0.5,0.6,0.9
				c0.1,0.3,0.2,0.7,0.2,1v2.2h-4.4v1.5c0,0.1,0,0.3,0.1,0.4c0.1,0.1,0.1,0.2,0.2,0.3s0.2,0.2,0.3,0.2c0.1,0.1,0.3,0.1,0.4,0.1h0.6
				c0.2,0,0.3,0,0.4-0.1c0.1-0.1,0.2-0.1,0.3-0.2s0.2-0.2,0.2-0.3c0.1-0.1,0.1-0.3,0.1-0.4v-0.9l1.6,0.3V62.7L373.1,62.7z M371.4,59
				c0-0.2,0-0.3-0.1-0.4c-0.1-0.1-0.1-0.2-0.2-0.3s-0.2-0.2-0.3-0.2c-0.1-0.1-0.3-0.1-0.4-0.1h-0.6c-0.1,0-0.3,0-0.4,0.1
				c-0.1,0.1-0.2,0.1-0.3,0.2s-0.2,0.2-0.2,0.3c-0.1,0.1-0.1,0.3-0.1,0.4v0.9h2.8V59z M378.7,65.2V59c0-0.2,0-0.3-0.1-0.4
				c-0.1-0.1-0.1-0.2-0.2-0.3s-0.2-0.2-0.3-0.2c-0.1-0.1-0.3-0.1-0.4-0.1H377c-0.1,0-0.3,0-0.4,0.1c-0.1,0.1-0.2,0.1-0.3,0.2
				s-0.2,0.2-0.2,0.3c-0.1,0.1-0.1,0.3-0.1,0.4v6.2h-1.6v-8.7h0.8l0.4,0.6c0.1-0.1,0.3-0.2,0.7-0.4s0.8-0.3,1.2-0.3h0.2
				c0.4,0,0.7,0.1,1,0.2c0.3,0.1,0.6,0.3,0.9,0.6c0.2,0.2,0.4,0.5,0.6,0.9c0.1,0.3,0.2,0.7,0.2,1v6.1H378.7z M387.7,65.9
				c0,0.4-0.1,0.7-0.2,1c-0.1,0.3-0.3,0.6-0.6,0.8c-0.2,0.2-0.5,0.4-0.8,0.5c-0.3,0.1-0.7,0.2-1,0.2h-0.4c-0.4,0-0.7-0.1-1-0.2
				c-0.3-0.1-0.6-0.3-0.9-0.5c-0.2-0.2-0.4-0.5-0.6-0.8c-0.1-0.3-0.2-0.7-0.2-1v0c0-0.4,0.1-0.7,0.2-1c0.1-0.3,0.2-0.5,0.3-0.5
				c-0.1,0-0.2-0.2-0.4-0.5c-0.2-0.3-0.2-0.6-0.2-1c0-0.3,0.1-0.6,0.2-0.9c0.1-0.3,0.2-0.4,0.3-0.5c-0.1-0.1-0.3-0.3-0.4-0.6
				c-0.2-0.4-0.2-0.7-0.2-1.2v-0.6c0-0.4,0.1-0.7,0.2-1c0.1-0.3,0.3-0.6,0.6-0.9c0.2-0.2,0.5-0.4,0.9-0.6c0.3-0.1,0.7-0.2,1-0.2h0.4
				c0.4,0,0.8,0.1,1.2,0.3c0.4,0.2,0.6,0.3,0.7,0.4l0.3-0.6h0.8v3.1c0,0.4-0.1,0.7-0.2,1c-0.1,0.3-0.3,0.6-0.6,0.9
				c-0.2,0.2-0.5,0.4-0.9,0.6c-0.3,0.1-0.7,0.2-1,0.2h-1.4c-0.1,0-0.1,0-0.2,0s-0.1,0.1-0.2,0.1c0,0-0.1,0.1-0.1,0.2
				c0,0.1,0,0.1,0,0.2c0,0.1,0,0.1,0,0.2c0,0.1,0.1,0.1,0.1,0.2c0.1,0,0.1,0.1,0.2,0.1c0.1,0,0.1,0,0.2,0h1.3c0.4,0,0.7,0.1,1,0.2
				c0.3,0.1,0.6,0.3,0.8,0.5c0.2,0.2,0.4,0.5,0.6,0.8C387.6,65.2,387.7,65.5,387.7,65.9L387.7,65.9L387.7,65.9z M386.1,59
				c0-0.2,0-0.3-0.1-0.4c-0.1-0.1-0.1-0.2-0.2-0.3c-0.1-0.1-0.2-0.2-0.3-0.2c-0.1-0.1-0.3-0.1-0.4-0.1h-0.8c-0.1,0-0.3,0-0.4,0.1
				c-0.1,0.1-0.2,0.1-0.3,0.2s-0.2,0.2-0.2,0.3c-0.1,0.1-0.1,0.3-0.1,0.4v0.7c0,0.2,0,0.3,0.1,0.4c0.1,0.1,0.1,0.2,0.2,0.3
				s0.2,0.2,0.3,0.2c0.1,0.1,0.3,0.1,0.4,0.1h0.8c0.2,0,0.3,0,0.4-0.1c0.1-0.1,0.2-0.1,0.3-0.2c0.1-0.1,0.2-0.2,0.2-0.3
				c0.1-0.1,0.1-0.3,0.1-0.4V59z M386.1,65.8c0-0.1,0-0.3-0.1-0.4c-0.1-0.1-0.1-0.2-0.2-0.3c-0.1-0.1-0.2-0.1-0.3-0.2
				c-0.1-0.1-0.3-0.1-0.4-0.1h-0.5c-0.2,0-0.3,0-0.4,0.1c-0.1,0-0.2,0.1-0.3,0.2c-0.1,0.1-0.2,0.2-0.2,0.3c-0.1,0.1-0.1,0.2-0.1,0.4
				V66c0,0.1,0,0.3,0.1,0.4c0.1,0.1,0.1,0.2,0.2,0.3c0.1,0.1,0.2,0.1,0.3,0.2c0.1,0.1,0.3,0.1,0.4,0.1h0.5c0.2,0,0.3,0,0.4-0.1
				c0.1,0,0.2-0.1,0.3-0.2c0.1-0.1,0.2-0.2,0.2-0.3c0.1-0.1,0.1-0.2,0.1-0.4V65.8z M394.9,62.7c0,0.4-0.1,0.7-0.2,1
				c-0.1,0.3-0.3,0.6-0.6,0.9c-0.2,0.2-0.5,0.4-0.9,0.6c-0.3,0.1-0.7,0.2-1,0.2h-0.6c-0.4,0-0.7-0.1-1-0.2c-0.3-0.1-0.6-0.3-0.9-0.6
				c-0.2-0.2-0.4-0.5-0.6-0.9c-0.1-0.3-0.2-0.7-0.2-1v-3.6c0-0.4,0.1-0.7,0.2-1c0.1-0.3,0.3-0.6,0.6-0.9c0.2-0.2,0.5-0.4,0.9-0.6
				c0.3-0.1,0.7-0.2,1-0.2h0.6c0.4,0,0.7,0.1,1,0.2c0.3,0.1,0.6,0.3,0.9,0.6c0.2,0.2,0.4,0.5,0.6,0.9c0.1,0.3,0.2,0.7,0.2,1v2.2
				h-4.4v1.5c0,0.1,0,0.3,0.1,0.4c0.1,0.1,0.1,0.2,0.2,0.3s0.2,0.2,0.3,0.2c0.1,0.1,0.3,0.1,0.4,0.1h0.6c0.2,0,0.3,0,0.4-0.1
				c0.1-0.1,0.2-0.1,0.3-0.2s0.2-0.2,0.2-0.3c0.1-0.1,0.1-0.3,0.1-0.4v-0.9l1.6,0.3V62.7L394.9,62.7z M393.2,59c0-0.2,0-0.3-0.1-0.4
				c-0.1-0.1-0.1-0.2-0.2-0.3s-0.2-0.2-0.3-0.2c-0.1-0.1-0.3-0.1-0.4-0.1h-0.6c-0.1,0-0.3,0-0.4,0.1c-0.1,0.1-0.2,0.1-0.3,0.2
				s-0.2,0.2-0.2,0.3c-0.1,0.1-0.1,0.3-0.1,0.4v0.9h2.8V59z M402.3,62.9c0,0.4-0.1,0.7-0.2,1c-0.1,0.3-0.3,0.6-0.6,0.8
				c-0.2,0.2-0.5,0.4-0.9,0.5c-0.3,0.1-0.7,0.2-1,0.2h-0.6c-0.4,0-0.7-0.1-1-0.2c-0.3-0.1-0.6-0.3-0.9-0.6c-0.2-0.2-0.5-0.5-0.6-0.9
				c-0.1-0.3-0.2-0.7-0.2-1v-0.6l1.6-0.3v0.9c0,0.1,0,0.3,0.1,0.4c0.1,0.1,0.1,0.2,0.2,0.3c0.1,0.1,0.2,0.2,0.4,0.2
				c0.1,0.1,0.3,0.1,0.4,0.1h0.6c0.2,0,0.3,0,0.5-0.1c0.1-0.1,0.3-0.1,0.4-0.2c0.1-0.1,0.2-0.2,0.2-0.3c0.1-0.1,0.1-0.2,0.1-0.4
				c0-0.2,0-0.4-0.1-0.5s-0.2-0.3-0.4-0.4c-0.2-0.1-0.4-0.2-0.6-0.3c-0.2-0.1-0.5-0.2-0.8-0.2c-0.3-0.1-0.6-0.2-0.9-0.3
				c-0.3-0.1-0.5-0.3-0.8-0.5c-0.2-0.2-0.4-0.4-0.6-0.7c-0.1-0.3-0.2-0.7-0.2-1.1c0-0.4,0.1-0.7,0.2-1c0.1-0.3,0.3-0.6,0.6-0.8
				c0.2-0.2,0.5-0.4,0.8-0.5c0.3-0.1,0.7-0.2,1-0.2h0.6c0.4,0,0.7,0.1,1,0.2c0.3,0.1,0.6,0.3,0.9,0.6c0.2,0.2,0.4,0.5,0.6,0.9
				c0.1,0.3,0.2,0.7,0.2,1v0.3l-1.6,0.3V59c0-0.2,0-0.3-0.1-0.4c-0.1-0.1-0.1-0.2-0.2-0.3s-0.2-0.2-0.3-0.2
				c-0.1-0.1-0.3-0.1-0.4-0.1h-0.6c-0.2,0-0.3,0-0.4,0.1c-0.1,0-0.2,0.1-0.3,0.2c-0.1,0.1-0.2,0.2-0.2,0.3c-0.1,0.1-0.1,0.2-0.1,0.4
				c0,0.2,0,0.4,0.1,0.5c0.1,0.1,0.2,0.2,0.4,0.3c0.2,0.1,0.4,0.2,0.6,0.3s0.5,0.2,0.8,0.2c0.3,0.1,0.6,0.2,0.8,0.3
				c0.3,0.1,0.5,0.3,0.8,0.5c0.2,0.2,0.4,0.4,0.6,0.8C402.2,62.1,402.3,62.4,402.3,62.9z"/>
		</g>
		<g>
			<g transform="matrix(1.0 0.0 0.0 1.0 0.0 2.0)">
				<g id="p.2">
					<path class="st2" d="M517.9,23.7h170v58.2h-170V23.7z"/>
					<path class="st3" d="M535.8,40.6c0,0.4-0.1,0.8-0.2,1.2c-0.2,0.4-0.4,0.7-0.7,1s-0.6,0.5-1,0.7s-0.8,0.2-1.2,0.2h-2.2V48h-1.7
						V36.2h3.9c0.4,0,0.8,0.1,1.2,0.2s0.7,0.4,1,0.7s0.5,0.6,0.7,1c0.2,0.4,0.2,0.8,0.2,1.2V40.6L535.8,40.6z M534.1,39.2
						c0-0.2,0-0.4-0.1-0.6c-0.1-0.2-0.2-0.3-0.3-0.5c-0.1-0.1-0.3-0.2-0.5-0.3c-0.2-0.1-0.4-0.1-0.6-0.1h-2.2v4.3h2.2
						c0.2,0,0.4,0,0.6-0.1c0.2-0.1,0.3-0.2,0.5-0.3c0.1-0.1,0.2-0.3,0.3-0.5c0.1-0.2,0.1-0.4,0.1-0.6V39.2z M542.7,45.5
						c0,0.4-0.1,0.7-0.2,1c-0.1,0.3-0.3,0.6-0.6,0.9c-0.2,0.2-0.5,0.4-0.9,0.6c-0.3,0.1-0.7,0.2-1,0.2h-0.6c-0.4,0-0.7-0.1-1-0.2
						c-0.3-0.1-0.6-0.3-0.9-0.6c-0.2-0.2-0.4-0.5-0.6-0.9c-0.1-0.3-0.2-0.7-0.2-1v-3.6c0-0.4,0.1-0.7,0.2-1c0.1-0.3,0.3-0.6,0.6-0.9
						c0.2-0.2,0.5-0.4,0.9-0.6c0.3-0.1,0.7-0.2,1-0.2h0.6c0.4,0,0.7,0.1,1,0.2c0.3,0.1,0.6,0.3,0.9,0.6c0.2,0.2,0.4,0.5,0.6,0.9
						c0.1,0.3,0.2,0.7,0.2,1V45.5L542.7,45.5z M541.1,41.8c0-0.2,0-0.3-0.1-0.4c-0.1-0.1-0.1-0.2-0.2-0.3s-0.2-0.2-0.3-0.2
						c-0.1-0.1-0.3-0.1-0.4-0.1h-0.6c-0.1,0-0.3,0-0.4,0.1c-0.1,0.1-0.2,0.1-0.3,0.2s-0.2,0.2-0.2,0.3c-0.1,0.1-0.1,0.3-0.1,0.4v3.7
						c0,0.1,0,0.3,0.1,0.4c0.1,0.1,0.1,0.2,0.2,0.3s0.2,0.2,0.3,0.2c0.1,0.1,0.3,0.1,0.4,0.1h0.6c0.2,0,0.3,0,0.4-0.1
						c0.1-0.1,0.2-0.1,0.3-0.2s0.2-0.2,0.2-0.3c0.1-0.1,0.1-0.3,0.1-0.4V41.8z M550.2,45.7c0,0.4-0.1,0.7-0.2,1
						c-0.1,0.3-0.3,0.6-0.6,0.8c-0.2,0.2-0.5,0.4-0.9,0.5c-0.3,0.1-0.7,0.2-1,0.2h-0.6c-0.4,0-0.7-0.1-1-0.2
						c-0.3-0.1-0.6-0.3-0.9-0.6c-0.2-0.2-0.5-0.5-0.6-0.9c-0.1-0.3-0.2-0.7-0.2-1v-0.6l1.6-0.3v0.9c0,0.1,0,0.3,0.1,0.4
						c0.1,0.1,0.1,0.2,0.2,0.3c0.1,0.1,0.2,0.2,0.4,0.2c0.1,0.1,0.3,0.1,0.4,0.1h0.6c0.2,0,0.3,0,0.5-0.1c0.1-0.1,0.3-0.1,0.4-0.2
						c0.1-0.1,0.2-0.2,0.2-0.3c0.1-0.1,0.1-0.2,0.1-0.4c0-0.2,0-0.4-0.1-0.5c-0.1-0.1-0.2-0.3-0.4-0.4c-0.2-0.1-0.4-0.2-0.6-0.3
						c-0.2-0.1-0.5-0.2-0.8-0.2c-0.3-0.1-0.6-0.2-0.9-0.3c-0.3-0.1-0.5-0.3-0.8-0.5c-0.2-0.2-0.4-0.4-0.6-0.7
						c-0.1-0.3-0.2-0.7-0.2-1.1c0-0.4,0.1-0.7,0.2-1c0.1-0.3,0.3-0.6,0.6-0.8c0.2-0.2,0.5-0.4,0.8-0.5c0.3-0.1,0.7-0.2,1-0.2h0.6
						c0.4,0,0.7,0.1,1,0.2c0.3,0.1,0.6,0.3,0.9,0.6c0.2,0.2,0.4,0.5,0.6,0.9c0.1,0.3,0.2,0.7,0.2,1v0.3l-1.6,0.3v-0.6
						c0-0.2,0-0.3-0.1-0.4c-0.1-0.1-0.1-0.2-0.2-0.3s-0.2-0.2-0.3-0.2c-0.1-0.1-0.3-0.1-0.4-0.1h-0.6c-0.2,0-0.3,0-0.4,0.1
						c-0.1,0-0.2,0.1-0.3,0.2c-0.1,0.1-0.2,0.2-0.2,0.3c-0.1,0.1-0.1,0.2-0.1,0.4c0,0.2,0,0.4,0.1,0.5c0.1,0.1,0.2,0.2,0.4,0.3
						c0.2,0.1,0.4,0.2,0.6,0.3c0.2,0.1,0.5,0.2,0.8,0.2c0.3,0.1,0.6,0.2,0.8,0.3c0.3,0.1,0.5,0.3,0.8,0.5c0.2,0.2,0.4,0.4,0.6,0.8
						C550.1,44.9,550.2,45.2,550.2,45.7z M554.6,48c-0.3,0-0.7-0.1-1-0.2c-0.3-0.1-0.6-0.3-0.8-0.5c-0.2-0.2-0.4-0.5-0.5-0.8
						c-0.1-0.3-0.2-0.6-0.2-1v-4.7h-1.4v-1.6h1.4v-1.9l1.6-0.3v2.1h2v1.6h-2v4.7c0,0.1,0,0.2,0.1,0.3c0.1,0.1,0.1,0.2,0.2,0.2
						c0.1,0.1,0.2,0.1,0.2,0.2c0.1,0,0.2,0.1,0.3,0.1h1.2V48H554.6z M556.7,43.1v-1.6h3.7v1.6H556.7z M567.5,45.5
						c0,0.4-0.1,0.7-0.2,1c-0.1,0.3-0.3,0.6-0.6,0.9c-0.2,0.2-0.5,0.4-0.9,0.6c-0.3,0.1-0.7,0.2-1,0.2h-0.2c-0.4,0-0.8-0.1-1.2-0.2
						c-0.3-0.2-0.5-0.3-0.5-0.4l0.1,3.7h-1.6V39.4h0.8l0.4,0.6c0.1-0.1,0.3-0.2,0.7-0.4c0.4-0.2,0.8-0.3,1.2-0.3h0.2
						c0.4,0,0.7,0.1,1,0.2c0.3,0.1,0.6,0.3,0.9,0.6c0.2,0.2,0.4,0.5,0.6,0.9c0.1,0.3,0.2,0.7,0.2,1V45.5L567.5,45.5z M565.9,41.8
						c0-0.2,0-0.3-0.1-0.4c-0.1-0.1-0.1-0.2-0.2-0.3s-0.2-0.2-0.3-0.2c-0.1-0.1-0.3-0.1-0.4-0.1h-0.6c-0.1,0-0.3,0-0.4,0.1
						c-0.1,0.1-0.2,0.1-0.3,0.2s-0.2,0.2-0.2,0.3c-0.1,0.1-0.1,0.3-0.1,0.4v3.7c0,0.1,0,0.3,0.1,0.4c0.1,0.1,0.1,0.2,0.2,0.3
						s0.2,0.2,0.3,0.2c0.1,0.1,0.3,0.1,0.4,0.1h0.6c0.2,0,0.3,0,0.4-0.1c0.1-0.1,0.2-0.1,0.3-0.2s0.2-0.2,0.2-0.3
						c0.1-0.1,0.1-0.3,0.1-0.4V41.8z M573.9,48l-0.4-0.6c-0.1,0.1-0.3,0.2-0.7,0.4c-0.4,0.2-0.8,0.3-1.2,0.3h-0.2
						c-0.4,0-0.7-0.1-1-0.2c-0.3-0.1-0.6-0.3-0.9-0.6c-0.2-0.2-0.4-0.5-0.6-0.9c-0.1-0.3-0.2-0.7-0.2-1v-0.1c0-0.4,0.1-0.7,0.2-1
						c0.1-0.3,0.3-0.6,0.6-0.9c0.2-0.2,0.5-0.4,0.9-0.6c0.3-0.1,0.7-0.2,1-0.2h1.7v-0.9c0-0.2,0-0.3-0.1-0.4
						c-0.1-0.1-0.1-0.2-0.2-0.3s-0.2-0.2-0.3-0.2c-0.1-0.1-0.3-0.1-0.4-0.1h-0.6c-0.1,0-0.3,0-0.4,0.1c-0.1,0.1-0.2,0.1-0.3,0.2
						s-0.2,0.2-0.2,0.3c-0.1,0.1-0.1,0.3-0.1,0.4v0.7l-1.6-0.3v-0.4c0-0.4,0.1-0.7,0.2-1c0.1-0.3,0.3-0.6,0.6-0.9
						c0.2-0.2,0.5-0.4,0.9-0.6c0.3-0.1,0.7-0.2,1-0.2h0.6c0.4,0,0.7,0.1,1,0.2c0.3,0.1,0.6,0.3,0.9,0.6c0.2,0.2,0.4,0.5,0.6,0.9
						c0.1,0.3,0.2,0.7,0.2,1V48H573.9z M573.1,44.1h-1.7c-0.1,0-0.3,0-0.4,0.1c-0.1,0.1-0.2,0.1-0.3,0.2s-0.2,0.2-0.2,0.3
						c-0.1,0.1-0.1,0.3-0.1,0.4v0.3c0,0.1,0,0.3,0.1,0.4c0.1,0.1,0.1,0.2,0.2,0.3s0.2,0.2,0.3,0.2c0.1,0.1,0.3,0.1,0.4,0.1h0.6
						c0.2,0,0.3,0,0.4-0.1c0.1-0.1,0.2-0.1,0.3-0.2s0.2-0.2,0.2-0.3c0.1-0.1,0.1-0.3,0.1-0.4V44.1z M580.4,48v-6.2
						c0-0.2,0-0.3-0.1-0.4c-0.1-0.1-0.1-0.2-0.2-0.3s-0.2-0.2-0.3-0.2c-0.1-0.1-0.3-0.1-0.4-0.1h-0.6c-0.1,0-0.3,0-0.4,0.1
						c-0.1,0.1-0.2,0.1-0.3,0.2s-0.2,0.2-0.2,0.3c-0.1,0.1-0.1,0.3-0.1,0.4V48H576v-8.7h0.8l0.4,0.6c0.1-0.1,0.3-0.2,0.7-0.4
						c0.4-0.2,0.8-0.3,1.2-0.3h0.2c0.4,0,0.7,0.1,1,0.2c0.3,0.1,0.6,0.3,0.9,0.6c0.2,0.2,0.4,0.5,0.6,0.9c0.1,0.3,0.2,0.7,0.2,1V48
						H580.4z M588.5,48l-0.4-0.6c-0.1,0.1-0.3,0.2-0.7,0.4c-0.4,0.2-0.8,0.3-1.2,0.3H586c-0.4,0-0.7-0.1-1-0.2
						c-0.3-0.1-0.6-0.3-0.9-0.6c-0.2-0.2-0.4-0.5-0.6-0.9c-0.1-0.3-0.2-0.7-0.2-1v-3.6c0-0.4,0.1-0.7,0.2-1c0.1-0.3,0.3-0.6,0.6-0.9
						c0.2-0.2,0.5-0.4,0.9-0.6c0.3-0.1,0.7-0.2,1-0.2h0.2c0.4,0,0.8,0.1,1.1,0.2c0.4,0.2,0.5,0.3,0.5,0.4l-0.1-3.7h1.6V48H588.5z
						 M587.7,41.8c0-0.2,0-0.3-0.1-0.4c-0.1-0.1-0.1-0.2-0.2-0.3s-0.2-0.2-0.3-0.2c-0.1-0.1-0.3-0.1-0.4-0.1H586
						c-0.1,0-0.3,0-0.4,0.1c-0.1,0.1-0.2,0.1-0.3,0.2s-0.2,0.2-0.2,0.3c-0.1,0.1-0.1,0.3-0.1,0.4v3.7c0,0.1,0,0.3,0.1,0.4
						c0.1,0.1,0.1,0.2,0.2,0.3s0.2,0.2,0.3,0.2c0.1,0.1,0.3,0.1,0.4,0.1h0.6c0.2,0,0.3,0,0.4-0.1c0.1-0.1,0.2-0.1,0.3-0.2
						s0.2-0.2,0.2-0.3c0.1-0.1,0.1-0.3,0.1-0.4V41.8z M596.6,45.5c0,0.4-0.1,0.7-0.2,1c-0.1,0.3-0.3,0.6-0.6,0.9
						c-0.2,0.2-0.5,0.4-0.9,0.6c-0.3,0.1-0.7,0.2-1,0.2h-0.6c-0.4,0-0.7-0.1-1-0.2c-0.3-0.1-0.6-0.3-0.9-0.6
						c-0.2-0.2-0.4-0.5-0.6-0.9c-0.1-0.3-0.2-0.7-0.2-1v-3.6c0-0.4,0.1-0.7,0.2-1c0.1-0.3,0.3-0.6,0.6-0.9c0.2-0.2,0.5-0.4,0.9-0.6
						c0.3-0.1,0.7-0.2,1-0.2h0.6c0.4,0,0.7,0.1,1,0.2c0.3,0.1,0.6,0.3,0.9,0.6c0.2,0.2,0.4,0.5,0.6,0.9c0.1,0.3,0.2,0.7,0.2,1v2.2
						h-4.4v1.5c0,0.1,0,0.3,0.1,0.4c0.1,0.1,0.1,0.2,0.2,0.3s0.2,0.2,0.3,0.2c0.1,0.1,0.3,0.1,0.4,0.1h0.6c0.2,0,0.3,0,0.4-0.1
						c0.1-0.1,0.2-0.1,0.3-0.2s0.2-0.2,0.2-0.3c0.1-0.1,0.1-0.3,0.1-0.4v-0.9l1.6,0.3V45.5L596.6,45.5z M594.9,41.8
						c0-0.2,0-0.3-0.1-0.4c-0.1-0.1-0.1-0.2-0.2-0.3s-0.2-0.2-0.3-0.2c-0.1-0.1-0.3-0.1-0.4-0.1h-0.6c-0.1,0-0.3,0-0.4,0.1
						c-0.1,0.1-0.2,0.1-0.3,0.2s-0.2,0.2-0.2,0.3c-0.1,0.1-0.1,0.3-0.1,0.4v0.9h2.8V41.8z M606.3,48v-6.2c0-0.2,0-0.3-0.1-0.4
						c-0.1-0.1-0.1-0.2-0.2-0.3s-0.2-0.2-0.3-0.2c-0.1-0.1-0.3-0.1-0.4-0.1h-0.5c-0.2,0-0.3,0-0.4,0.1c-0.1,0.1-0.2,0.1-0.3,0.2
						c-0.1,0.1-0.2,0.2-0.2,0.3c-0.1,0.1-0.1,0.3-0.1,0.4V48h-1.6v-6.2c0-0.2,0-0.3-0.1-0.4c-0.1-0.1-0.1-0.2-0.2-0.3
						s-0.2-0.2-0.3-0.2c-0.1-0.1-0.3-0.1-0.4-0.1h-0.5c-0.1,0-0.3,0-0.4,0.1c-0.1,0.1-0.2,0.1-0.3,0.2s-0.2,0.2-0.2,0.3
						c-0.1,0.1-0.1,0.3-0.1,0.4V48h-1.6v-8.7h0.8l0.4,0.6c0.1-0.1,0.3-0.2,0.7-0.4c0.4-0.2,0.8-0.3,1.2-0.3h0.1c0.5,0,1,0.1,1.4,0.4
						c0.4,0.2,0.6,0.5,0.7,0.8c-0.1-0.1,0-0.2,0.1-0.4c0.2-0.2,0.3-0.3,0.5-0.4c0.2-0.1,0.4-0.2,0.7-0.3c0.2-0.1,0.5-0.1,0.7-0.1
						h0.1c0.4,0,0.7,0.1,1,0.2c0.3,0.1,0.6,0.3,0.9,0.6c0.2,0.2,0.4,0.5,0.6,0.9c0.1,0.3,0.2,0.7,0.2,1V48H606.3z M609.4,38.1v-1.9
						h1.8v1.9H609.4z M609.5,48v-8.7h1.6V48H609.5z M618.7,45.5c0,0.4-0.1,0.7-0.2,1c-0.1,0.3-0.3,0.6-0.6,0.9
						c-0.2,0.2-0.5,0.4-0.9,0.6c-0.3,0.1-0.7,0.2-1,0.2h-0.6c-0.4,0-0.7-0.1-1-0.2c-0.3-0.1-0.6-0.3-0.9-0.6
						c-0.2-0.2-0.4-0.5-0.6-0.9c-0.1-0.3-0.2-0.7-0.2-1v-3.6c0-0.4,0.1-0.7,0.2-1c0.1-0.3,0.3-0.6,0.6-0.9c0.2-0.2,0.5-0.4,0.9-0.6
						c0.3-0.1,0.7-0.2,1-0.2h0.6c0.4,0,0.7,0.1,1,0.2c0.3,0.1,0.6,0.3,0.9,0.6c0.2,0.2,0.4,0.5,0.6,0.9c0.1,0.3,0.2,0.7,0.2,1v0.6
						l-1.6,0.3v-0.9c0-0.2,0-0.3-0.1-0.4c-0.1-0.1-0.1-0.2-0.2-0.3s-0.2-0.2-0.3-0.2c-0.1-0.1-0.3-0.1-0.4-0.1h-0.6
						c-0.1,0-0.3,0-0.4,0.1c-0.1,0.1-0.2,0.1-0.3,0.2s-0.2,0.2-0.2,0.3c-0.1,0.1-0.1,0.3-0.1,0.4v3.7c0,0.1,0,0.3,0.1,0.4
						c0.1,0.1,0.1,0.2,0.2,0.3s0.2,0.2,0.3,0.2c0.1,0.1,0.3,0.1,0.4,0.1h0.6c0.2,0,0.3,0,0.4-0.1c0.1-0.1,0.2-0.1,0.3-0.2
						s0.2-0.2,0.2-0.3c0.1-0.1,0.1-0.3,0.1-0.4v-0.9l1.6,0.3V45.5L618.7,45.5z M629.6,45.5c0,0.4-0.1,0.7-0.2,1
						c-0.1,0.3-0.3,0.6-0.6,0.9c-0.2,0.2-0.5,0.4-0.9,0.6c-0.3,0.1-0.7,0.2-1,0.2h-0.6c-0.4,0-0.7-0.1-1-0.2
						c-0.3-0.1-0.6-0.3-0.9-0.6c-0.2-0.2-0.4-0.5-0.6-0.9c-0.1-0.3-0.2-0.7-0.2-1v-3.6c0-0.4,0.1-0.7,0.2-1c0.1-0.3,0.3-0.6,0.6-0.9
						c0.2-0.2,0.5-0.4,0.9-0.6c0.3-0.1,0.7-0.2,1-0.2h0.6c0.4,0,0.7,0.1,1,0.2c0.3,0.1,0.6,0.3,0.9,0.6c0.2,0.2,0.4,0.5,0.6,0.9
						c0.1,0.3,0.2,0.7,0.2,1v0.6l-1.6,0.3v-0.9c0-0.2,0-0.3-0.1-0.4c-0.1-0.1-0.1-0.2-0.2-0.3s-0.2-0.2-0.3-0.2
						c-0.1-0.1-0.3-0.1-0.4-0.1h-0.6c-0.1,0-0.3,0-0.4,0.1c-0.1,0.1-0.2,0.1-0.3,0.2s-0.2,0.2-0.2,0.3c-0.1,0.1-0.1,0.3-0.1,0.4v3.7
						c0,0.1,0,0.3,0.1,0.4c0.1,0.1,0.1,0.2,0.2,0.3s0.2,0.2,0.3,0.2c0.1,0.1,0.3,0.1,0.4,0.1h0.6c0.2,0,0.3,0,0.4-0.1
						c0.1-0.1,0.2-0.1,0.3-0.2s0.2-0.2,0.2-0.3c0.1-0.1,0.1-0.3,0.1-0.4v-0.9l1.6,0.3V45.5L629.6,45.5z M636.9,45.5
						c0,0.4-0.1,0.7-0.2,1c-0.1,0.3-0.3,0.6-0.6,0.9c-0.2,0.2-0.5,0.4-0.9,0.6c-0.3,0.1-0.7,0.2-1,0.2h-0.6c-0.4,0-0.7-0.1-1-0.2
						c-0.3-0.1-0.6-0.3-0.9-0.6c-0.2-0.2-0.4-0.5-0.6-0.9c-0.1-0.3-0.2-0.7-0.2-1v-3.6c0-0.4,0.1-0.7,0.2-1c0.1-0.3,0.3-0.6,0.6-0.9
						c0.2-0.2,0.5-0.4,0.9-0.6c0.3-0.1,0.7-0.2,1-0.2h0.6c0.4,0,0.7,0.1,1,0.2c0.3,0.1,0.6,0.3,0.9,0.6c0.2,0.2,0.4,0.5,0.6,0.9
						c0.1,0.3,0.2,0.7,0.2,1V45.5L636.9,45.5z M635.3,41.8c0-0.2,0-0.3-0.1-0.4c-0.1-0.1-0.1-0.2-0.2-0.3s-0.2-0.2-0.3-0.2
						c-0.1-0.1-0.3-0.1-0.4-0.1h-0.6c-0.1,0-0.3,0-0.4,0.1c-0.1,0.1-0.2,0.1-0.3,0.2s-0.2,0.2-0.2,0.3c-0.1,0.1-0.1,0.3-0.1,0.4v3.7
						c0,0.1,0,0.3,0.1,0.4c0.1,0.1,0.1,0.2,0.2,0.3s0.2,0.2,0.3,0.2c0.1,0.1,0.3,0.1,0.4,0.1h0.6c0.2,0,0.3,0,0.4-0.1
						c0.1-0.1,0.2-0.1,0.3-0.2s0.2-0.2,0.2-0.3c0.1-0.1,0.1-0.3,0.1-0.4V41.8z M642.5,48v-6.2c0-0.2,0-0.3-0.1-0.4
						c-0.1-0.1-0.1-0.2-0.2-0.3s-0.2-0.2-0.3-0.2c-0.1-0.1-0.3-0.1-0.4-0.1h-0.6c-0.1,0-0.3,0-0.4,0.1c-0.1,0.1-0.2,0.1-0.3,0.2
						s-0.2,0.2-0.2,0.3c-0.1,0.1-0.1,0.3-0.1,0.4V48h-1.6v-8.7h0.8l0.4,0.6c0.1-0.1,0.3-0.2,0.7-0.4c0.4-0.2,0.8-0.3,1.2-0.3h0.2
						c0.4,0,0.7,0.1,1,0.2c0.3,0.1,0.6,0.3,0.9,0.6c0.2,0.2,0.4,0.5,0.6,0.9c0.1,0.3,0.2,0.7,0.2,1V48H642.5z M651.4,45.5
						c0,0.4-0.1,0.7-0.2,1c-0.1,0.3-0.3,0.6-0.6,0.9c-0.2,0.2-0.5,0.4-0.9,0.6c-0.3,0.1-0.7,0.2-1,0.2h-0.6c-0.4,0-0.7-0.1-1-0.2
						c-0.3-0.1-0.6-0.3-0.9-0.6c-0.2-0.2-0.4-0.5-0.6-0.9c-0.1-0.3-0.2-0.7-0.2-1v-3.6c0-0.4,0.1-0.7,0.2-1c0.1-0.3,0.3-0.6,0.6-0.9
						c0.2-0.2,0.5-0.4,0.9-0.6c0.3-0.1,0.7-0.2,1-0.2h0.6c0.4,0,0.7,0.1,1,0.2c0.3,0.1,0.6,0.3,0.9,0.6c0.2,0.2,0.4,0.5,0.6,0.9
						c0.1,0.3,0.2,0.7,0.2,1v0.6l-1.6,0.3v-0.9c0-0.2,0-0.3-0.1-0.4c-0.1-0.1-0.1-0.2-0.2-0.3s-0.2-0.2-0.3-0.2
						c-0.1-0.1-0.3-0.1-0.4-0.1h-0.6c-0.1,0-0.3,0-0.4,0.1c-0.1,0.1-0.2,0.1-0.3,0.2s-0.2,0.2-0.2,0.3c-0.1,0.1-0.1,0.3-0.1,0.4v3.7
						c0,0.1,0,0.3,0.1,0.4c0.1,0.1,0.1,0.2,0.2,0.3s0.2,0.2,0.3,0.2c0.1,0.1,0.3,0.1,0.4,0.1h0.6c0.2,0,0.3,0,0.4-0.1
						c0.1-0.1,0.2-0.1,0.3-0.2s0.2-0.2,0.2-0.3c0.1-0.1,0.1-0.3,0.1-0.4v-0.9l1.6,0.3V45.5L651.4,45.5z M658.7,45.5
						c0,0.4-0.1,0.7-0.2,1c-0.1,0.3-0.3,0.6-0.6,0.9c-0.2,0.2-0.5,0.4-0.9,0.6c-0.3,0.1-0.7,0.2-1,0.2h-0.6c-0.4,0-0.7-0.1-1-0.2
						c-0.3-0.1-0.6-0.3-0.9-0.6c-0.2-0.2-0.4-0.5-0.6-0.9c-0.1-0.3-0.2-0.7-0.2-1v-3.6c0-0.4,0.1-0.7,0.2-1c0.1-0.3,0.3-0.6,0.6-0.9
						c0.2-0.2,0.5-0.4,0.9-0.6c0.3-0.1,0.7-0.2,1-0.2h0.6c0.4,0,0.7,0.1,1,0.2c0.3,0.1,0.6,0.3,0.9,0.6c0.2,0.2,0.4,0.5,0.6,0.9
						c0.1,0.3,0.2,0.7,0.2,1v2.2h-4.4v1.5c0,0.1,0,0.3,0.1,0.4c0.1,0.1,0.1,0.2,0.2,0.3s0.2,0.2,0.3,0.2c0.1,0.1,0.3,0.1,0.4,0.1
						h0.6c0.2,0,0.3,0,0.4-0.1c0.1-0.1,0.2-0.1,0.3-0.2s0.2-0.2,0.2-0.3c0.1-0.1,0.1-0.3,0.1-0.4v-0.9l1.6,0.3V45.5L658.7,45.5z
						 M657.1,41.8c0-0.2,0-0.3-0.1-0.4c-0.1-0.1-0.1-0.2-0.2-0.3s-0.2-0.2-0.3-0.2c-0.1-0.1-0.3-0.1-0.4-0.1h-0.6
						c-0.1,0-0.3,0-0.4,0.1c-0.1,0.1-0.2,0.1-0.3,0.2s-0.2,0.2-0.2,0.3c-0.1,0.1-0.1,0.3-0.1,0.4v0.9h2.8V41.8z M662.6,40.9
						c-0.1,0-0.3,0-0.4,0.1c-0.1,0.1-0.2,0.1-0.3,0.2s-0.2,0.2-0.2,0.3c-0.1,0.1-0.1,0.3-0.1,0.4v6H660v-8.7h0.8l0.4,0.6
						c0.1-0.1,0.3-0.2,0.7-0.4c0.4-0.2,0.8-0.3,1.2-0.3h0.9v1.7H662.6z M668.9,48v-6.2c0-0.2,0-0.3-0.1-0.4
						c-0.1-0.1-0.1-0.2-0.2-0.3s-0.2-0.2-0.3-0.2c-0.1-0.1-0.3-0.1-0.4-0.1h-0.6c-0.1,0-0.3,0-0.4,0.1c-0.1,0.1-0.2,0.1-0.3,0.2
						s-0.2,0.2-0.2,0.3c-0.1,0.1-0.1,0.3-0.1,0.4V48h-1.6v-8.7h0.8l0.4,0.6c0.1-0.1,0.3-0.2,0.7-0.4c0.4-0.2,0.8-0.3,1.2-0.3h0.2
						c0.4,0,0.7,0.1,1,0.2c0.3,0.1,0.6,0.3,0.9,0.6c0.2,0.2,0.4,0.5,0.6,0.9c0.1,0.3,0.2,0.7,0.2,1V48H668.9z M678,45.7
						c0,0.4-0.1,0.7-0.2,1c-0.1,0.3-0.3,0.6-0.6,0.8c-0.2,0.2-0.5,0.4-0.9,0.5c-0.3,0.1-0.7,0.2-1,0.2h-0.6c-0.4,0-0.7-0.1-1-0.2
						c-0.3-0.1-0.6-0.3-0.9-0.6c-0.2-0.2-0.5-0.5-0.6-0.9c-0.1-0.3-0.2-0.7-0.2-1v-0.6l1.6-0.3v0.9c0,0.1,0,0.3,0.1,0.4
						c0.1,0.1,0.1,0.2,0.2,0.3c0.1,0.1,0.2,0.2,0.4,0.2c0.1,0.1,0.3,0.1,0.4,0.1h0.6c0.2,0,0.3,0,0.5-0.1c0.1-0.1,0.3-0.1,0.4-0.2
						c0.1-0.1,0.2-0.2,0.2-0.3c0.1-0.1,0.1-0.2,0.1-0.4c0-0.2,0-0.4-0.1-0.5c-0.1-0.1-0.2-0.3-0.4-0.4c-0.2-0.1-0.4-0.2-0.6-0.3
						c-0.2-0.1-0.5-0.2-0.8-0.2c-0.3-0.1-0.6-0.2-0.9-0.3c-0.3-0.1-0.5-0.3-0.8-0.5c-0.2-0.2-0.4-0.4-0.6-0.7
						c-0.1-0.3-0.2-0.7-0.2-1.1c0-0.4,0.1-0.7,0.2-1c0.1-0.3,0.3-0.6,0.6-0.8c0.2-0.2,0.5-0.4,0.8-0.5c0.3-0.1,0.7-0.2,1-0.2h0.6
						c0.4,0,0.7,0.1,1,0.2c0.3,0.1,0.6,0.3,0.9,0.6c0.2,0.2,0.4,0.5,0.6,0.9c0.1,0.3,0.2,0.7,0.2,1v0.3l-1.6,0.3v-0.6
						c0-0.2,0-0.3-0.1-0.4c-0.1-0.1-0.1-0.2-0.2-0.3s-0.2-0.2-0.3-0.2c-0.1-0.1-0.3-0.1-0.4-0.1h-0.6c-0.2,0-0.3,0-0.4,0.1
						c-0.1,0-0.2,0.1-0.3,0.2c-0.1,0.1-0.2,0.2-0.2,0.3c-0.1,0.1-0.1,0.2-0.1,0.4c0,0.2,0,0.4,0.1,0.5c0.1,0.1,0.2,0.2,0.4,0.3
						c0.2,0.1,0.4,0.2,0.6,0.3c0.2,0.1,0.5,0.2,0.8,0.2c0.3,0.1,0.6,0.2,0.8,0.3c0.3,0.1,0.5,0.3,0.8,0.5c0.2,0.2,0.4,0.4,0.6,0.8
						C677.9,44.9,678,45.2,678,45.7z"/>
					<path class="st3" d="M562.3,67.2h-1l-2-6.3l0.3-0.5l0.3,0.5l-2,6.3h-1l-2.9-8.7h1.7l2,6.3l-0.3,0.5l-0.3-0.5l2-6.3h1.1l1.9,6.3
						l-0.3,0.5l-0.3-0.5l2-6.3h1.7L562.3,67.2z M569.9,67.2V61c0-0.2,0-0.3-0.1-0.4c-0.1-0.1-0.1-0.2-0.2-0.3s-0.2-0.2-0.3-0.2
						c-0.1-0.1-0.3-0.1-0.4-0.1h-0.6c-0.1,0-0.3,0-0.4,0.1c-0.1,0.1-0.2,0.1-0.3,0.2s-0.2,0.2-0.2,0.3c-0.1,0.1-0.1,0.3-0.1,0.4v6.2
						h-1.6V55.4h1.6L567,59c0-0.1,0.1-0.2,0.5-0.4c0.4-0.2,0.7-0.2,1.2-0.2h0.2c0.4,0,0.7,0.1,1,0.2c0.3,0.1,0.6,0.3,0.9,0.6
						c0.2,0.2,0.4,0.5,0.6,0.9c0.1,0.3,0.2,0.7,0.2,1v6.1H569.9z M573,57.3v-1.9h1.8v1.9H573z M573.1,67.2v-8.7h1.6v8.7H573.1z
						 M576.6,67.2V55.4h1.6v11.9H576.6z M586,64.9c0,0.4-0.1,0.7-0.2,1c-0.1,0.3-0.3,0.6-0.6,0.8c-0.2,0.2-0.5,0.4-0.9,0.5
						c-0.3,0.1-0.7,0.2-1,0.2h-0.6c-0.4,0-0.7-0.1-1-0.2c-0.3-0.1-0.6-0.3-0.9-0.6c-0.2-0.2-0.5-0.5-0.6-0.9c-0.1-0.3-0.2-0.7-0.2-1
						v-0.6l1.6-0.3v0.9c0,0.1,0,0.3,0.1,0.4c0.1,0.1,0.1,0.2,0.2,0.3c0.1,0.1,0.2,0.2,0.4,0.2c0.1,0.1,0.3,0.1,0.4,0.1h0.6
						c0.2,0,0.3,0,0.5-0.1c0.1-0.1,0.3-0.1,0.4-0.2c0.1-0.1,0.2-0.2,0.2-0.3c0.1-0.1,0.1-0.2,0.1-0.4c0-0.2,0-0.4-0.1-0.5
						c-0.1-0.1-0.2-0.3-0.4-0.4c-0.2-0.1-0.4-0.2-0.6-0.3c-0.2-0.1-0.5-0.2-0.8-0.2c-0.3-0.1-0.6-0.2-0.9-0.3
						c-0.3-0.1-0.5-0.3-0.8-0.5c-0.2-0.2-0.4-0.4-0.6-0.7c-0.1-0.3-0.2-0.7-0.2-1.1c0-0.4,0.1-0.7,0.2-1c0.1-0.3,0.3-0.6,0.6-0.8
						c0.2-0.2,0.5-0.4,0.8-0.5c0.3-0.1,0.7-0.2,1-0.2h0.6c0.4,0,0.7,0.1,1,0.2c0.3,0.1,0.6,0.3,0.9,0.6c0.2,0.2,0.4,0.5,0.6,0.9
						c0.1,0.3,0.2,0.7,0.2,1v0.3l-1.6,0.3V61c0-0.2,0-0.3-0.1-0.4c-0.1-0.1-0.1-0.2-0.2-0.3s-0.2-0.2-0.3-0.2
						c-0.1-0.1-0.3-0.1-0.4-0.1h-0.6c-0.2,0-0.3,0-0.4,0.1c-0.1,0-0.2,0.1-0.3,0.2c-0.1,0.1-0.2,0.2-0.2,0.3
						c-0.1,0.1-0.1,0.2-0.1,0.4c0,0.2,0,0.4,0.1,0.5c0.1,0.1,0.2,0.2,0.4,0.3c0.2,0.1,0.4,0.2,0.6,0.3s0.5,0.2,0.8,0.2
						c0.3,0.1,0.6,0.2,0.8,0.3c0.3,0.1,0.5,0.3,0.8,0.5c0.2,0.2,0.4,0.4,0.6,0.8C585.9,64.1,586,64.4,586,64.9z M590.4,67.2
						c-0.3,0-0.7-0.1-1-0.2c-0.3-0.1-0.6-0.3-0.8-0.5c-0.2-0.2-0.4-0.5-0.5-0.8c-0.1-0.3-0.2-0.6-0.2-1v-4.7h-1.4v-1.6h1.4v-1.9
						l1.6-0.3v2.1h2v1.6h-2v4.7c0,0.1,0,0.2,0.1,0.3c0.1,0.1,0.1,0.2,0.2,0.2c0.1,0.1,0.2,0.1,0.2,0.2c0.1,0,0.2,0.1,0.3,0.1h1.2
						v1.6H590.4z M599.7,67.2c-0.3,0-0.7-0.1-1-0.2c-0.3-0.1-0.6-0.3-0.8-0.5c-0.2-0.2-0.4-0.5-0.5-0.8c-0.1-0.3-0.2-0.6-0.2-1v-4.7
						h-1.4v-1.6h1.4v-1.9l1.6-0.3v2.1h2v1.6h-2v4.7c0,0.1,0,0.2,0.1,0.3c0.1,0.1,0.1,0.2,0.2,0.2c0.1,0.1,0.2,0.1,0.2,0.2
						c0.1,0,0.2,0.1,0.3,0.1h1.2v1.6H599.7z M604.7,60.1c-0.1,0-0.3,0-0.4,0.1c-0.1,0.1-0.2,0.1-0.3,0.2s-0.2,0.2-0.2,0.3
						c-0.1,0.1-0.1,0.3-0.1,0.4v6H602v-8.7h0.8l0.4,0.6c0.1-0.1,0.3-0.2,0.7-0.4s0.8-0.3,1.2-0.3h0.9v1.7H604.7z M611.8,67.2
						l-0.4-0.6c-0.1,0.1-0.3,0.2-0.7,0.4c-0.4,0.2-0.8,0.3-1.2,0.3h-0.2c-0.4,0-0.7-0.1-1-0.2c-0.3-0.1-0.6-0.3-0.9-0.6
						c-0.2-0.2-0.4-0.5-0.6-0.9c-0.1-0.3-0.2-0.7-0.2-1v-0.1c0-0.4,0.1-0.7,0.2-1c0.1-0.3,0.3-0.6,0.6-0.9c0.2-0.2,0.5-0.4,0.9-0.6
						c0.3-0.1,0.7-0.2,1-0.2h1.7V61c0-0.2,0-0.3-0.1-0.4c-0.1-0.1-0.1-0.2-0.2-0.3s-0.2-0.2-0.3-0.2c-0.1-0.1-0.3-0.1-0.4-0.1h-0.6
						c-0.1,0-0.3,0-0.4,0.1c-0.1,0.1-0.2,0.1-0.3,0.2s-0.2,0.2-0.2,0.3c-0.1,0.1-0.1,0.3-0.1,0.4v0.7l-1.6-0.3v-0.4
						c0-0.4,0.1-0.7,0.2-1c0.1-0.3,0.3-0.6,0.6-0.9c0.2-0.2,0.5-0.4,0.9-0.6c0.3-0.1,0.7-0.2,1-0.2h0.6c0.4,0,0.7,0.1,1,0.2
						c0.3,0.1,0.6,0.3,0.9,0.6c0.2,0.2,0.4,0.5,0.6,0.9c0.1,0.3,0.2,0.7,0.2,1v6.1H611.8z M611,63.3h-1.7c-0.1,0-0.3,0-0.4,0.1
						c-0.1,0.1-0.2,0.1-0.3,0.2s-0.2,0.2-0.2,0.3c-0.1,0.1-0.1,0.3-0.1,0.4v0.3c0,0.1,0,0.3,0.1,0.4c0.1,0.1,0.1,0.2,0.2,0.3
						s0.2,0.2,0.3,0.2c0.1,0.1,0.3,0.1,0.4,0.1h0.6c0.2,0,0.3,0,0.4-0.1c0.1-0.1,0.2-0.1,0.3-0.2s0.2-0.2,0.2-0.3
						c0.1-0.1,0.1-0.3,0.1-0.4V63.3z M616.9,67.2H616l-3.1-8.7h1.7l2.2,6.3l-0.3,0.5l-0.3-0.5l2.2-6.3h1.7L616.9,67.2z M626.3,64.7
						c0,0.4-0.1,0.7-0.2,1c-0.1,0.3-0.3,0.6-0.6,0.9c-0.2,0.2-0.5,0.4-0.9,0.6c-0.3,0.1-0.7,0.2-1,0.2H623c-0.4,0-0.7-0.1-1-0.2
						c-0.3-0.1-0.6-0.3-0.9-0.6c-0.2-0.2-0.4-0.5-0.6-0.9c-0.1-0.3-0.2-0.7-0.2-1v-3.6c0-0.4,0.1-0.7,0.2-1c0.1-0.3,0.3-0.6,0.6-0.9
						c0.2-0.2,0.5-0.4,0.9-0.6c0.3-0.1,0.7-0.2,1-0.2h0.6c0.4,0,0.7,0.1,1,0.2c0.3,0.1,0.6,0.3,0.9,0.6c0.2,0.2,0.4,0.5,0.6,0.9
						c0.1,0.3,0.2,0.7,0.2,1v2.2h-4.4v1.5c0,0.1,0,0.3,0.1,0.4c0.1,0.1,0.1,0.2,0.2,0.3s0.2,0.2,0.3,0.2c0.1,0.1,0.3,0.1,0.4,0.1
						h0.6c0.2,0,0.3,0,0.4-0.1c0.1-0.1,0.2-0.1,0.3-0.2s0.2-0.2,0.2-0.3c0.1-0.1,0.1-0.3,0.1-0.4v-0.9l1.6,0.3V64.7L626.3,64.7z
						 M624.7,61c0-0.2,0-0.3-0.1-0.4c-0.1-0.1-0.1-0.2-0.2-0.3s-0.2-0.2-0.3-0.2c-0.1-0.1-0.3-0.1-0.4-0.1H623c-0.1,0-0.3,0-0.4,0.1
						c-0.1,0.1-0.2,0.1-0.3,0.2s-0.2,0.2-0.2,0.3c-0.1,0.1-0.1,0.3-0.1,0.4v0.9h2.8V61z M627.9,67.2V55.4h1.6v11.9H627.9z
						 M631.4,67.2V55.4h1.6v11.9H631.4z M634.9,57.3v-1.9h1.8v1.9H634.9z M634.9,67.2v-8.7h1.6v8.7H634.9z M642.5,67.2V61
						c0-0.2,0-0.3-0.1-0.4c-0.1-0.1-0.1-0.2-0.2-0.3s-0.2-0.2-0.3-0.2c-0.1-0.1-0.3-0.1-0.4-0.1h-0.6c-0.1,0-0.3,0-0.4,0.1
						c-0.1,0.1-0.2,0.1-0.3,0.2s-0.2,0.2-0.2,0.3c-0.1,0.1-0.1,0.3-0.1,0.4v6.2h-1.6v-8.7h0.8l0.4,0.6c0.1-0.1,0.3-0.2,0.7-0.4
						s0.8-0.3,1.2-0.3h0.2c0.4,0,0.7,0.1,1,0.2c0.3,0.1,0.6,0.3,0.9,0.6c0.2,0.2,0.4,0.5,0.6,0.9c0.1,0.3,0.2,0.7,0.2,1v6.1H642.5z
						 M651.5,67.9c0,0.4-0.1,0.7-0.2,1c-0.1,0.3-0.3,0.6-0.6,0.8c-0.2,0.2-0.5,0.4-0.8,0.5c-0.3,0.1-0.7,0.2-1,0.2h-0.4
						c-0.4,0-0.7-0.1-1-0.2c-0.3-0.1-0.6-0.3-0.9-0.5c-0.2-0.2-0.4-0.5-0.6-0.8c-0.1-0.3-0.2-0.7-0.2-1v0c0-0.4,0.1-0.7,0.2-1
						c0.1-0.3,0.2-0.5,0.3-0.5c-0.1,0-0.2-0.2-0.4-0.5c-0.2-0.3-0.2-0.6-0.2-1c0-0.3,0.1-0.6,0.2-0.9c0.1-0.3,0.2-0.4,0.3-0.5
						c-0.1-0.1-0.3-0.3-0.4-0.6c-0.2-0.4-0.2-0.7-0.2-1.2v-0.6c0-0.4,0.1-0.7,0.2-1c0.1-0.3,0.3-0.6,0.6-0.9
						c0.2-0.2,0.5-0.4,0.9-0.6c0.3-0.1,0.7-0.2,1-0.2h0.4c0.4,0,0.8,0.1,1.2,0.3c0.4,0.2,0.6,0.3,0.7,0.4l0.3-0.6h0.8v3.1
						c0,0.4-0.1,0.7-0.2,1c-0.1,0.3-0.3,0.6-0.6,0.9c-0.2,0.2-0.5,0.4-0.9,0.6c-0.3,0.1-0.7,0.2-1,0.2h-1.4c-0.1,0-0.1,0-0.2,0
						s-0.1,0.1-0.2,0.1c0,0-0.1,0.1-0.1,0.2c0,0.1,0,0.1,0,0.2c0,0.1,0,0.1,0,0.2c0,0.1,0.1,0.1,0.1,0.2c0.1,0,0.1,0.1,0.2,0.1
						c0.1,0,0.1,0,0.2,0h1.3c0.4,0,0.7,0.1,1,0.2c0.3,0.1,0.6,0.3,0.8,0.5c0.2,0.2,0.4,0.5,0.6,0.8
						C651.4,67.2,651.5,67.5,651.5,67.9L651.5,67.9L651.5,67.9z M650,61c0-0.2,0-0.3-0.1-0.4c-0.1-0.1-0.1-0.2-0.2-0.3
						c-0.1-0.1-0.2-0.2-0.3-0.2c-0.1-0.1-0.3-0.1-0.4-0.1h-0.8c-0.1,0-0.3,0-0.4,0.1c-0.1,0.1-0.2,0.1-0.3,0.2s-0.2,0.2-0.2,0.3
						c-0.1,0.1-0.1,0.3-0.1,0.4v0.7c0,0.2,0,0.3,0.1,0.4c0.1,0.1,0.1,0.2,0.2,0.3s0.2,0.2,0.3,0.2c0.1,0.1,0.3,0.1,0.4,0.1h0.8
						c0.2,0,0.3,0,0.4-0.1c0.1-0.1,0.2-0.1,0.3-0.2c0.1-0.1,0.2-0.2,0.2-0.3c0.1-0.1,0.1-0.3,0.1-0.4V61z M649.9,67.8
						c0-0.1,0-0.3-0.1-0.4c-0.1-0.1-0.1-0.2-0.2-0.3c-0.1-0.1-0.2-0.1-0.3-0.2c-0.1-0.1-0.3-0.1-0.4-0.1h-0.5c-0.2,0-0.3,0-0.4,0.1
						c-0.1,0-0.2,0.1-0.3,0.2c-0.1,0.1-0.2,0.2-0.2,0.3c-0.1,0.1-0.1,0.2-0.1,0.4V68c0,0.1,0,0.3,0.1,0.4c0.1,0.1,0.1,0.2,0.2,0.3
						c0.1,0.1,0.2,0.1,0.3,0.2c0.1,0.1,0.3,0.1,0.4,0.1h0.5c0.2,0,0.3,0,0.4-0.1c0.1,0,0.2-0.1,0.3-0.2c0.1-0.1,0.2-0.2,0.2-0.3
						c0.1-0.1,0.1-0.2,0.1-0.4V67.8z"/>
				</g>
			</g>
		</g>
		<g id="p.2_00000011003846794849942220000006742263385482463398_">
			<path class="st2" d="M517.9,21.7h170v58.2h-170V21.7z"/>
			<path class="st3" d="M535.8,38.6c0,0.4-0.1,0.8-0.2,1.2c-0.2,0.4-0.4,0.7-0.7,1s-0.6,0.5-1,0.7s-0.8,0.2-1.2,0.2h-2.2V46h-1.7
				V34.2h3.9c0.4,0,0.8,0.1,1.2,0.2s0.7,0.4,1,0.7s0.5,0.6,0.7,1c0.2,0.4,0.2,0.8,0.2,1.2V38.6L535.8,38.6z M534.1,37.2
				c0-0.2,0-0.4-0.1-0.6c-0.1-0.2-0.2-0.3-0.3-0.5c-0.1-0.1-0.3-0.2-0.5-0.3c-0.2-0.1-0.4-0.1-0.6-0.1h-2.2v4.3h2.2
				c0.2,0,0.4,0,0.6-0.1c0.2-0.1,0.3-0.2,0.5-0.3c0.1-0.1,0.2-0.3,0.3-0.5c0.1-0.2,0.1-0.4,0.1-0.6V37.2z M542.7,43.5
				c0,0.4-0.1,0.7-0.2,1c-0.1,0.3-0.3,0.6-0.6,0.9c-0.2,0.2-0.5,0.4-0.9,0.6c-0.3,0.1-0.7,0.2-1,0.2h-0.6c-0.4,0-0.7-0.1-1-0.2
				c-0.3-0.1-0.6-0.3-0.9-0.6c-0.2-0.2-0.4-0.5-0.6-0.9c-0.1-0.3-0.2-0.7-0.2-1v-3.6c0-0.4,0.1-0.7,0.2-1c0.1-0.3,0.3-0.6,0.6-0.9
				c0.2-0.2,0.5-0.4,0.9-0.6c0.3-0.1,0.7-0.2,1-0.2h0.6c0.4,0,0.7,0.1,1,0.2c0.3,0.1,0.6,0.3,0.9,0.6c0.2,0.2,0.4,0.5,0.6,0.9
				c0.1,0.3,0.2,0.7,0.2,1V43.5L542.7,43.5z M541.1,39.8c0-0.2,0-0.3-0.1-0.4c-0.1-0.1-0.1-0.2-0.2-0.3s-0.2-0.2-0.3-0.2
				c-0.1-0.1-0.3-0.1-0.4-0.1h-0.6c-0.1,0-0.3,0-0.4,0.1c-0.1,0.1-0.2,0.1-0.3,0.2s-0.2,0.2-0.2,0.3c-0.1,0.1-0.1,0.3-0.1,0.4v3.7
				c0,0.1,0,0.3,0.1,0.4c0.1,0.1,0.1,0.2,0.2,0.3s0.2,0.2,0.3,0.2c0.1,0.1,0.3,0.1,0.4,0.1h0.6c0.2,0,0.3,0,0.4-0.1
				c0.1-0.1,0.2-0.1,0.3-0.2s0.2-0.2,0.2-0.3c0.1-0.1,0.1-0.3,0.1-0.4V39.8z M550.2,43.7c0,0.4-0.1,0.7-0.2,1
				c-0.1,0.3-0.3,0.6-0.6,0.8c-0.2,0.2-0.5,0.4-0.9,0.5c-0.3,0.1-0.7,0.2-1,0.2h-0.6c-0.4,0-0.7-0.1-1-0.2c-0.3-0.1-0.6-0.3-0.9-0.6
				c-0.2-0.2-0.5-0.5-0.6-0.9c-0.1-0.3-0.2-0.7-0.2-1v-0.6l1.6-0.3v0.9c0,0.1,0,0.3,0.1,0.4c0.1,0.1,0.1,0.2,0.2,0.3
				c0.1,0.1,0.2,0.2,0.4,0.2c0.1,0.1,0.3,0.1,0.4,0.1h0.6c0.2,0,0.3,0,0.5-0.1c0.1-0.1,0.3-0.1,0.4-0.2c0.1-0.1,0.2-0.2,0.2-0.3
				c0.1-0.1,0.1-0.2,0.1-0.4c0-0.2,0-0.4-0.1-0.5c-0.1-0.1-0.2-0.3-0.4-0.4c-0.2-0.1-0.4-0.2-0.6-0.3c-0.2-0.1-0.5-0.2-0.8-0.2
				c-0.3-0.1-0.6-0.2-0.9-0.3c-0.3-0.1-0.5-0.3-0.8-0.5c-0.2-0.2-0.4-0.4-0.6-0.7c-0.1-0.3-0.2-0.7-0.2-1.1c0-0.4,0.1-0.7,0.2-1
				c0.1-0.3,0.3-0.6,0.6-0.8c0.2-0.2,0.5-0.4,0.8-0.5c0.3-0.1,0.7-0.2,1-0.2h0.6c0.4,0,0.7,0.1,1,0.2c0.3,0.1,0.6,0.3,0.9,0.6
				c0.2,0.2,0.4,0.5,0.6,0.9c0.1,0.3,0.2,0.7,0.2,1v0.3l-1.6,0.3v-0.6c0-0.2,0-0.3-0.1-0.4c-0.1-0.1-0.1-0.2-0.2-0.3
				s-0.2-0.2-0.3-0.2c-0.1-0.1-0.3-0.1-0.4-0.1h-0.6c-0.2,0-0.3,0-0.4,0.1c-0.1,0-0.2,0.1-0.3,0.2c-0.1,0.1-0.2,0.2-0.2,0.3
				c-0.1,0.1-0.1,0.2-0.1,0.4c0,0.2,0,0.4,0.1,0.5c0.1,0.1,0.2,0.2,0.4,0.3c0.2,0.1,0.4,0.2,0.6,0.3c0.2,0.1,0.5,0.2,0.8,0.2
				c0.3,0.1,0.6,0.2,0.8,0.3c0.3,0.1,0.5,0.3,0.8,0.5c0.2,0.2,0.4,0.4,0.6,0.8C550.1,42.9,550.2,43.2,550.2,43.7z M554.6,46
				c-0.3,0-0.7-0.1-1-0.2c-0.3-0.1-0.6-0.3-0.8-0.5c-0.2-0.2-0.4-0.5-0.5-0.8c-0.1-0.3-0.2-0.6-0.2-1v-4.7h-1.4v-1.6h1.4v-1.9
				l1.6-0.3v2.1h2v1.6h-2v4.7c0,0.1,0,0.2,0.1,0.3c0.1,0.1,0.1,0.2,0.2,0.2c0.1,0.1,0.2,0.1,0.2,0.2c0.1,0,0.2,0.1,0.3,0.1h1.2V46
				H554.6z M556.7,41.1v-1.6h3.7v1.6H556.7z M567.5,43.5c0,0.4-0.1,0.7-0.2,1c-0.1,0.3-0.3,0.6-0.6,0.9c-0.2,0.2-0.5,0.4-0.9,0.6
				c-0.3,0.1-0.7,0.2-1,0.2h-0.2c-0.4,0-0.8-0.1-1.2-0.2c-0.3-0.2-0.5-0.3-0.5-0.4l0.1,3.7h-1.6V37.4h0.8l0.4,0.6
				c0.1-0.1,0.3-0.2,0.7-0.4c0.4-0.2,0.8-0.3,1.2-0.3h0.2c0.4,0,0.7,0.1,1,0.2c0.3,0.1,0.6,0.3,0.9,0.6c0.2,0.2,0.4,0.5,0.6,0.9
				c0.1,0.3,0.2,0.7,0.2,1V43.5L567.5,43.5z M565.9,39.8c0-0.2,0-0.3-0.1-0.4c-0.1-0.1-0.1-0.2-0.2-0.3s-0.2-0.2-0.3-0.2
				c-0.1-0.1-0.3-0.1-0.4-0.1h-0.6c-0.1,0-0.3,0-0.4,0.1c-0.1,0.1-0.2,0.1-0.3,0.2s-0.2,0.2-0.2,0.3c-0.1,0.1-0.1,0.3-0.1,0.4v3.7
				c0,0.1,0,0.3,0.1,0.4c0.1,0.1,0.1,0.2,0.2,0.3s0.2,0.2,0.3,0.2c0.1,0.1,0.3,0.1,0.4,0.1h0.6c0.2,0,0.3,0,0.4-0.1
				c0.1-0.1,0.2-0.1,0.3-0.2s0.2-0.2,0.2-0.3c0.1-0.1,0.1-0.3,0.1-0.4V39.8z M573.9,46l-0.4-0.6c-0.1,0.1-0.3,0.2-0.7,0.4
				c-0.4,0.2-0.8,0.3-1.2,0.3h-0.2c-0.4,0-0.7-0.1-1-0.2c-0.3-0.1-0.6-0.3-0.9-0.6c-0.2-0.2-0.4-0.5-0.6-0.9c-0.1-0.3-0.2-0.7-0.2-1
				v-0.1c0-0.4,0.1-0.7,0.2-1c0.1-0.3,0.3-0.6,0.6-0.9c0.2-0.2,0.5-0.4,0.9-0.6c0.3-0.1,0.7-0.2,1-0.2h1.7v-0.9c0-0.2,0-0.3-0.1-0.4
				c-0.1-0.1-0.1-0.2-0.2-0.3s-0.2-0.2-0.3-0.2c-0.1-0.1-0.3-0.1-0.4-0.1h-0.6c-0.1,0-0.3,0-0.4,0.1c-0.1,0.1-0.2,0.1-0.3,0.2
				s-0.2,0.2-0.2,0.3c-0.1,0.1-0.1,0.3-0.1,0.4v0.7l-1.6-0.3v-0.4c0-0.4,0.1-0.7,0.2-1c0.1-0.3,0.3-0.6,0.6-0.9
				c0.2-0.2,0.5-0.4,0.9-0.6c0.3-0.1,0.7-0.2,1-0.2h0.6c0.4,0,0.7,0.1,1,0.2c0.3,0.1,0.6,0.3,0.9,0.6c0.2,0.2,0.4,0.5,0.6,0.9
				c0.1,0.3,0.2,0.7,0.2,1V46H573.9z M573.1,42.1h-1.7c-0.1,0-0.3,0-0.4,0.1c-0.1,0.1-0.2,0.1-0.3,0.2s-0.2,0.2-0.2,0.3
				c-0.1,0.1-0.1,0.3-0.1,0.4v0.3c0,0.1,0,0.3,0.1,0.4c0.1,0.1,0.1,0.2,0.2,0.3s0.2,0.2,0.3,0.2c0.1,0.1,0.3,0.1,0.4,0.1h0.6
				c0.2,0,0.3,0,0.4-0.1c0.1-0.1,0.2-0.1,0.3-0.2s0.2-0.2,0.2-0.3c0.1-0.1,0.1-0.3,0.1-0.4V42.1z M580.4,46v-6.2
				c0-0.2,0-0.3-0.1-0.4c-0.1-0.1-0.1-0.2-0.2-0.3s-0.2-0.2-0.3-0.2c-0.1-0.1-0.3-0.1-0.4-0.1h-0.6c-0.1,0-0.3,0-0.4,0.1
				c-0.1,0.1-0.2,0.1-0.3,0.2s-0.2,0.2-0.2,0.3c-0.1,0.1-0.1,0.3-0.1,0.4V46H576v-8.7h0.8l0.4,0.6c0.1-0.1,0.3-0.2,0.7-0.4
				c0.4-0.2,0.8-0.3,1.2-0.3h0.2c0.4,0,0.7,0.1,1,0.2c0.3,0.1,0.6,0.3,0.9,0.6c0.2,0.2,0.4,0.5,0.6,0.9c0.1,0.3,0.2,0.7,0.2,1V46
				H580.4z M588.5,46l-0.4-0.6c-0.1,0.1-0.3,0.2-0.7,0.4c-0.4,0.2-0.8,0.3-1.2,0.3H586c-0.4,0-0.7-0.1-1-0.2
				c-0.3-0.1-0.6-0.3-0.9-0.6c-0.2-0.2-0.4-0.5-0.6-0.9c-0.1-0.3-0.2-0.7-0.2-1v-3.6c0-0.4,0.1-0.7,0.2-1c0.1-0.3,0.3-0.6,0.6-0.9
				c0.2-0.2,0.5-0.4,0.9-0.6c0.3-0.1,0.7-0.2,1-0.2h0.2c0.4,0,0.8,0.1,1.1,0.2c0.4,0.2,0.5,0.3,0.5,0.4l-0.1-3.7h1.6V46H588.5z
				 M587.7,39.8c0-0.2,0-0.3-0.1-0.4c-0.1-0.1-0.1-0.2-0.2-0.3s-0.2-0.2-0.3-0.2c-0.1-0.1-0.3-0.1-0.4-0.1H586c-0.1,0-0.3,0-0.4,0.1
				c-0.1,0.1-0.2,0.1-0.3,0.2s-0.2,0.2-0.2,0.3c-0.1,0.1-0.1,0.3-0.1,0.4v3.7c0,0.1,0,0.3,0.1,0.4c0.1,0.1,0.1,0.2,0.2,0.3
				s0.2,0.2,0.3,0.2c0.1,0.1,0.3,0.1,0.4,0.1h0.6c0.2,0,0.3,0,0.4-0.1c0.1-0.1,0.2-0.1,0.3-0.2s0.2-0.2,0.2-0.3
				c0.1-0.1,0.1-0.3,0.1-0.4V39.8z M596.6,43.5c0,0.4-0.1,0.7-0.2,1c-0.1,0.3-0.3,0.6-0.6,0.9c-0.2,0.2-0.5,0.4-0.9,0.6
				c-0.3,0.1-0.7,0.2-1,0.2h-0.6c-0.4,0-0.7-0.1-1-0.2c-0.3-0.1-0.6-0.3-0.9-0.6c-0.2-0.2-0.4-0.5-0.6-0.9c-0.1-0.3-0.2-0.7-0.2-1
				v-3.6c0-0.4,0.1-0.7,0.2-1c0.1-0.3,0.3-0.6,0.6-0.9c0.2-0.2,0.5-0.4,0.9-0.6c0.3-0.1,0.7-0.2,1-0.2h0.6c0.4,0,0.7,0.1,1,0.2
				c0.3,0.1,0.6,0.3,0.9,0.6c0.2,0.2,0.4,0.5,0.6,0.9c0.1,0.3,0.2,0.7,0.2,1v2.2h-4.4v1.5c0,0.1,0,0.3,0.1,0.4
				c0.1,0.1,0.1,0.2,0.2,0.3s0.2,0.2,0.3,0.2c0.1,0.1,0.3,0.1,0.4,0.1h0.6c0.2,0,0.3,0,0.4-0.1c0.1-0.1,0.2-0.1,0.3-0.2
				s0.2-0.2,0.2-0.3c0.1-0.1,0.1-0.3,0.1-0.4v-0.9l1.6,0.3V43.5L596.6,43.5z M594.9,39.8c0-0.2,0-0.3-0.1-0.4
				c-0.1-0.1-0.1-0.2-0.2-0.3s-0.2-0.2-0.3-0.2c-0.1-0.1-0.3-0.1-0.4-0.1h-0.6c-0.1,0-0.3,0-0.4,0.1c-0.1,0.1-0.2,0.1-0.3,0.2
				s-0.2,0.2-0.2,0.3c-0.1,0.1-0.1,0.3-0.1,0.4v0.9h2.8V39.8z M606.3,46v-6.2c0-0.2,0-0.3-0.1-0.4c-0.1-0.1-0.1-0.2-0.2-0.3
				s-0.2-0.2-0.3-0.2c-0.1-0.1-0.3-0.1-0.4-0.1h-0.5c-0.2,0-0.3,0-0.4,0.1c-0.1,0.1-0.2,0.1-0.3,0.2c-0.1,0.1-0.2,0.2-0.2,0.3
				c-0.1,0.1-0.1,0.3-0.1,0.4V46h-1.6v-6.2c0-0.2,0-0.3-0.1-0.4c-0.1-0.1-0.1-0.2-0.2-0.3s-0.2-0.2-0.3-0.2
				c-0.1-0.1-0.3-0.1-0.4-0.1h-0.5c-0.1,0-0.3,0-0.4,0.1c-0.1,0.1-0.2,0.1-0.3,0.2s-0.2,0.2-0.2,0.3c-0.1,0.1-0.1,0.3-0.1,0.4V46
				h-1.6v-8.7h0.8l0.4,0.6c0.1-0.1,0.3-0.2,0.7-0.4c0.4-0.2,0.8-0.3,1.2-0.3h0.1c0.5,0,1,0.1,1.4,0.4c0.4,0.2,0.6,0.5,0.7,0.8
				c-0.1-0.1,0-0.2,0.1-0.4c0.2-0.2,0.3-0.3,0.5-0.4c0.2-0.1,0.4-0.2,0.7-0.3c0.2-0.1,0.5-0.1,0.7-0.1h0.1c0.4,0,0.7,0.1,1,0.2
				c0.3,0.1,0.6,0.3,0.9,0.6c0.2,0.2,0.4,0.5,0.6,0.9c0.1,0.3,0.2,0.7,0.2,1V46H606.3z M609.4,36.1v-1.9h1.8v1.9H609.4z M609.5,46
				v-8.7h1.6V46H609.5z M618.7,43.5c0,0.4-0.1,0.7-0.2,1c-0.1,0.3-0.3,0.6-0.6,0.9c-0.2,0.2-0.5,0.4-0.9,0.6c-0.3,0.1-0.7,0.2-1,0.2
				h-0.6c-0.4,0-0.7-0.1-1-0.2c-0.3-0.1-0.6-0.3-0.9-0.6c-0.2-0.2-0.4-0.5-0.6-0.9c-0.1-0.3-0.2-0.7-0.2-1v-3.6c0-0.4,0.1-0.7,0.2-1
				c0.1-0.3,0.3-0.6,0.6-0.9c0.2-0.2,0.5-0.4,0.9-0.6c0.3-0.1,0.7-0.2,1-0.2h0.6c0.4,0,0.7,0.1,1,0.2c0.3,0.1,0.6,0.3,0.9,0.6
				c0.2,0.2,0.4,0.5,0.6,0.9c0.1,0.3,0.2,0.7,0.2,1v0.6l-1.6,0.3v-0.9c0-0.2,0-0.3-0.1-0.4c-0.1-0.1-0.1-0.2-0.2-0.3
				s-0.2-0.2-0.3-0.2c-0.1-0.1-0.3-0.1-0.4-0.1h-0.6c-0.1,0-0.3,0-0.4,0.1c-0.1,0.1-0.2,0.1-0.3,0.2s-0.2,0.2-0.2,0.3
				c-0.1,0.1-0.1,0.3-0.1,0.4v3.7c0,0.1,0,0.3,0.1,0.4c0.1,0.1,0.1,0.2,0.2,0.3s0.2,0.2,0.3,0.2c0.1,0.1,0.3,0.1,0.4,0.1h0.6
				c0.2,0,0.3,0,0.4-0.1c0.1-0.1,0.2-0.1,0.3-0.2s0.2-0.2,0.2-0.3c0.1-0.1,0.1-0.3,0.1-0.4v-0.9l1.6,0.3V43.5L618.7,43.5z
				 M629.6,43.5c0,0.4-0.1,0.7-0.2,1c-0.1,0.3-0.3,0.6-0.6,0.9c-0.2,0.2-0.5,0.4-0.9,0.6c-0.3,0.1-0.7,0.2-1,0.2h-0.6
				c-0.4,0-0.7-0.1-1-0.2c-0.3-0.1-0.6-0.3-0.9-0.6c-0.2-0.2-0.4-0.5-0.6-0.9c-0.1-0.3-0.2-0.7-0.2-1v-3.6c0-0.4,0.1-0.7,0.2-1
				c0.1-0.3,0.3-0.6,0.6-0.9c0.2-0.2,0.5-0.4,0.9-0.6c0.3-0.1,0.7-0.2,1-0.2h0.6c0.4,0,0.7,0.1,1,0.2c0.3,0.1,0.6,0.3,0.9,0.6
				c0.2,0.2,0.4,0.5,0.6,0.9c0.1,0.3,0.2,0.7,0.2,1v0.6l-1.6,0.3v-0.9c0-0.2,0-0.3-0.1-0.4c-0.1-0.1-0.1-0.2-0.2-0.3
				s-0.2-0.2-0.3-0.2c-0.1-0.1-0.3-0.1-0.4-0.1h-0.6c-0.1,0-0.3,0-0.4,0.1c-0.1,0.1-0.2,0.1-0.3,0.2s-0.2,0.2-0.2,0.3
				c-0.1,0.1-0.1,0.3-0.1,0.4v3.7c0,0.1,0,0.3,0.1,0.4c0.1,0.1,0.1,0.2,0.2,0.3s0.2,0.2,0.3,0.2c0.1,0.1,0.3,0.1,0.4,0.1h0.6
				c0.2,0,0.3,0,0.4-0.1c0.1-0.1,0.2-0.1,0.3-0.2s0.2-0.2,0.2-0.3c0.1-0.1,0.1-0.3,0.1-0.4v-0.9l1.6,0.3V43.5L629.6,43.5z
				 M636.9,43.5c0,0.4-0.1,0.7-0.2,1c-0.1,0.3-0.3,0.6-0.6,0.9c-0.2,0.2-0.5,0.4-0.9,0.6c-0.3,0.1-0.7,0.2-1,0.2h-0.6
				c-0.4,0-0.7-0.1-1-0.2c-0.3-0.1-0.6-0.3-0.9-0.6c-0.2-0.2-0.4-0.5-0.6-0.9c-0.1-0.3-0.2-0.7-0.2-1v-3.6c0-0.4,0.1-0.7,0.2-1
				c0.1-0.3,0.3-0.6,0.6-0.9c0.2-0.2,0.5-0.4,0.9-0.6c0.3-0.1,0.7-0.2,1-0.2h0.6c0.4,0,0.7,0.1,1,0.2c0.3,0.1,0.6,0.3,0.9,0.6
				c0.2,0.2,0.4,0.5,0.6,0.9c0.1,0.3,0.2,0.7,0.2,1V43.5L636.9,43.5z M635.3,39.8c0-0.2,0-0.3-0.1-0.4c-0.1-0.1-0.1-0.2-0.2-0.3
				s-0.2-0.2-0.3-0.2c-0.1-0.1-0.3-0.1-0.4-0.1h-0.6c-0.1,0-0.3,0-0.4,0.1c-0.1,0.1-0.2,0.1-0.3,0.2s-0.2,0.2-0.2,0.3
				c-0.1,0.1-0.1,0.3-0.1,0.4v3.7c0,0.1,0,0.3,0.1,0.4c0.1,0.1,0.1,0.2,0.2,0.3s0.2,0.2,0.3,0.2c0.1,0.1,0.3,0.1,0.4,0.1h0.6
				c0.2,0,0.3,0,0.4-0.1c0.1-0.1,0.2-0.1,0.3-0.2s0.2-0.2,0.2-0.3c0.1-0.1,0.1-0.3,0.1-0.4V39.8z M642.5,46v-6.2
				c0-0.2,0-0.3-0.1-0.4c-0.1-0.1-0.1-0.2-0.2-0.3s-0.2-0.2-0.3-0.2c-0.1-0.1-0.3-0.1-0.4-0.1h-0.6c-0.1,0-0.3,0-0.4,0.1
				c-0.1,0.1-0.2,0.1-0.3,0.2s-0.2,0.2-0.2,0.3c-0.1,0.1-0.1,0.3-0.1,0.4V46h-1.6v-8.7h0.8l0.4,0.6c0.1-0.1,0.3-0.2,0.7-0.4
				c0.4-0.2,0.8-0.3,1.2-0.3h0.2c0.4,0,0.7,0.1,1,0.2c0.3,0.1,0.6,0.3,0.9,0.6c0.2,0.2,0.4,0.5,0.6,0.9c0.1,0.3,0.2,0.7,0.2,1V46
				H642.5z M651.4,43.5c0,0.4-0.1,0.7-0.2,1c-0.1,0.3-0.3,0.6-0.6,0.9c-0.2,0.2-0.5,0.4-0.9,0.6c-0.3,0.1-0.7,0.2-1,0.2h-0.6
				c-0.4,0-0.7-0.1-1-0.2c-0.3-0.1-0.6-0.3-0.9-0.6c-0.2-0.2-0.4-0.5-0.6-0.9c-0.1-0.3-0.2-0.7-0.2-1v-3.6c0-0.4,0.1-0.7,0.2-1
				c0.1-0.3,0.3-0.6,0.6-0.9c0.2-0.2,0.5-0.4,0.9-0.6c0.3-0.1,0.7-0.2,1-0.2h0.6c0.4,0,0.7,0.1,1,0.2c0.3,0.1,0.6,0.3,0.9,0.6
				c0.2,0.2,0.4,0.5,0.6,0.9c0.1,0.3,0.2,0.7,0.2,1v0.6l-1.6,0.3v-0.9c0-0.2,0-0.3-0.1-0.4c-0.1-0.1-0.1-0.2-0.2-0.3
				s-0.2-0.2-0.3-0.2c-0.1-0.1-0.3-0.1-0.4-0.1h-0.6c-0.1,0-0.3,0-0.4,0.1c-0.1,0.1-0.2,0.1-0.3,0.2s-0.2,0.2-0.2,0.3
				c-0.1,0.1-0.1,0.3-0.1,0.4v3.7c0,0.1,0,0.3,0.1,0.4c0.1,0.1,0.1,0.2,0.2,0.3s0.2,0.2,0.3,0.2c0.1,0.1,0.3,0.1,0.4,0.1h0.6
				c0.2,0,0.3,0,0.4-0.1c0.1-0.1,0.2-0.1,0.3-0.2s0.2-0.2,0.2-0.3c0.1-0.1,0.1-0.3,0.1-0.4v-0.9l1.6,0.3V43.5L651.4,43.5z
				 M658.7,43.5c0,0.4-0.1,0.7-0.2,1c-0.1,0.3-0.3,0.6-0.6,0.9c-0.2,0.2-0.5,0.4-0.9,0.6c-0.3,0.1-0.7,0.2-1,0.2h-0.6
				c-0.4,0-0.7-0.1-1-0.2c-0.3-0.1-0.6-0.3-0.9-0.6c-0.2-0.2-0.4-0.5-0.6-0.9c-0.1-0.3-0.2-0.7-0.2-1v-3.6c0-0.4,0.1-0.7,0.2-1
				c0.1-0.3,0.3-0.6,0.6-0.9c0.2-0.2,0.5-0.4,0.9-0.6c0.3-0.1,0.7-0.2,1-0.2h0.6c0.4,0,0.7,0.1,1,0.2c0.3,0.1,0.6,0.3,0.9,0.6
				c0.2,0.2,0.4,0.5,0.6,0.9c0.1,0.3,0.2,0.7,0.2,1v2.2h-4.4v1.5c0,0.1,0,0.3,0.1,0.4c0.1,0.1,0.1,0.2,0.2,0.3s0.2,0.2,0.3,0.2
				c0.1,0.1,0.3,0.1,0.4,0.1h0.6c0.2,0,0.3,0,0.4-0.1c0.1-0.1,0.2-0.1,0.3-0.2s0.2-0.2,0.2-0.3c0.1-0.1,0.1-0.3,0.1-0.4v-0.9
				l1.6,0.3V43.5L658.7,43.5z M657.1,39.8c0-0.2,0-0.3-0.1-0.4c-0.1-0.1-0.1-0.2-0.2-0.3s-0.2-0.2-0.3-0.2c-0.1-0.1-0.3-0.1-0.4-0.1
				h-0.6c-0.1,0-0.3,0-0.4,0.1c-0.1,0.1-0.2,0.1-0.3,0.2s-0.2,0.2-0.2,0.3c-0.1,0.1-0.1,0.3-0.1,0.4v0.9h2.8V39.8z M662.6,38.9
				c-0.1,0-0.3,0-0.4,0.1c-0.1,0.1-0.2,0.1-0.3,0.2s-0.2,0.2-0.2,0.3c-0.1,0.1-0.1,0.3-0.1,0.4v6H660v-8.7h0.8l0.4,0.6
				c0.1-0.1,0.3-0.2,0.7-0.4c0.4-0.2,0.8-0.3,1.2-0.3h0.9v1.7H662.6z M668.9,46v-6.2c0-0.2,0-0.3-0.1-0.4c-0.1-0.1-0.1-0.2-0.2-0.3
				s-0.2-0.2-0.3-0.2c-0.1-0.1-0.3-0.1-0.4-0.1h-0.6c-0.1,0-0.3,0-0.4,0.1c-0.1,0.1-0.2,0.1-0.3,0.2s-0.2,0.2-0.2,0.3
				c-0.1,0.1-0.1,0.3-0.1,0.4V46h-1.6v-8.7h0.8l0.4,0.6c0.1-0.1,0.3-0.2,0.7-0.4c0.4-0.2,0.8-0.3,1.2-0.3h0.2c0.4,0,0.7,0.1,1,0.2
				c0.3,0.1,0.6,0.3,0.9,0.6c0.2,0.2,0.4,0.5,0.6,0.9c0.1,0.3,0.2,0.7,0.2,1V46H668.9z M678,43.7c0,0.4-0.1,0.7-0.2,1
				c-0.1,0.3-0.3,0.6-0.6,0.8c-0.2,0.2-0.5,0.4-0.9,0.5c-0.3,0.1-0.7,0.2-1,0.2h-0.6c-0.4,0-0.7-0.1-1-0.2c-0.3-0.1-0.6-0.3-0.9-0.6
				c-0.2-0.2-0.5-0.5-0.6-0.9c-0.1-0.3-0.2-0.7-0.2-1v-0.6l1.6-0.3v0.9c0,0.1,0,0.3,0.1,0.4c0.1,0.1,0.1,0.2,0.2,0.3
				c0.1,0.1,0.2,0.2,0.4,0.2c0.1,0.1,0.3,0.1,0.4,0.1h0.6c0.2,0,0.3,0,0.5-0.1c0.1-0.1,0.3-0.1,0.4-0.2c0.1-0.1,0.2-0.2,0.2-0.3
				c0.1-0.1,0.1-0.2,0.1-0.4c0-0.2,0-0.4-0.1-0.5c-0.1-0.1-0.2-0.3-0.4-0.4c-0.2-0.1-0.4-0.2-0.6-0.3c-0.2-0.1-0.5-0.2-0.8-0.2
				c-0.3-0.1-0.6-0.2-0.9-0.3c-0.3-0.1-0.5-0.3-0.8-0.5c-0.2-0.2-0.4-0.4-0.6-0.7c-0.1-0.3-0.2-0.7-0.2-1.1c0-0.4,0.1-0.7,0.2-1
				c0.1-0.3,0.3-0.6,0.6-0.8c0.2-0.2,0.5-0.4,0.8-0.5c0.3-0.1,0.7-0.2,1-0.2h0.6c0.4,0,0.7,0.1,1,0.2c0.3,0.1,0.6,0.3,0.9,0.6
				c0.2,0.2,0.4,0.5,0.6,0.9c0.1,0.3,0.2,0.7,0.2,1v0.3l-1.6,0.3v-0.6c0-0.2,0-0.3-0.1-0.4c-0.1-0.1-0.1-0.2-0.2-0.3
				s-0.2-0.2-0.3-0.2c-0.1-0.1-0.3-0.1-0.4-0.1h-0.6c-0.2,0-0.3,0-0.4,0.1c-0.1,0-0.2,0.1-0.3,0.2c-0.1,0.1-0.2,0.2-0.2,0.3
				c-0.1,0.1-0.1,0.2-0.1,0.4c0,0.2,0,0.4,0.1,0.5c0.1,0.1,0.2,0.2,0.4,0.3c0.2,0.1,0.4,0.2,0.6,0.3c0.2,0.1,0.5,0.2,0.8,0.2
				c0.3,0.1,0.6,0.2,0.8,0.3c0.3,0.1,0.5,0.3,0.8,0.5c0.2,0.2,0.4,0.4,0.6,0.8C677.9,42.9,678,43.2,678,43.7z"/>
			<path class="st3" d="M562.3,65.2h-1l-2-6.3l0.3-0.5l0.3,0.5l-2,6.3h-1l-2.9-8.7h1.7l2,6.3l-0.3,0.5l-0.3-0.5l2-6.3h1.1l1.9,6.3
				l-0.3,0.5l-0.3-0.5l2-6.3h1.7L562.3,65.2z M569.9,65.2V59c0-0.2,0-0.3-0.1-0.4c-0.1-0.1-0.1-0.2-0.2-0.3s-0.2-0.2-0.3-0.2
				c-0.1-0.1-0.3-0.1-0.4-0.1h-0.6c-0.1,0-0.3,0-0.4,0.1c-0.1,0.1-0.2,0.1-0.3,0.2s-0.2,0.2-0.2,0.3c-0.1,0.1-0.1,0.3-0.1,0.4v6.2
				h-1.6V53.4h1.6L567,57c0-0.1,0.1-0.2,0.5-0.4c0.4-0.2,0.7-0.2,1.2-0.2h0.2c0.4,0,0.7,0.1,1,0.2c0.3,0.1,0.6,0.3,0.9,0.6
				c0.2,0.2,0.4,0.5,0.6,0.9c0.1,0.3,0.2,0.7,0.2,1v6.1H569.9z M573,55.3v-1.9h1.8v1.9H573z M573.1,65.2v-8.7h1.6v8.7H573.1z
				 M576.6,65.2V53.4h1.6v11.9H576.6z M586,62.9c0,0.4-0.1,0.7-0.2,1c-0.1,0.3-0.3,0.6-0.6,0.8c-0.2,0.2-0.5,0.4-0.9,0.5
				c-0.3,0.1-0.7,0.2-1,0.2h-0.6c-0.4,0-0.7-0.1-1-0.2c-0.3-0.1-0.6-0.3-0.9-0.6c-0.2-0.2-0.5-0.5-0.6-0.9c-0.1-0.3-0.2-0.7-0.2-1
				v-0.6l1.6-0.3v0.9c0,0.1,0,0.3,0.1,0.4c0.1,0.1,0.1,0.2,0.2,0.3c0.1,0.1,0.2,0.2,0.4,0.2c0.1,0.1,0.3,0.1,0.4,0.1h0.6
				c0.2,0,0.3,0,0.5-0.1c0.1-0.1,0.3-0.1,0.4-0.2c0.1-0.1,0.2-0.2,0.2-0.3c0.1-0.1,0.1-0.2,0.1-0.4c0-0.2,0-0.4-0.1-0.5
				s-0.2-0.3-0.4-0.4c-0.2-0.1-0.4-0.2-0.6-0.3c-0.2-0.1-0.5-0.2-0.8-0.2c-0.3-0.1-0.6-0.2-0.9-0.3c-0.3-0.1-0.5-0.3-0.8-0.5
				c-0.2-0.2-0.4-0.4-0.6-0.7c-0.1-0.3-0.2-0.7-0.2-1.1c0-0.4,0.1-0.7,0.2-1c0.1-0.3,0.3-0.6,0.6-0.8c0.2-0.2,0.5-0.4,0.8-0.5
				c0.3-0.1,0.7-0.2,1-0.2h0.6c0.4,0,0.7,0.1,1,0.2c0.3,0.1,0.6,0.3,0.9,0.6c0.2,0.2,0.4,0.5,0.6,0.9c0.1,0.3,0.2,0.7,0.2,1v0.3
				l-1.6,0.3V59c0-0.2,0-0.3-0.1-0.4c-0.1-0.1-0.1-0.2-0.2-0.3s-0.2-0.2-0.3-0.2c-0.1-0.1-0.3-0.1-0.4-0.1h-0.6
				c-0.2,0-0.3,0-0.4,0.1c-0.1,0-0.2,0.1-0.3,0.2c-0.1,0.1-0.2,0.2-0.2,0.3c-0.1,0.1-0.1,0.2-0.1,0.4c0,0.2,0,0.4,0.1,0.5
				c0.1,0.1,0.2,0.2,0.4,0.3c0.2,0.1,0.4,0.2,0.6,0.3s0.5,0.2,0.8,0.2c0.3,0.1,0.6,0.2,0.8,0.3c0.3,0.1,0.5,0.3,0.8,0.5
				c0.2,0.2,0.4,0.4,0.6,0.8C585.9,62.1,586,62.4,586,62.9z M590.4,65.2c-0.3,0-0.7-0.1-1-0.2c-0.3-0.1-0.6-0.3-0.8-0.5
				c-0.2-0.2-0.4-0.5-0.5-0.8c-0.1-0.3-0.2-0.6-0.2-1v-4.7h-1.4v-1.6h1.4v-1.9l1.6-0.3v2.1h2v1.6h-2v4.7c0,0.1,0,0.2,0.1,0.3
				c0.1,0.1,0.1,0.2,0.2,0.2c0.1,0.1,0.2,0.1,0.2,0.2c0.1,0,0.2,0.1,0.3,0.1h1.2v1.6H590.4z M599.7,65.2c-0.3,0-0.7-0.1-1-0.2
				c-0.3-0.1-0.6-0.3-0.8-0.5c-0.2-0.2-0.4-0.5-0.5-0.8c-0.1-0.3-0.2-0.6-0.2-1v-4.7h-1.4v-1.6h1.4v-1.9l1.6-0.3v2.1h2v1.6h-2v4.7
				c0,0.1,0,0.2,0.1,0.3c0.1,0.1,0.1,0.2,0.2,0.2c0.1,0.1,0.2,0.1,0.2,0.2c0.1,0,0.2,0.1,0.3,0.1h1.2v1.6H599.7z M604.7,58.1
				c-0.1,0-0.3,0-0.4,0.1c-0.1,0.1-0.2,0.1-0.3,0.2s-0.2,0.2-0.2,0.3c-0.1,0.1-0.1,0.3-0.1,0.4v6H602v-8.7h0.8l0.4,0.6
				c0.1-0.1,0.3-0.2,0.7-0.4s0.8-0.3,1.2-0.3h0.9v1.7H604.7z M611.8,65.2l-0.4-0.6c-0.1,0.1-0.3,0.2-0.7,0.4
				c-0.4,0.2-0.8,0.3-1.2,0.3h-0.2c-0.4,0-0.7-0.1-1-0.2c-0.3-0.1-0.6-0.3-0.9-0.6c-0.2-0.2-0.4-0.5-0.6-0.9c-0.1-0.3-0.2-0.7-0.2-1
				v-0.1c0-0.4,0.1-0.7,0.2-1c0.1-0.3,0.3-0.6,0.6-0.9c0.2-0.2,0.5-0.4,0.9-0.6c0.3-0.1,0.7-0.2,1-0.2h1.7V59c0-0.2,0-0.3-0.1-0.4
				c-0.1-0.1-0.1-0.2-0.2-0.3s-0.2-0.2-0.3-0.2c-0.1-0.1-0.3-0.1-0.4-0.1h-0.6c-0.1,0-0.3,0-0.4,0.1c-0.1,0.1-0.2,0.1-0.3,0.2
				s-0.2,0.2-0.2,0.3c-0.1,0.1-0.1,0.3-0.1,0.4v0.7l-1.6-0.3v-0.4c0-0.4,0.1-0.7,0.2-1c0.1-0.3,0.3-0.6,0.6-0.9
				c0.2-0.2,0.5-0.4,0.9-0.6c0.3-0.1,0.7-0.2,1-0.2h0.6c0.4,0,0.7,0.1,1,0.2c0.3,0.1,0.6,0.3,0.9,0.6c0.2,0.2,0.4,0.5,0.6,0.9
				c0.1,0.3,0.2,0.7,0.2,1v6.1H611.8z M611,61.3h-1.7c-0.1,0-0.3,0-0.4,0.1c-0.1,0.1-0.2,0.1-0.3,0.2s-0.2,0.2-0.2,0.3
				c-0.1,0.1-0.1,0.3-0.1,0.4v0.3c0,0.1,0,0.3,0.1,0.4c0.1,0.1,0.1,0.2,0.2,0.3s0.2,0.2,0.3,0.2c0.1,0.1,0.3,0.1,0.4,0.1h0.6
				c0.2,0,0.3,0,0.4-0.1c0.1-0.1,0.2-0.1,0.3-0.2s0.2-0.2,0.2-0.3c0.1-0.1,0.1-0.3,0.1-0.4V61.3z M616.9,65.2H616l-3.1-8.7h1.7
				l2.2,6.3l-0.3,0.5l-0.3-0.5l2.2-6.3h1.7L616.9,65.2z M626.3,62.7c0,0.4-0.1,0.7-0.2,1c-0.1,0.3-0.3,0.6-0.6,0.9
				c-0.2,0.2-0.5,0.4-0.9,0.6c-0.3,0.1-0.7,0.2-1,0.2H623c-0.4,0-0.7-0.1-1-0.2c-0.3-0.1-0.6-0.3-0.9-0.6c-0.2-0.2-0.4-0.5-0.6-0.9
				c-0.1-0.3-0.2-0.7-0.2-1v-3.6c0-0.4,0.1-0.7,0.2-1c0.1-0.3,0.3-0.6,0.6-0.9c0.2-0.2,0.5-0.4,0.9-0.6c0.3-0.1,0.7-0.2,1-0.2h0.6
				c0.4,0,0.7,0.1,1,0.2c0.3,0.1,0.6,0.3,0.9,0.6c0.2,0.2,0.4,0.5,0.6,0.9c0.1,0.3,0.2,0.7,0.2,1v2.2h-4.4v1.5c0,0.1,0,0.3,0.1,0.4
				c0.1,0.1,0.1,0.2,0.2,0.3s0.2,0.2,0.3,0.2c0.1,0.1,0.3,0.1,0.4,0.1h0.6c0.2,0,0.3,0,0.4-0.1c0.1-0.1,0.2-0.1,0.3-0.2
				s0.2-0.2,0.2-0.3c0.1-0.1,0.1-0.3,0.1-0.4v-0.9l1.6,0.3V62.7L626.3,62.7z M624.7,59c0-0.2,0-0.3-0.1-0.4
				c-0.1-0.1-0.1-0.2-0.2-0.3s-0.2-0.2-0.3-0.2c-0.1-0.1-0.3-0.1-0.4-0.1H623c-0.1,0-0.3,0-0.4,0.1c-0.1,0.1-0.2,0.1-0.3,0.2
				s-0.2,0.2-0.2,0.3c-0.1,0.1-0.1,0.3-0.1,0.4v0.9h2.8V59z M627.9,65.2V53.4h1.6v11.9H627.9z M631.4,65.2V53.4h1.6v11.9H631.4z
				 M634.9,55.3v-1.9h1.8v1.9H634.9z M634.9,65.2v-8.7h1.6v8.7H634.9z M642.5,65.2V59c0-0.2,0-0.3-0.1-0.4c-0.1-0.1-0.1-0.2-0.2-0.3
				s-0.2-0.2-0.3-0.2c-0.1-0.1-0.3-0.1-0.4-0.1h-0.6c-0.1,0-0.3,0-0.4,0.1c-0.1,0.1-0.2,0.1-0.3,0.2s-0.2,0.2-0.2,0.3
				c-0.1,0.1-0.1,0.3-0.1,0.4v6.2h-1.6v-8.7h0.8l0.4,0.6c0.1-0.1,0.3-0.2,0.7-0.4s0.8-0.3,1.2-0.3h0.2c0.4,0,0.7,0.1,1,0.2
				c0.3,0.1,0.6,0.3,0.9,0.6c0.2,0.2,0.4,0.5,0.6,0.9c0.1,0.3,0.2,0.7,0.2,1v6.1H642.5z M651.5,65.9c0,0.4-0.1,0.7-0.2,1
				c-0.1,0.3-0.3,0.6-0.6,0.8c-0.2,0.2-0.5,0.4-0.8,0.5c-0.3,0.1-0.7,0.2-1,0.2h-0.4c-0.4,0-0.7-0.1-1-0.2c-0.3-0.1-0.6-0.3-0.9-0.5
				c-0.2-0.2-0.4-0.5-0.6-0.8c-0.1-0.3-0.2-0.7-0.2-1v0c0-0.4,0.1-0.7,0.2-1c0.1-0.3,0.2-0.5,0.3-0.5c-0.1,0-0.2-0.2-0.4-0.5
				c-0.2-0.3-0.2-0.6-0.2-1c0-0.3,0.1-0.6,0.2-0.9c0.1-0.3,0.2-0.4,0.3-0.5c-0.1-0.1-0.3-0.3-0.4-0.6c-0.2-0.4-0.2-0.7-0.2-1.2v-0.6
				c0-0.4,0.1-0.7,0.2-1c0.1-0.3,0.3-0.6,0.6-0.9c0.2-0.2,0.5-0.4,0.9-0.6c0.3-0.1,0.7-0.2,1-0.2h0.4c0.4,0,0.8,0.1,1.2,0.3
				c0.4,0.2,0.6,0.3,0.7,0.4l0.3-0.6h0.8v3.1c0,0.4-0.1,0.7-0.2,1c-0.1,0.3-0.3,0.6-0.6,0.9c-0.2,0.2-0.5,0.4-0.9,0.6
				c-0.3,0.1-0.7,0.2-1,0.2h-1.4c-0.1,0-0.1,0-0.2,0s-0.1,0.1-0.2,0.1c0,0-0.1,0.1-0.1,0.2c0,0.1,0,0.1,0,0.2c0,0.1,0,0.1,0,0.2
				c0,0.1,0.1,0.1,0.1,0.2c0.1,0,0.1,0.1,0.2,0.1c0.1,0,0.1,0,0.2,0h1.3c0.4,0,0.7,0.1,1,0.2c0.3,0.1,0.6,0.3,0.8,0.5
				c0.2,0.2,0.4,0.5,0.6,0.8C651.4,65.2,651.5,65.5,651.5,65.9L651.5,65.9L651.5,65.9z M650,59c0-0.2,0-0.3-0.1-0.4
				c-0.1-0.1-0.1-0.2-0.2-0.3c-0.1-0.1-0.2-0.2-0.3-0.2c-0.1-0.1-0.3-0.1-0.4-0.1h-0.8c-0.1,0-0.3,0-0.4,0.1
				c-0.1,0.1-0.2,0.1-0.3,0.2s-0.2,0.2-0.2,0.3c-0.1,0.1-0.1,0.3-0.1,0.4v0.7c0,0.2,0,0.3,0.1,0.4c0.1,0.1,0.1,0.2,0.2,0.3
				s0.2,0.2,0.3,0.2c0.1,0.1,0.3,0.1,0.4,0.1h0.8c0.2,0,0.3,0,0.4-0.1c0.1-0.1,0.2-0.1,0.3-0.2c0.1-0.1,0.2-0.2,0.2-0.3
				c0.1-0.1,0.1-0.3,0.1-0.4V59z M649.9,65.8c0-0.1,0-0.3-0.1-0.4c-0.1-0.1-0.1-0.2-0.2-0.3c-0.1-0.1-0.2-0.1-0.3-0.2
				c-0.1-0.1-0.3-0.1-0.4-0.1h-0.5c-0.2,0-0.3,0-0.4,0.1c-0.1,0-0.2,0.1-0.3,0.2c-0.1,0.1-0.2,0.2-0.2,0.3c-0.1,0.1-0.1,0.2-0.1,0.4
				V66c0,0.1,0,0.3,0.1,0.4c0.1,0.1,0.1,0.2,0.2,0.3c0.1,0.1,0.2,0.1,0.3,0.2c0.1,0.1,0.3,0.1,0.4,0.1h0.5c0.2,0,0.3,0,0.4-0.1
				c0.1,0,0.2-0.1,0.3-0.2c0.1-0.1,0.2-0.2,0.2-0.3c0.1-0.1,0.1-0.2,0.1-0.4V65.8z"/>
		</g>
	</g>
</g>
</svg>
